<?xml version="1.0" standalone="no"?>
<!DOCTYPE svg PUBLIC "-//W3C//DTD SVG 20010904//EN"
 "http://www.w3.org/TR/2001/REC-SVG-20010904/DTD/svg10.dtd">
<svg version="1.0" xmlns="http://www.w3.org/2000/svg"
 width="700.000000pt" height="700.000000pt" viewBox="0 0 700.000000 700.000000"
 preserveAspectRatio="xMidYMid meet">
<metadata>
Created by potrace 1.11, written by Peter Selinger 2001-2013
</metadata>
<g transform="translate(0.000000,700.000000) scale(0.100000,-0.100000)"
fill="#000000" stroke="none">
<path d="M968 6905 c-2 -1 -32 -5 -68 -8 -421 -37 -695 -297 -757 -717 -10
-68 -11 -1730 -1 -1820 11 -100 44 -216 87 -304 139 -286 402 -432 795 -440
535 -11 856 236 933 719 10 62 11 1759 1 1835 -14 108 -60 262 -100 331 -152
267 -399 394 -785 403 -57 2 -104 2 -105 1z m238 -445 c76 -17 149 -57 194
-106 45 -49 93 -144 105 -209 5 -22 9 -410 10 -861 3 -873 2 -906 -44 -1010
-53 -119 -168 -204 -301 -222 -54 -7 -205 -7 -240 1 -147 31 -231 91 -290 207
-54 107 -55 134 -54 1021 1 448 4 829 8 848 30 148 110 258 226 308 86 37 272
48 386 23z"/>
<path d="M2534 6755 l-232 -154 -1 -235 c0 -130 3 -236 7 -236 5 0 109 62 233
138 l224 139 3 -1396 2 -1396 226 2 c124 0 228 4 231 7 4 4 8 3231 4 3279 -1
4 -106 7 -233 7 l-233 0 -231 -155z"/>
<path d="M4495 6899 c-27 -4 -74 -10 -104 -14 -64 -8 -186 -47 -256 -82 -218
-109 -362 -323 -409 -609 -12 -74 -14 -233 -12 -959 1 -478 6 -888 10 -910 55
-300 199 -504 437 -618 197 -95 492 -119 772 -62 89 18 237 87 307 143 154
124 257 303 287 497 2 17 8 48 13 70 5 22 9 418 10 880 0 759 -3 902 -24 1005
-1 8 -6 33 -11 55 -10 51 -61 178 -93 230 -133 217 -330 335 -616 370 -79 10
-249 12 -311 4z m325 -449 c137 -46 206 -119 256 -270 17 -51 19 -112 21 -885
3 -886 2 -913 -46 -1021 -52 -117 -164 -201 -295 -221 -65 -11 -221 -6 -278 7
-173 41 -279 165 -305 355 -9 63 -9 1622 -1 1690 18 143 99 268 210 323 104
51 320 62 438 22z"/>
<path d="M6135 6754 l-230 -154 0 -235 c0 -129 3 -235 6 -235 7 0 387 231 430
261 25 18 27 18 31 1 2 -9 3 -637 3 -1394 l-1 -1378 20 -1 c120 -4 428 -1 433
5 5 4 8 745 8 1647 l0 1639 -235 -1 -235 0 -230 -155z"/>
<path d="M369 3191 l-234 -156 -1 -230 c0 -126 1 -233 3 -237 2 -4 38 14 81
40 42 26 85 52 94 57 10 6 73 45 141 87 68 42 129 78 137 80 10 2 13 -250 13
-1390 l0 -1392 231 2 231 3 1 1635 c0 899 -1 1640 -3 1646 -3 8 -73 11 -232
11 l-229 -1 -233 -155z"/>
<path d="M6155 3191 l-235 -156 0 -238 0 -238 22 12 c12 7 106 64 208 127 102
62 197 120 213 128 l27 15 0 -1395 0 -1394 230 -1 230 0 0 1648 0 1648 -230 0
-231 0 -234 -156z"/>
<path d="M2347 3324 c-2 -2 -27 -6 -57 -9 -149 -14 -287 -60 -399 -132 -72
-46 -177 -154 -219 -225 -68 -115 -114 -258 -128 -400 -9 -86 -11 -1647 -2
-1728 17 -160 37 -238 93 -355 119 -248 334 -391 650 -431 75 -10 249 -10 335
-1 360 37 615 240 708 562 44 152 46 192 46 1115 -1 877 -2 902 -51 1055 -98
308 -340 497 -693 541 -54 7 -278 13 -283 8z m267 -445 c173 -40 274 -163 302
-364 9 -65 9 -1581 0 -1661 -8 -74 -38 -166 -70 -214 -83 -122 -187 -170 -381
-174 -257 -6 -414 108 -461 336 -12 59 -14 202 -12 912 3 778 5 845 21 894 54
161 150 245 314 276 79 15 214 12 287 -5z"/>
<path d="M4545 3322 c-287 -24 -482 -112 -620 -279 -87 -105 -158 -266 -179
-403 -3 -19 -8 -57 -12 -85 -8 -62 -9 -1706 0 -1757 3 -21 9 -55 12 -75 49
-330 268 -572 587 -652 164 -42 380 -47 572 -15 51 8 188 55 240 83 233 121
379 355 412 661 10 92 9 1680 -1 1770 -9 82 -49 235 -77 298 -37 83 -108 179
-180 246 -115 106 -300 184 -484 202 -73 7 -219 11 -270 6z m284 -451 c148
-45 228 -135 267 -298 14 -60 16 -170 17 -888 0 -885 0 -887 -53 -1000 -70
-148 -200 -218 -405 -218 -55 0 -116 2 -137 6 -169 31 -286 148 -324 326 -20
95 -19 1675 1 1769 40 182 166 301 340 319 28 3 51 6 53 8 11 10 187 -8 241
-24z"/>
</g>
</svg>
