<svg height="512" viewBox="0 0 60 60" width="512" xmlns="http://www.w3.org/2000/svg" xmlns:xlink="http://www.w3.org/1999/xlink"><linearGradient id="linearGradient-1" x1="8.162%" x2="80.396%" y1="10.744%" y2="86.744%"><stop offset="0" stop-color="#d3dff2"/><stop offset=".17" stop-color="#d3dff2"/><stop offset=".2" stop-color="#d3dff2"/><stop offset=".2" stop-color="#dae2f2"/><stop offset=".2" stop-color="#ebeaf2"/><stop offset=".2" stop-color="#f6eff2"/><stop offset=".2" stop-color="#fdf2f2"/><stop offset=".2" stop-color="#fff3f2"/><stop offset=".25" stop-color="#fff3f2"/><stop offset=".26" stop-color="#fff3f2"/><stop offset=".26" stop-color="#d3dff2"/><stop offset=".4" stop-color="#d3dff2"/><stop offset=".42" stop-color="#d3dff2"/><stop offset=".42" stop-color="#dae2f2"/><stop offset=".42" stop-color="#ebeaf2"/><stop offset=".42" stop-color="#f6eff2"/><stop offset=".42" stop-color="#fdf2f2"/><stop offset=".42" stop-color="#fff3f2"/><stop offset=".49" stop-color="#fff3f2"/><stop offset=".5" stop-color="#fff3f2"/><stop offset=".5" stop-color="#f8f0f2"/><stop offset=".5" stop-color="#e7e8f2"/><stop offset=".5" stop-color="#dce3f2"/><stop offset=".5" stop-color="#d5e0f2"/><stop offset=".5" stop-color="#d3dff2"/><stop offset=".71" stop-color="#d3dff2"/><stop offset=".74" stop-color="#d3dff2"/><stop offset=".74" stop-color="#fff3f2"/><stop offset=".83" stop-color="#fff3f2"/><stop offset=".85" stop-color="#fff3f2"/><stop offset=".85" stop-color="#d3dff2"/></linearGradient><g id="006---Astronaut" fill="none"><g id="Icons_copy" transform="translate(13)"><path id="Shape" d="m29 13c.0016518 4.4228133-2.4296686 8.4879981-6.3270462 10.5788659-3.8973775 2.0908678-8.6289276 1.8684246-12.3129538-.5788659 14.64-.16 13.64-10 13.64-10s-1-4-7-7c-3.174435-1.58917501-6.9372429-1.46500234-10 .33 2.92963557-4.41667352 8.4097437-6.3883822 13.4817389-4.85064548 5.0719952 1.53773673 8.5345301 6.22069219 8.5182611 11.52064548z" fill="#e8edfc"/><path id="Shape" d="m17 1c-.5150152-.00189344-1.0295546.03151821-1.54.1 5.9795375.77681854 10.4540375 5.87021427 10.4540375 11.9 0 6.0297857-4.4745 11.1231815-10.4540375 11.9.5107392.0654831 1.0250813.0988819 1.54.1 6.6274169-.0000001 11.9999998-5.3725831 11.9999998-12 0-6.62741693-5.3725829-11.9999999-11.9999998-12z" fill="#cad9fc"/><path id="Shape" d="m10.36 23c-.47600564-.3013465-.9304391-.6354887-1.36-1-4.48991582-3.9848817-5.34428367-10.6745819-2-15.66 3.0610465-1.7981848 6.8238871-1.92612139 10-.34 6 3 7 7 7 7s1 9.84-13.64 10z" fill="url(#linearGradient-1)"/><path id="Shape" d="m24 13s-1-4-7-7c-1.8821864-.96345029-4.0188767-1.3131541-6.11-1 1.0832634.16576591 2.133132.50334424 3.11 1 6 3 7 7 7 7s.84 8.53-10.86 9.83l.22.16c14.64-.15 13.64-9.99 13.64-9.99z" fill="#a4c2f7"/><path id="Shape" d="m28 43.2-.26 1c-.3857433 1.5518757-1.9209239 2.5284089-3.49 2.22l-2.25-.42v-.14s0-5.93 2-10.08z" fill="#e8edfc"/><path id="Shape" d="m32.59 24.65-2.53 10.09c-1.06-3.07-2.24-5.92-3.06-6.74-.7470404-.7332713-1.7349171-1.1703534-2.78-1.23 2.63-2.77-.22-3.77-.22-3.77l-.12-.17c1.7420226-1.2352222 3.1228603-2.91294 4-4.86l.12.03 3.8 3.8c.7458359.7451831 1.0457584 1.827182.79 2.85z" fill="#e8edfc"/><path id="Shape" d="m28 43.2-.26 1c-.3857433 1.5518757-1.9209239 2.5284089-3.49 2.22l-2.25-.42v-.14s0-5.93 2-10.08z" fill="#a4c2f7"/><path id="Shape" d="m24 35.78c-.5009714 1.1014377-.8896038 2.2505835-1.16 3.43l2.15 4-.26 1c-.2104596.8862844-.8198602 1.6249518-1.65 2l1.16.23c1.5690761.3084089 3.1042567-.6681243 3.49-2.22l.26-1z" fill="#7facfa"/><path id="Shape" d="m32.59 24.65-2.53 10.09c-1.06-3.07-2.24-5.92-3.06-6.74-.7470404-.7332713-1.7349171-1.1703534-2.78-1.23 2.63-2.77-.22-3.77-.22-3.77l-.12-.17c1.7420226-1.2352222 3.1228603-2.91294 4-4.86l.12.03 3.8 3.8c.7458359.7451831 1.0457584 1.827182.79 2.85z" fill="#a4c2f7"/><path id="Shape" d="m31.8 21.8-3.8-3.8h-.07c-.3062602.6548955-.6710772 1.2807742-1.09 1.87l2 2c.7458359.7451831 1.0457584 1.827182.79 2.85l-1.36 5.43c.58 1.27 1.22 2.92 1.83 4.66l2.53-10.09c.2725382-1.0518202-.0449576-2.1687935-.83-2.92z" fill="#7facfa"/><path id="Shape" d="m6.81 39.27-1.3 1.73c-.53685398.7438655-1.44174549 1.1289257-2.35 1-.8842728-.1184753-1.63919597-.6974399-1.9829244-1.5207416-.34372842-.8233016-.22459434-1.7671851.3129244-2.4792584l6.18-8.38c-1.2476591 3.0576992-1.54729204 6.4198595-.86 9.65z" fill="#e8edfc"/><path id="Shape" d="m32.08 44.92c-.4894715.490854-1.1824332.7209914-1.8683025.6204761-.6858693-.1005154-1.2836551-.519814-1.6116975-1.1304761l-.6-1.21-4-7.42c-2 4.15-2 10.08-2 10.08v8.06c.0619597.5323146-.117844 1.0643866-.49 1.45l-2.7 2.9c-.794927.7955091-2.0244131.9594406-3 .4-.4438962-.2079095-.7824092-.5896694-.9357113-1.0552536s-.1078235-.9737804.1257113-1.4047464c.1-.18.21-.39.31-.6 1.2-1.28 1.77-1.69 1.65-2.67l-1-7.77c-2.3195514.3801956-4.696159-.1539138-6.63-1.49-1.15361572-.9429298-1.97102336-2.2339427-2.33-3.68-.07-.25-.13-.49-.19-.73-.67499076-3.2109663-.37552457-6.5503625.86-9.59.35761969-.9333672.80294651-1.8307175 1.33-2.68l.53-.66c-1.95-1.49-.53-4.34-.53-4.34.42313423.3637576.87086426.6978845 1.34 1 4.1106795 2.7323024 9.4751325 2.6688177 13.52-.16l.14.16s2.85.95.22 3.77c1.0450829.0596466 2.0329596.4967287 2.78 1.23.82.82 2 3.67 3.06 6.74 1.08 3 2.06 6.28 2.57 8 .2344267.7724507.022813 1.6112107-.55 2.18z" fill="#e8edfc"/><path id="Shape" d="m32.63 42.75c-.51-1.72-1.49-5-2.57-8-1.06-3.08-2.24-5.93-3.06-6.75-.7470404-.7332713-1.7349171-1.1703534-2.78-1.23 2.63-2.77-.22-3.77-.22-3.77l-.12-.17c-.5592107.3851102-1.1515407.7197599-1.77 1 .37.6.41 1.53-.89 2.92 1.0477642.0650496 2.035992.5093966 2.78 1.25.82.82 2 3.67 3.06 6.74 1.08 3 2.06 6.28 2.57 8 .2304137.7694221.0190836 1.6032155-.55 2.17.7200238.6744528 1.8021243.784206 2.642906.2680595.8407816-.5161465 1.2326502-1.5307529.957094-2.4780595z" fill="#cad9fc"/><path id="Shape" d="m22 45.86c.0444797-2.2383507.3158685-4.4664189.81-6.65l-1.81-3.43c-2 4.15-2 10.08-2 10.08v8.06c.0619597.5323146-.117844 1.0643866-.49 1.45l-2.7 2.9c-.0784779.0817821-.1619729.1585975-.25.23.0793366.0623322.1628671.119133.25.17.9755869.5594406 2.205073.3955091 3-.4l2.7-2.9c.372156-.3856134.5519597-.9176854.49-1.45z" fill="#cad9fc"/><g fill="#e8edfc"><path id="Shape" d="m15.34 55.61c-1.4 1.39-1.81 2.39-3.34 2.39-1.69 0-2.76-1.49-2-2.79.8036563-1.3448669 1.2670556-2.865503 1.35-4.43 0-2.24-1.31-5.59-2-7.11 1.9377161 1.3447186 4.3226467 1.8826729 6.65 1.5l1 7.77c.11.98-.46 1.39-1.66 2.67z"/><path id="Shape" d="m15 31c1.2526802.5984842 2.6130543.9385777 4 1v5s-3 1-4-1z"/></g></g><path id="Shape" d="m2.16 42c.65016354.0987708 1.31280666-.06689 1.84-.46-1.09348473-.8240087-1.32484354-2.3723331-.52-3.48l6.18-8.38c.3608157-.9337407.8094969-1.831103 1.34-2.68l.53-.66c-1.95-1.49-.53-4.34-.53-4.34-4.48991582-3.9848817-5.34428367-10.6745819-2-15.66 1.9331568-2.89362891 5.0272567-4.80554912 8.48-5.24-4.5126552-.60022176-8.97147264 1.43110358-11.48 5.23-3.35021262 4.9874718-2.49553137 11.6838994 2 15.67 0 0-1.42 2.85.53 4.34l-.53.66c-.52705349.8492825-.97238031 1.7466328-1.33 2.68l-6.18 8.38c-.50705809.7106235-.60846817 1.6336651-.26778803 2.4374254.34068013.8037603 1.07451141 1.3727783 1.93778803 1.5025746z" fill="#fff" transform="translate(14)"/><path id="Shape" d="m21.36 19.8-1.57 1.2c-1.7904783-2.2840021-2.7718274-5.0979063-2.79-8h2c.0087453 2.4660135.8391719 4.8587681 2.36 6.8z" fill="#fff"/><g fill="#428dff"><path id="Shape" d="m18.68 17.94c-.5522847 0-1-.4477153-1-1s.4477153-1 1-1 1 .4477153 1 1-.4477153 1-1 1z"/><path id="Shape" d="m30.4 11.8c.1730962.1298221.3836298.2.6.2.3147573 0 .6111456-.1481942.8-.4.1591299-.2121732.2274568-.4788704.1899495-.7414214-.0375073-.2625509-.1777763-.4994487-.3899495-.6585786-.3563112-.26549994-.7305351-.50607242-1.12-.72-.4860106-.27614237-1.1038576-.10601058-1.38.38-.2761424.4860106-.1060106 1.1038576.38 1.38.3222573.1597589.6300739.3471256.92.56z"/><path id="Shape" d="m22 11c.1266534.0003081.2522124-.0234463.37-.07 1.1648338-.4117932 2.3948445-.6083239 3.63-.58.5522847 0 1-.44771525 1-1s-.4477153-1-1-1c-1.4944075-.02163452-2.9807933.2221463-4.39.72-.4508435.17780552-.7092974.65329925-.6133054 1.1283363.0959919.4750371.5187962.8128673 1.0033054.8016637z"/><path id="Shape" d="m32 31c-1.2315294-.060137-2.4385677-.3661467-3.55-.9-.3094011-.1786328-.6905989-.1786328-1 0-.3010027.1971855-.4728532.5408866-.45.9v5c.0009386.1565423.0386161.3106777.11.45.6362795 1.20175 1.9240605 1.9123852 3.28 1.81.6528387.0124502 1.3037292-.0752346 1.93-.26.4253709-.1429939.7033915-.5518476.68-1v-5c0-.5522847-.4477153-1-1-1zm-1 5.2c-.7048313.1957694-1.4607945.0143382-2-.48v-3.25c.6497813.2192119 1.3197404.3733025 2 .46z"/><path id="Shape" d="m4 50c0-.5522847-.44771525-1-1-1h-2c-.55228475 0-1 .4477153-1 1s.44771525 1 1 1h2c.55228475 0 1-.4477153 1-1z"/><path id="Shape" d="m59 49h-23v-1.78l1 .2c.2602424.0513783.5247408.078163.79.08 1.4132816-.0156329 2.7134024-.7759375 3.42-2 .4869786.5367682 1.1436689.8898275 1.86 1h.47c.8432388-.00144 1.6518278-.3356568 2.25-.93.8312941-.823899 1.1391158-2.0397947.8-3.16-.74-2.41-1.59-5.23-2.48-7.73l2.45-9.79c.3418595-1.3631694-.0567465-2.8057434-1.05-3.8l-3.4-3.4c.5883698-1.4936256.8902944-3.0846662.89-4.69 0-7.17970175-5.8202983-13-13-13s-13 5.82029825-13 13c0 .5522847.4477153 1 1 1s1-.4477153 1-1c-.0023107-2.0997363.6019028-4.15545118 1.74-5.92 2.7260669-1.51073805 6.0213356-1.58180514 8.81-.19 5.11 2.56 6.3 5.77 6.46 6.28.0350585 1.9394083-.6816418 3.817163-2 5.24-2.01 2.27-5.51 3.46-10.33 3.59-.8757639-.6093223-1.6574168-1.3438065-2.32-2.18-.325441-.4203805-.9229165-.5126378-1.36-.21-.2210203.1595327-.367339.4023754-.4050948.6723294s.0363236.5436216.2050948.7576706c.3258886.4109837.6765395.801709 1.05 1.17-.4545255 1.1500526-.4545255 2.4299474 0 3.58.1017295.2156767.2257374.4201221.37.61-.0053421.0162386-.0053421.0337614 0 .05-.5491357.8656446-1.0113819 1.7834378-1.38 2.74l-6.1 8.28c-1.1339795 1.5521328-.8085435 3.7276503.73 4.88.4491927.3384879.9745308.5616708 1.53.65.1631799.0100136.3268201.0100136.49 0 1.1075011.004996 2.1496697-.5235324 2.8-1.42l.15-.19c.4536674 1.1041065 1.1590933 2.0869085 2.06 2.87.6648124 1.5315322 1.1967698 3.1173674 1.59 4.74h-16.09c-.55228475 0-1 .4477153-1 1s.44771525 1 1 1h16.3c-.1219929 1.3176265-.5352896 2.5916733-1.21 3.73-.3680014.6588989-.4523015 1.4390993-.2335375 2.1613978.2187641.7222984.7217897 1.3246143 1.3935375 1.6686022 1.22116.6795684 2.7269801.5817878 3.85-.25.2752095.5155413.6914101.9421469 1.2 1.23.5188684.2940929 1.1036308.4523228 1.7.46.9328584.026933 1.8348937-.3353302 2.49-1l2.71-2.9c.5730974-.5948503.8642713-1.4064973.8-2.23v-2.87h23c.5522847 0 1-.4477153 1-1s-.4477153-1-1-1zm-21.61-3.54-1.39-.28c.0959896-2.3686127.4685174-4.7178869 1.11-7l2.77 5.14-.17.65c-.2527047 1.0355543-1.2731685 1.6909384-2.32 1.49zm6.7-22.95c.4984189.4961087.6996583 1.2175329.53 1.9l-1.75 7c-.4984134-1.4693112-1.227536-2.8499184-2.16-4.09-.5072555-.50731-1.1177411-.8995214-1.79-1.15.3904261-.6518815.5123346-1.429944.34-2.17-.1250315-.4695656-.37771-.8953114-.73-1.23 1.0466218-.9163563 1.9410929-1.993097 2.65-3.19zm-8.52-2.8c1.6703079-1.8643332 2.5427805-4.3094106 2.43-6.81v-.14c0-.18-1.18-4.49-7.52-7.65-2.0922052-1.09079064-4.4797019-1.47994208-6.81-1.11 1.850728-1.30860753 4.0633751-2.00770612 6.33-2 4.2609044-.02456816 8.1527326 2.41384011 9.98925 6.25872163 1.8365173 3.84488157 1.2873373 8.40454857-1.4095937 11.70340797-2.696931 3.2988593-7.0564395 4.7434518-11.1896563 3.7078704 3.61-.57 6.33-1.89 8.18-3.96zm-19.27 21.29c-.2461681-.0362681-.4796682-.1324152-.68-.28-.3229384-.2341903-.5392895-.5873713-.6012165-.9814517-.0619269-.3940804.0356719-.7965964.2712165-1.1185483l3.24-4.38c-.165429 1.5883315-.0946609 3.1924077.21 4.76l-1 1.41c-.3280048.4554443-.8867262.6843648-1.44.59zm7.93 15.79c-.2070202-.0864741-.3682154-.2559041-.4442761-.4669726-.0760607-.2110684-.0599961-.4443759.0442761-.6430274.8900907-1.4934846 1.3984113-3.1833075 1.48-4.92-.0997723-1.7114568-.4606074-3.3976019-1.07-5 1.06354.338682 2.1738604.5074237 3.29.5h.59l.88 6.8c.0183365.2382932-.0694989.4725209-.24.64l-1.14 1.22-.08.09-1.54 1.59c-.4882441.4311779-1.1910573.5185333-1.77.22zm9.54-2.13-2.71 2.94c-.4835486.4344371-1.1878093.5184682-1.76.21-.2070202-.0864741-.3682154-.2559041-.4442761-.4669726-.0760607-.2110684-.0599961-.4443759.0442761-.6430274.09-.16.18-.33.26-.51l1.06-1.12c.583493-.5996424.8694248-1.4281116.78-2.26l-.9-6.81h.14c.5522847-.1325483.8925483-.6877153.76-1.24s-.6877153-.8925483-1.24-.76c-.06 0-.37.09-.85.15h-.06-.05c-2 .25-6.49.26-7.84-4.47-1.72-6 1.38-11.38 1.82-12.09.3234565.1379353.6579769.248327 1 .33.5238126.1419329 1.0652242-.1598375 1.22-.68.071912-.2656553.0311592-.5492047-.1126584-.7838545-.1438177-.2346498-.3779853-.3996547-.6473416-.4561455-.6489986-.0749207-1.2277191-.4435325-1.57-1-.1703095-.4252897-.2120344-.8912169-.12-1.34l.1.07.12.09c2.1445294 1.4189776 4.6585229 2.1770005 7.23 2.18 2.425735-.0109138 4.7994791-.7039777 6.85-2 .2146313.0957073.3833149.2715688.47.49.07.27-.14.72-.55 1.23-.7073568.0005414-1.4110511.1015502-2.09.3-.3394023.1125387-.5929843.3975976-.6652241.747798s.0478375.7123383.315.95.6408218.3147407.9802241.202202c0 0 2.45-.77 4 .76 1 1 3.09 6.6 5.39 14.33.1137542.3898452.0208496.810785-.2464274 1.1165337s-.6720202.4540878-1.0735726.3934663c-.372933-.0544776-.696787-.2852701-.87-.62l-5.61-10.4c-.278857-.4456178-.855124-.5992542-1.3188108-.3516033-.4636869.247651-.6564687.8120293-.4411892 1.2916033l.73 1.36c-1.1885651 3.2017517-1.8144549 6.5849396-1.85 10v8.2c.0299852.2565369-.0626492.512208-.25.69z"/><path id="Shape" d="m3 8h1v1c0 .55228475.44771525 1 1 1s1-.44771525 1-1v-1h1c.55228475 0 1-.44771525 1-1s-.44771525-1-1-1h-1v-1c0-.55228475-.44771525-1-1-1s-1 .44771525-1 1v1h-1c-.55228475 0-1 .44771525-1 1s.44771525 1 1 1z"/><path id="Shape" d="m52 14h1v1c0 .5522847.4477153 1 1 1s1-.4477153 1-1v-1h1c.5522847 0 1-.4477153 1-1s-.4477153-1-1-1h-1v-1c0-.5522847-.4477153-1-1-1s-1 .4477153-1 1v1h-1c-.5522847 0-1 .4477153-1 1s.4477153 1 1 1z"/><path id="Shape" d="m8 25c-.55228475 0-1 .4477153-1 1s.44771525 1 1 1h1v1c0 .5522847.44771525 1 1 1 .5522847 0 1-.4477153 1-1v-1h1c.5522847 0 1-.4477153 1-1s-.4477153-1-1-1h-1v-1c0-.5522847-.4477153-1-1-1-.55228475 0-1 .4477153-1 1v1z"/><path id="Shape" d="m46 56c.5522847 0 1-.4477153 1-1s-.4477153-1-1-1h-1c-.5522847 0-1 .4477153-1 1s.4477153 1 1 1z"/><path id="Shape" d="m56 54h-6c-.5522847 0-1 .4477153-1 1s.4477153 1 1 1h6c.5522847 0 1-.4477153 1-1s-.4477153-1-1-1z"/><path id="Shape" d="m6 56c.55228475 0 1-.4477153 1-1s-.44771525-1-1-1h-2c-.55228475 0-1 .4477153-1 1s.44771525 1 1 1z"/><path id="Shape" d="m10 56h8c.5522847 0 1-.4477153 1-1s-.4477153-1-1-1h-8c-.55228475 0-1 .4477153-1 1s.44771525 1 1 1z"/></g></g></svg>