<svg id="Layer_5" enable-background="new 0 0 64 64" height="512" viewBox="0 0 64 64" width="512" xmlns="http://www.w3.org/2000/svg" xmlns:xlink="http://www.w3.org/1999/xlink"><linearGradient id="SVGID_1_" gradientUnits="userSpaceOnUse" x1="32" x2="32" y1="63" y2="1"><stop offset="0" stop-color="#9f2fff"/><stop offset="1" stop-color="#0bb1d3"/></linearGradient><path d="m26 59h12c1.654 0 3-1.346 3-3v-10c0-1.654-1.346-3-3-3h-12c-1.654 0-3 1.346-3 3v10c0 1.654 1.346 3 3 3zm-1-13c0-.552.448-1 1-1h12c.552 0 1 .448 1 1v10c0 .552-.448 1-1 1h-12c-.552 0-1-.448-1-1zm4 3h-2v-2h2zm4 0h-2v-2h2zm4 0h-2v-2h2zm-13.46-16h16.922c1.478 0 2.849-.619 3.762-1.699 2.435-2.881 3.776-6.539 3.776-10.301 0-4.411-1.757-8.52-4.947-11.568-3.188-3.047-7.373-4.628-11.796-4.415-8.171.37-14.865 7.063-15.24 15.236-.181 3.96 1.105 7.825 3.623 10.885.974 1.183 2.396 1.862 3.9 1.862zm7.807-25.985c3.872-.18 7.534 1.196 10.324 3.863 2.792 2.668 4.329 6.263 4.329 10.122 0 3.29-1.173 6.489-3.304 9.01-.532.629-1.346.99-2.234.99h-16.922c-.904 0-1.763-.413-2.355-1.134-2.203-2.676-3.328-6.058-3.17-9.521.328-7.151 6.184-13.006 13.332-13.33zm-9.335 13.985h-2l-.002-.157c-.002-.136-.003-.271.003-.406.025-.543.088-1.088.187-1.619l1.967.365c-.082.441-.135.895-.155 1.346-.004.094-.002.188-.001.284zm.677-3.632-1.859-.736c1.748-4.415 5.911-7.406 10.608-7.619.188-.009.374-.013.561-.013v2c-.157 0-.312.004-.471.011-3.911.177-7.38 2.673-8.839 6.357zm30.918 15.143c-.114-.033-.228-.056-.342-.083-.741-1.225-1.982-2.102-3.447-2.345.346-.676.653-1.371.919-2.083h2.263c1.654 0 3-1.346 3-3v-10c0-1.654-1.346-3-3-3h-3.164c-3.301-6.515-10.047-11-17.836-11s-14.535 4.485-17.836 11h-3.164c-1.654 0-3 1.346-3 3v10c0 1.654 1.346 3 3 3h2.263c.266.712.573 1.407.919 2.083-1.465.244-2.706 1.121-3.447 2.345-.114.026-.228.05-.342.083-3.336.964-6.098 3.169-7.775 6.209s-2.07 6.552-1.106 9.888c.678 2.349 1.99 4.424 3.794 6.047-.199 1.097-.306 2.215-.306 3.345v5h54v-5c0-1.13-.107-2.248-.305-3.345 1.804-1.623 3.115-3.698 3.794-6.047.964-3.336.57-6.848-1.106-9.888-1.678-3.04-4.44-5.245-7.776-6.209zm6.779 8.891-1.937.479c-.312-.849-.754-1.644-1.307-2.364l1.44-1.385c.387.485.743.999 1.048 1.554.307.554.552 1.13.756 1.716zm.412 5.676-1.932-.558c.158-.909.17-1.815.055-2.695l1.945-.481c.19 1.231.174 2.489-.068 3.734zm-4.073-.136c-.124.43-.288.84-.487 1.232-.516-.848-1.111-1.652-1.761-2.419l.207-.414c.358-.716.415-1.529.161-2.291-.167-.499-.464-.927-.845-1.27v-2.523c2.421 1.677 3.577 4.738 2.725 7.685zm-48.963 1.232c-.199-.392-.363-.802-.487-1.232-.852-2.947.304-6.008 2.725-7.684v2.523c-.381.343-.678.771-.845 1.27-.254.762-.197 1.575.161 2.291l.207.414c-.65.767-1.245 1.57-1.761 2.418zm3.343-3.727c-.119-.238-.138-.509-.054-.763.085-.255.264-.461.5-.579.14-.069.295-.105.448-.105.381 0 .725.212.896.553l6 12c.119.238.138.509.053.763-.085.255-.263.46-.502.579-.482.24-1.101.03-1.34-.447zm6.896 14.553c.461 0 .923-.109 1.338-.315.717-.358 1.252-.975 1.506-1.735s.197-1.574-.161-2.291l-5.568-11.136c2.676-1.647 5.726-2.523 8.884-2.523h16c3.159 0 6.209.876 8.884 2.523l-5.568 11.135c-.358.717-.415 1.53-.161 2.291s.789 1.377 1.507 1.736c.414.206.876.315 1.337.315h.001v2h-28l.001-2c-.001 0 0 0 0 0zm2.999-20c-.552 0-1-.448-1-1s.448-1 1-1h22c.552 0 1 .448 1 1s-.448 1-1 1h-3-16zm25.895 17.447c-.239.478-.862.687-1.339.448-.24-.12-.418-.325-.503-.58-.085-.254-.066-.524.053-.763l5.999-11.998c.171-.342.515-.554.896-.554.153 0 .308.036.444.104.239.119.418.325.503.58.084.254.065.524-.054.763zm10.301-19.757-1.443 1.389c-.53-.438-1.115-.821-1.753-1.136v-1.943c0-.086-.021-.167-.025-.252 1.191.46 2.273 1.12 3.221 1.942zm-8.196-4.69c1.654 0 3 1.346 3 3v6c-.786 0-1.512.306-2.06.826-1.43-.882-2.954-1.567-4.545-2.039.375-.501.605-1.115.605-1.787 0-.777-.305-1.48-.791-2.014 1.351-1.187 2.519-2.527 3.488-3.986zm4-18c.552 0 1 .448 1 1v10c0 .552-.448 1-1 1h-1.636c.414-1.612.636-3.287.636-5 0-2.465-.47-4.818-1.289-7zm-42 12c-.552 0-1-.448-1-1v-10c0-.552.448-1 1-1h2.289c-.819 2.182-1.289 4.535-1.289 7 0 1.713.222 3.388.636 5zm21-23c9.925 0 18 8.075 18 18 0 5.495-2.462 10.58-6.76 14.024-.08-.006-.158-.024-.24-.024h-22c-.082 0-.16.018-.24.024-4.298-3.444-6.76-8.529-6.76-14.024 0-9.925 8.075-18 18-18zm-17 29h.304c.969 1.459 2.137 2.8 3.488 3.986-.487.534-.792 1.237-.792 2.014 0 .672.23 1.287.605 1.787-1.591.472-3.115 1.157-4.545 2.038-.547-.519-1.274-.825-2.06-.825v-6c0-1.654 1.346-3 3-3zm-5 3v1.942c-.638.315-1.223.698-1.753 1.136l-1.443-1.388c.948-.822 2.03-1.482 3.222-1.942-.005.085-.026.166-.026.252zm-4.582 3.132 1.44 1.385c-.553.719-.995 1.515-1.307 2.364l-1.937-.479c.204-.586.45-1.162.755-1.716.306-.555.662-1.069 1.049-1.554zm-2.216 8.946c-.242-1.245-.257-2.503-.069-3.735l1.945.481c-.114.881-.102 1.787.055 2.695zm.556 1.922 1.931-.558c.263.637.601 1.234 1.002 1.794-.319.706-.597 1.428-.827 2.167-.906-.994-1.617-2.144-2.106-3.403zm3.242 9c0-3.733 1.236-7.335 3.499-10.292l4.817 9.634c.173.345.409.642.684.889v2.769h-9zm50 3h-9v-2.769c.275-.247.511-.544.684-.889l4.817-9.634c2.263 2.957 3.499 6.559 3.499 10.292zm1.137-8.598c-.23-.739-.508-1.461-.827-2.167.401-.559.739-1.157 1.002-1.794l1.93.559c-.489 1.259-1.2 2.409-2.105 3.402z" fill="url(#SVGID_1_)"/></svg>