<svg id="Layer_1" data-name="Layer 1" xmlns="http://www.w3.org/2000/svg" viewBox="0 0 1024 1024"><defs><style>.cls-1,.cls-2{fill:none;stroke:#fff;stroke-linecap:round;stroke-linejoin:round;}.cls-1{stroke-width:2px;}</style></defs><title>topo-tile-white</title><path class="cls-1" d="M1024.51,167.94A61.52,61.52,0,0,1,1003,153.62a213.61,213.61,0,0,1-28.08-34.36c-4.42-6.79-7.77-14.31-12.47-20.87-5.82-8.11-9.67-10.8-20.33-6.66-16.49,6.39-23.33-2.57-26.61-14.94-2.11-8-3.1-16.28-5.84-24-4-11.22-15-16-26.45-12.31a83.41,83.41,0,0,0-10.74,4.11C859,51,845.18,50.26,831,47.75c-12.34-2.18-24.87-3.44-37.36-4.68-15.71-1.57-31.42-2.6-46.63-7.61-8.66-2.85-17.62-3.08-25.55,2.94C714.6,43.56,709.19,50,706.13,57.89a56.9,56.9,0,0,1-25.66,29.7,45.53,45.53,0,0,0-8.67,6.16c-11.9,11.31-23.89,22.54-35.29,34.34-8.82,9.12-17.12,18.78-25.11,28.64-13.78,17-31.94,26.16-52.84,30.51-2.84.59-6.09-1.06-9.19-1.35-6.81-.63-13.7-1.83-20.46-1.37-8.13.55-11.74,7.79-7,17.11,3.83,7.53,10.77,12.73,18.81,15.31,8.85,2.85,16.25,7.22,21.45,15s13.19,12.79,20.47,18.45c2.85,2.23,6,4.36,8.1,7.22,5.78,8,5.55,14.15.12,22.46-6.29,9.6-14.87,16.11-26.15,18.29-5,1-10.23.3-15.33.68-14,1-28.06,1.89-41.48,6.62s-18,18.5-7.26,29.79c12.22,12.8,25.62,12.31,40.94,2.8,7.33-4.56,13.5-11,20.06-16.74,7.7-6.72,13.93-7.94,24.15-3.71,15.59,6.45,23.82,19,30.14,33.44,4.83,11.07,10.14,22,14.21,33.32,6.32,17.61,3.78,30.64-11.71,44.42-6.26,5.57-13.35,10.19-19.88,15.47C590.42,451,586,460,584.29,470c-2.24,13.59-8.39,25.38-15.47,36.84-3,4.83-6,9.64-9.23,14.33a20.28,20.28,0,0,1-20.44,9.11c-11.89-1.61-23.42-4.75-32.24-13.73-4.15-4.22-6.93-9.27-9.41-14.75-5.45-12-11.59-23.73-17.81-35.37a274.58,274.58,0,0,1-17.4-38.41c-2.48-7.09-4.93-14.26-8.25-21-6.31-12.7-15.09-16-29.11-14.09-9.59,1.34-18.09,4.83-26.61,8.9-9.5,4.54-19.11,8.87-28.65,13.34-16.89,7.89-29.65,20.84-42,34.3-5.47,6-10.55,12.34-16.47,17.82-8.23,7.61-19,9.13-29.61,10.84-12.21,2-19.06,5.39-21.89,16.42-1.79,7-2.6,14.13-.77,21.51,1.79,7.19,2.25,14.7,3.77,22,3,14.35,11.26,23.82,25.5,28.83,24.66,8.68,45.66,23.32,64.08,41.81,8.34,8.37,16.53,17,25.72,24.41,7.41,5.93,16,10.57,24.48,14.93,12.77,6.55,17.78,17.5,19.4,30.83,1.66,13.64,4,27.15,9.28,39.91,3,7.25,7.25,13.86,14.29,17.91,10.7,6.16,21.65,5,31.63-1.13,10.82-6.69,20.88-14.58,31.35-21.84a109.81,109.81,0,0,1,10.75-6.65c6.63-3.54,11.81-3.41,16.21,2.13,7.36,9.27,17.54,14.92,26.23,22.45a74.22,74.22,0,0,1,19.58,26.54c2.5,5.69,1.22,10.09-2.64,14.39-8.8,9.82-19.9,16.31-31.8,21.39a93.09,93.09,0,0,0-23,13.41c-10.58,8.71-21.63,16.91-31.62,26.25-10.75,10-16.27,22.86-18.3,37.72-1.77,13,.19,25.58,2.61,37.86,4.79,24.42-1.73,45.16-17.3,63.47C449.63,983.92,437,996,423,1003c-10,5-24,11-25,22"/><path class="cls-1" d="M1024.51-856.06A61.52,61.52,0,0,1,1003-870.38a213.61,213.61,0,0,1-28.08-34.36c-4.42-6.79-7.77-14.31-12.47-20.87-5.82-8.11-9.67-10.8-20.33-6.66-16.49,6.39-23.33-2.57-26.61-14.94-2.11-8-3.1-16.28-5.84-24-4-11.22-15-16-26.45-12.31a83.41,83.41,0,0,0-10.74,4.11C859-973,845.18-973.74,831-976.25c-12.34-2.18-24.87-3.44-37.36-4.68-15.71-1.57-31.42-2.6-46.63-7.61-8.66-2.85-17.62-3.08-25.55,2.94-6.81,5.16-12.22,11.56-15.28,19.49a56.9,56.9,0,0,1-25.66,29.7,45.53,45.53,0,0,0-8.67,6.16c-11.9,11.31-23.89,22.54-35.29,34.34-8.82,9.12-17.12,18.78-25.11,28.64-13.78,17-31.94,26.16-52.84,30.51-2.84.59-6.09-1.06-9.19-1.35-6.81-.63-13.7-1.83-20.46-1.37-8.13.55-11.74,7.79-7,17.11,3.83,7.53,10.77,12.73,18.81,15.31,8.85,2.85,16.25,7.22,21.45,15s13.19,12.79,20.47,18.45c2.85,2.23,6,4.36,8.1,7.22,5.78,8,5.55,14.15.12,22.46-6.29,9.6-14.87,16.11-26.15,18.29-5,1-10.23.3-15.33.68-14,1-28.06,1.89-41.48,6.62s-18,18.5-7.26,29.79c12.22,12.8,25.62,12.31,40.94,2.8,7.33-4.56,13.5-11,20.06-16.74,7.7-6.72,13.93-7.94,24.15-3.71,15.59,6.45,23.82,19,30.14,33.44,4.83,11.07,10.14,22,14.21,33.32,6.32,17.61,3.78,30.64-11.71,44.42-6.26,5.57-13.35,10.19-19.88,15.47C590.42-573,586-564,584.29-554c-2.24,13.59-8.39,25.38-15.47,36.84-3,4.83-6,9.64-9.23,14.33a20.28,20.28,0,0,1-20.44,9.11c-11.89-1.61-23.42-4.75-32.24-13.73-4.15-4.22-6.93-9.27-9.41-14.75-5.45-12-11.59-23.73-17.81-35.37a274.58,274.58,0,0,1-17.4-38.41c-2.48-7.09-4.93-14.26-8.25-21-6.31-12.7-15.09-16-29.11-14.09-9.59,1.34-18.09,4.83-26.61,8.9-9.5,4.54-19.11,8.87-28.65,13.34-16.89,7.89-29.65,20.84-42,34.3-5.47,6-10.55,12.34-16.47,17.82-8.23,7.61-19,9.13-29.61,10.84-12.21,2-19.06,5.39-21.89,16.42-1.79,7-2.6,14.13-.77,21.51,1.79,7.19,2.25,14.7,3.77,22,3,14.35,11.26,23.82,25.5,28.83,24.66,8.68,45.66,23.32,64.08,41.81,8.34,8.37,16.53,17,25.72,24.41,7.41,5.93,16,10.57,24.48,14.93,12.77,6.55,17.78,17.5,19.4,30.83,1.66,13.64,4,27.15,9.28,39.91,3,7.25,7.25,13.86,14.29,17.91,10.7,6.16,21.65,5,31.63-1.13,10.82-6.69,20.88-14.58,31.35-21.84a109.81,109.81,0,0,1,10.75-6.65c6.63-3.54,11.81-3.41,16.21,2.13,7.36,9.27,17.54,14.92,26.23,22.45a74.22,74.22,0,0,1,19.58,26.54c2.5,5.69,1.22,10.09-2.64,14.39-8.8,9.82-19.9,16.31-31.8,21.39a93.09,93.09,0,0,0-23,13.41c-10.58,8.71-21.63,16.91-31.62,26.25-10.75,10-16.27,22.86-18.3,37.72-1.77,13,.19,25.58,2.61,37.86,4.79,24.42-1.73,45.16-17.3,63.47C449.63-40.08,437-28,423-21c-10,5-24,11-25,22"/><path class="cls-1" d="M1024.51,167.94A61.52,61.52,0,0,1,1003,153.62a213.61,213.61,0,0,1-28.08-34.36c-4.42-6.79-7.77-14.31-12.47-20.87-5.82-8.11-9.67-10.8-20.33-6.66-16.49,6.39-23.33-2.57-26.61-14.94-2.11-8-3.1-16.28-5.84-24-4-11.22-15-16-26.45-12.31a83.41,83.41,0,0,0-10.74,4.11C859,51,845.18,50.26,831,47.75c-12.34-2.18-24.87-3.44-37.36-4.68-15.71-1.57-31.42-2.6-46.63-7.61-8.66-2.85-17.62-3.08-25.55,2.94C714.6,43.56,709.19,50,706.13,57.89a56.9,56.9,0,0,1-25.66,29.7,45.53,45.53,0,0,0-8.67,6.16c-11.9,11.31-23.89,22.54-35.29,34.34-8.82,9.12-17.12,18.78-25.11,28.64-13.78,17-31.94,26.16-52.84,30.51-2.84.59-6.09-1.06-9.19-1.35-6.81-.63-13.7-1.83-20.46-1.37-8.13.55-11.74,7.79-7,17.11,3.83,7.53,10.77,12.73,18.81,15.31,8.85,2.85,16.25,7.22,21.45,15s13.19,12.79,20.47,18.45c2.85,2.23,6,4.36,8.1,7.22,5.78,8,5.55,14.15.12,22.46-6.29,9.6-14.87,16.11-26.15,18.29-5,1-10.23.3-15.33.68-14,1-28.06,1.89-41.48,6.62s-18,18.5-7.26,29.79c12.22,12.8,25.62,12.31,40.94,2.8,7.33-4.56,13.5-11,20.06-16.74,7.7-6.72,13.93-7.94,24.15-3.71,15.59,6.45,23.82,19,30.14,33.44,4.83,11.07,10.14,22,14.21,33.32,6.32,17.61,3.78,30.64-11.71,44.42-6.26,5.57-13.35,10.19-19.88,15.47C590.42,451,586,460,584.29,470c-2.24,13.59-8.39,25.38-15.47,36.84-3,4.83-6,9.64-9.23,14.33a20.28,20.28,0,0,1-20.44,9.11c-11.89-1.61-23.42-4.75-32.24-13.73-4.15-4.22-6.93-9.27-9.41-14.75-5.45-12-11.59-23.73-17.81-35.37a274.58,274.58,0,0,1-17.4-38.41c-2.48-7.09-4.93-14.26-8.25-21-6.31-12.7-15.09-16-29.11-14.09-9.59,1.34-18.09,4.83-26.61,8.9-9.5,4.54-19.11,8.87-28.65,13.34-16.89,7.89-29.65,20.84-42,34.3-5.47,6-10.55,12.34-16.47,17.82-8.23,7.61-19,9.13-29.61,10.84-12.21,2-19.06,5.39-21.89,16.42-1.79,7-2.6,14.13-.77,21.51,1.79,7.19,2.25,14.7,3.77,22,3,14.35,11.26,23.82,25.5,28.83,24.66,8.68,45.66,23.32,64.08,41.81,8.34,8.37,16.53,17,25.72,24.41,7.41,5.93,16,10.57,24.48,14.93,12.77,6.55,17.78,17.5,19.4,30.83,1.66,13.64,4,27.15,9.28,39.91,3,7.25,7.25,13.86,14.29,17.91,10.7,6.16,21.65,5,31.63-1.13,10.82-6.69,20.88-14.58,31.35-21.84a109.81,109.81,0,0,1,10.75-6.65c6.63-3.54,11.81-3.41,16.21,2.13,7.36,9.27,17.54,14.92,26.23,22.45a74.22,74.22,0,0,1,19.58,26.54c2.5,5.69,1.22,10.09-2.64,14.39-8.8,9.82-19.9,16.31-31.8,21.39a93.09,93.09,0,0,0-23,13.41c-10.58,8.71-21.63,16.91-31.62,26.25-10.75,10-16.27,22.86-18.3,37.72-1.77,13,.19,25.58,2.61,37.86,4.79,24.42-1.73,45.16-17.3,63.47C449.63,983.92,437,996,423,1003c-10,5-24,11-25,22"/><path class="cls-1" d="M1024.51,690.18c-9.22-4.31-13-12.74-16.39-21.5-4.78-12.35-9.59-24.63-16.77-35.92a35,35,0,0,0-20.12-15.18c-17.12-5.15-34.39-9.87-51.71-14.34-6.48-1.67-13.41-1.63-19.91-3.28-14.67-3.72-21.27-14-21.88-27.55-.53-11.93,6.3-18.25,18.27-19.47s24-2.73,35.33-7.14c15.3-5.92,21.86-17.66,22.91-33.3,1-14.77,4.73-28.05,16-38.39q13.08-12,26.12-24.06c5.6-5.14,9.47-11.55,10-19a35,35,0,0,0-3-15.28,222.81,222.81,0,0,1-12.21-39.47c-1.86-8.6-6.75-15.7-12.73-22-1.5-1.58-3-3.18-4.62-4.6-12.74-11-14.23-24.85-9.65-39.93,4-13.19,10.54-25.23,17.81-36.91,4.15-6.69,7.36-13.66,7.32-22-.06-14.22-9.78-22.5-21.64-24.36-10.94-1.71-22.15-1.76-33.25-2.22-13.31-.54-26.69-.07-39.91-1.3-8.82-.82-17.5-3.62-26.12-6-8.91-2.44-17.8-2.08-26.63-.38-19,3.65-38.15,4-57.35,3.45-8.89-.27-17.76-1.29-26.63-2-4.27-.33-8.53-.81-12.8-1-7.62-.34-13.35,3.3-18.48,8.63-8.19,8.52-16.78,16.67-25,25.18a104.36,104.36,0,0,0-9.73,11.76c-6.32,8.82-3.5,18-.56,27.1,4.43,13.66,9.48,27.15,13.09,41,2.23,8.56,2.53,17.67,3.22,26.57.67,8.68,2,17,6.7,24.59,4.18,6.67,11,8.78,17.93,5.07,4.52-2.4,8.77-5.34,13.37-7.57a53.78,53.78,0,0,1,12.28-4.56c6.12-1.29,12.73,5.35,14.27,10.64s2.49,10.66,4.2,15.84c2.84,8.61,5.62,17.28,9.25,25.57,5.46,12.45,3.32,23.38-4.67,33.87-8.73,11.44-13,24.53-13.91,38.88-.95,14.91-8.06,27-17.81,37.95-7,7.9-14.38,15.43-19.71,24.92-10.09,18-7.55,34.71,2.75,51.31,5.29,8.53,11,16.83,15.78,25.65,9.8,18.14,7.12,36.15-2,53.69-7.56,14.58-20,24.57-32.69,34.38-6.59,5.11-12.51,11.07-19,16.28-9.68,7.73-21.09,11.33-33.24,12.84-13.86,1.71-27.76,3-41,8.14-7.61,2.93-13.57,7.14-14.24,15.94a50.22,50.22,0,0,0,.51,11.75c2,12.11,3.34,24.37,8.09,35.87a23.31,23.31,0,0,1,1,4.6c1.48,8.09-2.7,12.52-9.71,15.39S594.8,856.81,593,863.76c-2.24,8.53,1,15.91,6.11,22.49,6.55,8.37,16.31,11.77,25.57,15.88,1.34.59,2.93.77,4.06,1.59,6.71,4.9,7.24,12.13.43,18.78-5.37,5.23-11.69,9.54-17.84,13.9a57.21,57.21,0,0,0-16.91,18.45c-4.68,8.14-4.07,16.67-.77,24.52,5.22,12.44,11.77,24.31,17.7,36.45,1.31,2.67,2.41,5.45,3.6,8.18"/><path class="cls-1" d="M1024.51-333.82c-9.22-4.31-13-12.74-16.39-21.5-4.78-12.35-9.59-24.63-16.77-35.92a35,35,0,0,0-20.12-15.18c-17.12-5.15-34.39-9.87-51.71-14.34-6.48-1.67-13.41-1.63-19.91-3.28-14.67-3.72-21.27-14-21.88-27.55-.53-11.93,6.3-18.25,18.27-19.47s24-2.73,35.33-7.14c15.3-5.92,21.86-17.66,22.91-33.3,1-14.77,4.73-28,16-38.39q13.08-12,26.12-24.06c5.6-5.14,9.47-11.55,10-19a35,35,0,0,0-3-15.28,222.81,222.81,0,0,1-12.21-39.47c-1.86-8.6-6.75-15.7-12.73-22-1.5-1.58-3-3.18-4.62-4.6-12.74-11-14.23-24.85-9.65-39.93,4-13.19,10.54-25.23,17.81-36.91,4.15-6.69,7.36-13.66,7.32-22-.06-14.22-9.78-22.5-21.64-24.36-10.94-1.71-22.15-1.76-33.25-2.22-13.31-.54-26.69-.07-39.91-1.3-8.82-.82-17.5-3.62-26.12-6-8.91-2.44-17.8-2.08-26.63-.38-19,3.65-38.15,4-57.35,3.45-8.89-.27-17.76-1.29-26.63-2-4.27-.33-8.53-.81-12.8-1-7.62-.34-13.35,3.3-18.48,8.63-8.19,8.52-16.78,16.67-25,25.18a104.36,104.36,0,0,0-9.73,11.76c-6.32,8.82-3.5,18-.56,27.1,4.43,13.66,9.48,27.15,13.09,41,2.23,8.56,2.53,17.67,3.22,26.57.67,8.68,2,17,6.7,24.59,4.18,6.67,11,8.78,17.93,5.07,4.52-2.4,8.77-5.34,13.37-7.57a53.78,53.78,0,0,1,12.28-4.56c6.12-1.29,12.73,5.35,14.27,10.64s2.49,10.66,4.2,15.84c2.84,8.61,5.62,17.28,9.25,25.57,5.46,12.45,3.32,23.38-4.67,33.87-8.73,11.44-13,24.53-13.91,38.88-.95,14.91-8.06,27-17.81,37.95-7,7.9-14.38,15.43-19.71,24.92-10.09,18-7.55,34.71,2.75,51.31,5.29,8.53,11,16.83,15.78,25.65,9.8,18.14,7.12,36.15-2,53.69-7.56,14.58-20,24.57-32.69,34.38-6.59,5.11-12.51,11.07-19,16.28-9.68,7.73-21.09,11.33-33.24,12.84-13.86,1.71-27.76,3-41,8.14-7.61,2.93-13.57,7.14-14.24,15.94a50.22,50.22,0,0,0,.51,11.75c2,12.11,3.34,24.37,8.09,35.87a23.31,23.31,0,0,1,1,4.6c1.48,8.09-2.7,12.52-9.71,15.39S594.8-167.19,593-160.24c-2.24,8.53,1,15.91,6.11,22.49,6.55,8.37,16.31,11.77,25.57,15.88,1.34.59,2.93.77,4.06,1.59,6.71,4.9,7.24,12.13.43,18.78-5.37,5.23-11.69,9.54-17.84,13.9a57.21,57.21,0,0,0-16.91,18.45c-4.68,8.14-4.07,16.67-.77,24.52,5.22,12.44,11.77,24.31,17.7,36.45,1.31,2.67,2.41,5.45,3.6,8.18"/><path class="cls-1" d="M1024.51,690.18c-9.22-4.31-13-12.74-16.39-21.5-4.78-12.35-9.59-24.63-16.77-35.92a35,35,0,0,0-20.12-15.18c-17.12-5.15-34.39-9.87-51.71-14.34-6.48-1.67-13.41-1.63-19.91-3.28-14.67-3.72-21.27-14-21.88-27.55-.53-11.93,6.3-18.25,18.27-19.47s24-2.73,35.33-7.14c15.3-5.92,21.86-17.66,22.91-33.3,1-14.77,4.73-28.05,16-38.39q13.08-12,26.12-24.06c5.6-5.14,9.47-11.55,10-19a35,35,0,0,0-3-15.28,222.81,222.81,0,0,1-12.21-39.47c-1.86-8.6-6.75-15.7-12.73-22-1.5-1.58-3-3.18-4.62-4.6-12.74-11-14.23-24.85-9.65-39.93,4-13.19,10.54-25.23,17.81-36.91,4.15-6.69,7.36-13.66,7.32-22-.06-14.22-9.78-22.5-21.64-24.36-10.94-1.71-22.15-1.76-33.25-2.22-13.31-.54-26.69-.07-39.91-1.3-8.82-.82-17.5-3.62-26.12-6-8.91-2.44-17.8-2.08-26.63-.38-19,3.65-38.15,4-57.35,3.45-8.89-.27-17.76-1.29-26.63-2-4.27-.33-8.53-.81-12.8-1-7.62-.34-13.35,3.3-18.48,8.63-8.19,8.52-16.78,16.67-25,25.18a104.36,104.36,0,0,0-9.73,11.76c-6.32,8.82-3.5,18-.56,27.1,4.43,13.66,9.48,27.15,13.09,41,2.23,8.56,2.53,17.67,3.22,26.57.67,8.68,2,17,6.7,24.59,4.18,6.67,11,8.78,17.93,5.07,4.52-2.4,8.77-5.34,13.37-7.57a53.78,53.78,0,0,1,12.28-4.56c6.12-1.29,12.73,5.35,14.27,10.64s2.49,10.66,4.2,15.84c2.84,8.61,5.62,17.28,9.25,25.57,5.46,12.45,3.32,23.38-4.67,33.87-8.73,11.44-13,24.53-13.91,38.88-.95,14.91-8.06,27-17.81,37.95-7,7.9-14.38,15.43-19.71,24.92-10.09,18-7.55,34.71,2.75,51.31,5.29,8.53,11,16.83,15.78,25.65,9.8,18.14,7.12,36.15-2,53.69-7.56,14.58-20,24.57-32.69,34.38-6.59,5.11-12.51,11.07-19,16.28-9.68,7.73-21.09,11.33-33.24,12.84-13.86,1.71-27.76,3-41,8.14-7.61,2.93-13.57,7.14-14.24,15.94a50.22,50.22,0,0,0,.51,11.75c2,12.11,3.34,24.37,8.09,35.87a23.31,23.31,0,0,1,1,4.6c1.48,8.09-2.7,12.52-9.71,15.39S594.8,856.81,593,863.76c-2.24,8.53,1,15.91,6.11,22.49,6.55,8.37,16.31,11.77,25.57,15.88,1.34.59,2.93.77,4.06,1.59,6.71,4.9,7.24,12.13.43,18.78-5.37,5.23-11.69,9.54-17.84,13.9a57.21,57.21,0,0,0-16.91,18.45c-4.68,8.14-4.07,16.67-.77,24.52,5.22,12.44,11.77,24.31,17.7,36.45,1.31,2.67,2.41,5.45,3.6,8.18"/><path class="cls-2" d="M1.54,823.3c6.31,1,12.71,1.68,18.92,3.15a69,69,0,0,1,29.28,14.68c14.75,12.49,30.46,8.8,43.43-1,2.32-1.74,4.39-3.82,6.68-5.59A34.19,34.19,0,0,1,128.49,828c13.39,2.68,26.58,6.39,40,9,6.84,1.32,14,1.23,21,1.66,6.82.42,14.08-.65,20.38,1.35,10.09,3.21,19.26.67,28.78-1.32,7-1.45,14-3.79,21-3.87,11.17-.14,21.72,3.57,31.17,9.58,5.1,3.24,10.28,6.82,14.26,11.29,10.83,12.14,24.74,19.72,38.54,27.51,17.78,10,31,24.32,38.73,43.1,3.6,8.7,2.65,17.9-1.82,26.58a199.89,199.89,0,0,0-8.68,18.95c-2.9,7.46,1.41,13.56,9.64,13.11a58.49,58.49,0,0,0,17.36-3.57,74.23,74.23,0,0,0,28.31-19.22c6.55-7.07,14.09-13.21,20.86-20.09,10.27-10.46,12-23.47,10.28-37.34-.52-4.26-1.39-8.52-1.47-12.8-.2-11.43-.68-22.91.13-34.29.64-8.94,5.63-16.65,11.17-23.48,7.45-9.2,15.82-17.64,23.38-26.77,5.74-6.94,11.05-14.4,12.81-23.5,2.79-14.53-2.77-22.55-17.38-23.71-15.06-1.2-30.36,0-45.53.78-11.47.57-18.86,7.36-24.17,17.25a159.16,159.16,0,0,1-12.26,19c-6.57,8.94-17.15,12.31-26.55,4.15-6.39-5.55-8.57-13.11-8.55-21,0-9.9,1.76-19.8,1.74-29.7,0-10.41-1.18-20.82-1.92-31.23a7.38,7.38,0,0,1,2.55-6.7,74.55,74.55,0,0,0,7.18-7.15c11.06-12.67,10.48-23.07,3.06-35.79a20.9,20.9,0,0,0-4.1-5.11c-11.51-10.2-19.76-23-28.77-35.26-12.68-17.3-28.87-30.47-49.53-37.48-8.08-2.74-16.18-3.73-22.93,2.67a37.92,37.92,0,0,0-8.65,11.74c-4.91,11.13-14.2,16.21-24.68,20.54-7.18,3-14.09,6.51-19.62,12.57-8.44,9.27-10.42,20.37-8.86,31.81,1.6,11.75.48,22.66-4.37,33.3-3.13,6.88-6.5,13.65-9.7,20.5-4.3,9.2-8.54,18.42-12.8,27.64-5.46,11.79-10.65,11.39-21.48,9.54a92.79,92.79,0,0,1-21.47-6.61c-12.19-5.35-24.83-8.2-37.93-6.83-11.06,1.15-18.36-3.58-24-12a93.08,93.08,0,0,0-21.52-23,50.63,50.63,0,0,0-26.12-10.42c-11.53-1.1-22.26,2.08-33.29,3.84-.22,0-.35.64-.52,1"/><path class="cls-2" d="M1.54,823.3c6.31,1,12.71,1.68,18.92,3.15a69,69,0,0,1,29.28,14.68c14.75,12.49,30.46,8.8,43.43-1,2.32-1.74,4.39-3.82,6.68-5.59A34.19,34.19,0,0,1,128.49,828c13.39,2.68,26.58,6.39,40,9,6.84,1.32,14,1.23,21,1.66,6.82.42,14.08-.65,20.38,1.35,10.09,3.21,19.26.67,28.78-1.32,7-1.45,14-3.79,21-3.87,11.17-.14,21.72,3.57,31.17,9.58,5.1,3.24,10.28,6.82,14.26,11.29,10.83,12.14,24.74,19.72,38.54,27.51,17.78,10,31,24.32,38.73,43.1,3.6,8.7,2.65,17.9-1.82,26.58a199.89,199.89,0,0,0-8.68,18.95c-2.9,7.46,1.41,13.56,9.64,13.11a58.49,58.49,0,0,0,17.36-3.57,74.23,74.23,0,0,0,28.31-19.22c6.55-7.07,14.09-13.21,20.86-20.09,10.27-10.46,12-23.47,10.28-37.34-.52-4.26-1.39-8.52-1.47-12.8-.2-11.43-.68-22.91.13-34.29.64-8.94,5.63-16.65,11.17-23.48,7.45-9.2,15.82-17.64,23.38-26.77,5.74-6.94,11.05-14.4,12.81-23.5,2.79-14.53-2.77-22.55-17.38-23.71-15.06-1.2-30.36,0-45.53.78-11.47.57-18.86,7.36-24.17,17.25a159.16,159.16,0,0,1-12.26,19c-6.57,8.94-17.15,12.31-26.55,4.15-6.39-5.55-8.57-13.11-8.55-21,0-9.9,1.76-19.8,1.74-29.7,0-10.41-1.18-20.82-1.92-31.23a7.38,7.38,0,0,1,2.55-6.7,74.55,74.55,0,0,0,7.18-7.15c11.06-12.67,10.48-23.07,3.06-35.79a20.9,20.9,0,0,0-4.1-5.11c-11.51-10.2-19.76-23-28.77-35.26-12.68-17.3-28.87-30.47-49.53-37.48-8.08-2.74-16.18-3.73-22.93,2.67a37.92,37.92,0,0,0-8.65,11.74c-4.91,11.13-14.2,16.21-24.68,20.54-7.18,3-14.09,6.51-19.62,12.57-8.44,9.27-10.42,20.37-8.86,31.81,1.6,11.75.48,22.66-4.37,33.3-3.13,6.88-6.5,13.65-9.7,20.5-4.3,9.2-8.54,18.42-12.8,27.64-5.46,11.79-10.65,11.39-21.48,9.54a92.79,92.79,0,0,1-21.47-6.61c-12.19-5.35-24.83-8.2-37.93-6.83-11.06,1.15-18.36-3.58-24-12a93.08,93.08,0,0,0-21.52-23,50.63,50.63,0,0,0-26.12-10.42c-11.53-1.1-22.26,2.08-33.29,3.84-.22,0-.35.64-.52,1"/><path class="cls-2" d="M1024.51,713.73c-9.5-2.54-18.62-6.08-24.45-14.42-4.36-6.23-8.62-12.87-11.18-20-4.78-13.27-13.62-23.35-23.9-32-13-10.92-27.15-20.32-43.91-24.67-7.41-1.93-15-3.35-22.52-4.64-19.72-3.37-32.87-15.48-43-31.77-8-12.91-11-27-9.69-42,.55-6.16,1.94-12.3,1.91-18.44-.11-22.27-12.32-33.65-31.67-39.28-10.68-3.11-20.33,2-25.53,12.17-3.6,7.07-6.55,14.48-10.39,21.42a59.8,59.8,0,0,1-8.64,11.28c-7.86,8.51-16.18,16.6-24,25.17-14.9,16.38-14.36,36.55-2.63,54.77,6.16,9.58,13.49,18.62,16.8,29.71,2.34,7.83,3.73,16,5.17,24a58.28,58.28,0,0,1,1,13.3c-1.13,20.11-6.09,38.59-21.3,53.37-9.34,9.07-17.5,19.35-26.23,29.05-5.6,6.22-12.71,8.92-21,9.27-12.29.52-24.6,1-36.85,2.12a98.06,98.06,0,0,0-18.41,3.58c-7.06,2-12.13,6.86-13.2,14.25-1,7.16,2.83,12.79,8.06,17.37,10,8.74,21.25,8.29,33.29,5.23,17.88-4.53,34.07-11.58,48.28-24,14.42-12.55,31.52-14.76,49.49-7.38,2.7,1.11,5.44,2.13,8.19,3.07,7.39,2.53,13.55.48,17.88-6.15,2.26-3.45,4-7.22,6.2-10.72,9.36-15.06,22.13-17.6,37.82-13.13,6.13,1.74,11.91,5.21,17.4,8.6,8.25,5.1,16.21,10.69,24.07,16.37a30.55,30.55,0,0,1,7.63,7.67c4.73,7.18,3,11.58-1.42,15.31-2.79,2.32-5.16,5.32-8.26,7-9.08,5.07-15.8,12.51-21.94,20.6-3.54,4.68-7.11,9.38-10.2,14.35-5.66,9.1-4.94,18.36-.08,27.63,4.36,8.32,11.11,11.53,20.49,9.15,4.17-1.06,8.57-2,12.23-4.16,13.77-8,28.59-14.2,41.06-24.42a42.09,42.09,0,0,0,15.66-29.75c.43-4.68-.93-9.6-1.92-14.31a50.17,50.17,0,0,1,7.21-38.93c1.95-3,3.89-6.07,5.62-9.22,3-5.45,3.28-10.68-.94-15.91-3.53-4.37-7.15-8.87-9.66-13.84-4.58-9.08-3.58-19.63,7.07-23.91,5.29-2.12,10.82-2.13,15.85,1.43a23.64,23.64,0,0,1,9.17,26.12,53.89,53.89,0,0,1-3.06,7.68c-4,8.48-3.43,12.07,3.09,19,3.81,4,7.74,8,11.2,12.33,3.06,3.84,6.17,7.86,8.15,12.29,7.12,15.95,19.05,25.73,36,29.64"/><path class="cls-2" d="M1024.51,713.73c-9.5-2.54-18.62-6.08-24.45-14.42-4.36-6.23-8.62-12.87-11.18-20-4.78-13.27-13.62-23.35-23.9-32-13-10.92-27.15-20.32-43.91-24.67-7.41-1.93-15-3.35-22.52-4.64-19.72-3.37-32.87-15.48-43-31.77-8-12.91-11-27-9.69-42,.55-6.16,1.94-12.3,1.91-18.44-.11-22.27-12.32-33.65-31.67-39.28-10.68-3.11-20.33,2-25.53,12.17-3.6,7.07-6.55,14.48-10.39,21.42a59.8,59.8,0,0,1-8.64,11.28c-7.86,8.51-16.18,16.6-24,25.17-14.9,16.38-14.36,36.55-2.63,54.77,6.16,9.58,13.49,18.62,16.8,29.71,2.34,7.83,3.73,16,5.17,24a58.28,58.28,0,0,1,1,13.3c-1.13,20.11-6.09,38.59-21.3,53.37-9.34,9.07-17.5,19.35-26.23,29.05-5.6,6.22-12.71,8.92-21,9.27-12.29.52-24.6,1-36.85,2.12a98.06,98.06,0,0,0-18.41,3.58c-7.06,2-12.13,6.86-13.2,14.25-1,7.16,2.83,12.79,8.06,17.37,10,8.74,21.25,8.29,33.29,5.23,17.88-4.53,34.07-11.58,48.28-24,14.42-12.55,31.52-14.76,49.49-7.38,2.7,1.11,5.44,2.13,8.19,3.07,7.39,2.53,13.55.48,17.88-6.15,2.26-3.45,4-7.22,6.2-10.72,9.36-15.06,22.13-17.6,37.82-13.13,6.13,1.74,11.91,5.21,17.4,8.6,8.25,5.1,16.21,10.69,24.07,16.37a30.55,30.55,0,0,1,7.63,7.67c4.73,7.18,3,11.58-1.42,15.31-2.79,2.32-5.16,5.32-8.26,7-9.08,5.07-15.8,12.51-21.94,20.6-3.54,4.68-7.11,9.38-10.2,14.35-5.66,9.1-4.94,18.36-.08,27.63,4.36,8.32,11.11,11.53,20.49,9.15,4.17-1.06,8.57-2,12.23-4.16,13.77-8,28.59-14.2,41.06-24.42a42.09,42.09,0,0,0,15.66-29.75c.43-4.68-.93-9.6-1.92-14.31a50.17,50.17,0,0,1,7.21-38.93c1.95-3,3.89-6.07,5.62-9.22,3-5.45,3.28-10.68-.94-15.91-3.53-4.37-7.15-8.87-9.66-13.84-4.58-9.08-3.58-19.63,7.07-23.91,5.29-2.12,10.82-2.13,15.85,1.43a23.64,23.64,0,0,1,9.17,26.12,53.89,53.89,0,0,1-3.06,7.68c-4,8.48-3.43,12.07,3.09,19,3.81,4,7.74,8,11.2,12.33,3.06,3.84,6.17,7.86,8.15,12.29,7.12,15.95,19.05,25.73,36,29.64"/><path class="cls-2" d="M108.5,1.5c7,5,14,15,21,19s7.31,14.36,5,24-10.42,12.23-12,22.08c-2.39,15.1-3.19,30.4-.1,45.54,2.73,13.38,11.84,21.65,23.48,27.68,6.37,3.3,13,6.25,18.87,10.34,9.35,6.55,13.16,16.59,14.33,27.53.8,7.46.77,15,1.11,22.52a344.54,344.54,0,0,0,3.91,38.43c2,12.87,2.46,26-.82,38.89-1.09,4.25-2.3,8.49-3,12.8C179,298,174.62,303.74,169,308.75c-3.8,3.36-7.81,6.55-11.15,10.33a14.89,14.89,0,0,0-3.09,7.59c-1,7.71.38,15.27,3,22.49,2.92,8,4.62,16.12,4,24.6-1.53,21.06,12.17,35.59,33.31,38.95,9.61,1.53,19.13,3.14,27.72,8.55,8,5.05,10.9,12.68,11.56,21.12,1.25,16-3.55,30.91-14.45,42.24-12.52,13-22.76,15.83-38.63,7.87a68.86,68.86,0,0,1-12.74-7.72c-7.43-6-16.28-8-25.18-8.41-16.07-.69-26.86-8-32.72-22.74-5.29-13.25-10.5-26.53-15.34-39.95-5-13.78-1.18-26.45,6.12-38.35,4.69-7.64,9.82-14.93,12.88-23.53A144.33,144.33,0,0,0,121,322.58c1.21-8.83,1.34-17.32-2.2-25.61-1.11-2.6-2-5.37-3.63-7.65a249.24,249.24,0,0,1-24.5-44.08A79.13,79.13,0,0,0,54.28,205.8C42.46,199.45,32,191.21,22,182.31c-5.86-5.22-12.56-9-20.45-10.28"/><path class="cls-2" d="M108.5,1.5c7,5,14,15,21,19s7.31,14.36,5,24-10.42,12.23-12,22.08c-2.39,15.1-3.19,30.4-.1,45.54,2.73,13.38,11.84,21.65,23.48,27.68,6.37,3.3,13,6.25,18.87,10.34,9.35,6.55,13.16,16.59,14.33,27.53.8,7.46.77,15,1.11,22.52a344.54,344.54,0,0,0,3.91,38.43c2,12.87,2.46,26-.82,38.89-1.09,4.25-2.3,8.49-3,12.8C179,298,174.62,303.74,169,308.75c-3.8,3.36-7.81,6.55-11.15,10.33a14.89,14.89,0,0,0-3.09,7.59c-1,7.71.38,15.27,3,22.49,2.92,8,4.62,16.12,4,24.6-1.53,21.06,12.17,35.59,33.31,38.95,9.61,1.53,19.13,3.14,27.72,8.55,8,5.05,10.9,12.68,11.56,21.12,1.25,16-3.55,30.91-14.45,42.24-12.52,13-22.76,15.83-38.63,7.87a68.86,68.86,0,0,1-12.74-7.72c-7.43-6-16.28-8-25.18-8.41-16.07-.69-26.86-8-32.72-22.74-5.29-13.25-10.5-26.53-15.34-39.95-5-13.78-1.18-26.45,6.12-38.35,4.69-7.64,9.82-14.93,12.88-23.53A144.33,144.33,0,0,0,121,322.58c1.21-8.83,1.34-17.32-2.2-25.61-1.11-2.6-2-5.37-3.63-7.65a249.24,249.24,0,0,1-24.5-44.08A79.13,79.13,0,0,0,54.28,205.8C42.46,199.45,32,191.21,22,182.31c-5.86-5.22-12.56-9-20.45-10.28"/><path class="cls-1" d="M1.54,190.46c7.68,4.44,15.38,8.84,23,13.33,9.24,5.41,18.35,11.06,27.68,16.33,12.36,7,19.32,18.29,24.46,30.8,6,14.68,11.38,29.65,17,44.51,3.75,9.95,4.38,20.25,3.07,30.71-1.9,15.12-7.34,29.28-12.38,43.49s-5.35,28.59-4.27,43c.83,11,3.3,22,6,32.75a153.85,153.85,0,0,1,5.11,40c0,3.57,1.57,7.16,2.43,10.75,1.3,5.46,5.54,6.51,10.24,6.62a162.5,162.5,0,0,0,16.37-.05c7.4-.57,14.14,1.62,20.43,4.8a69.85,69.85,0,0,1,23,18.39c5.13,6.38,5.48,13.89,2.6,21.42-2.37,6.22-5.22,12.25-7.61,18.46-3.41,8.87,1.05,18.76,10.15,23.65,9.78,5.25,20.36,7.87,30.76,11.22,6.5,2.09,8.26,2.94,8.37,11.2.13,10.57-3.25,20.27-7.05,29.6-4.88,12-8.54,23.86-7.5,37,.91,11.34-2,21.87-7.57,31.77-3.19,5.65-5.51,11.79-8.83,17.34-6,9.93-12.91,12.26-24.49,9.21-12.17-3.21-24.23-6.86-36.37-10.17-9.64-2.62-16.93-9-24.57-14.87C80.5,703.13,69,695.24,55.31,691.14c-9.67-2.89-19.44-2.36-29.19-1.4-8.23.81-16.39,2.31-24.58,3.51"/><path class="cls-1" d="M1.54,190.46c7.68,4.44,15.38,8.84,23,13.33,9.24,5.41,18.35,11.06,27.68,16.33,12.36,7,19.32,18.29,24.46,30.8,6,14.68,11.38,29.65,17,44.51,3.75,9.95,4.38,20.25,3.07,30.71-1.9,15.12-7.34,29.28-12.38,43.49s-5.35,28.59-4.27,43c.83,11,3.3,22,6,32.75a153.85,153.85,0,0,1,5.11,40c0,3.57,1.57,7.16,2.43,10.75,1.3,5.46,5.54,6.51,10.24,6.62a162.5,162.5,0,0,0,16.37-.05c7.4-.57,14.14,1.62,20.43,4.8a69.85,69.85,0,0,1,23,18.39c5.13,6.38,5.48,13.89,2.6,21.42-2.37,6.22-5.22,12.25-7.61,18.46-3.41,8.87,1.05,18.76,10.15,23.65,9.78,5.25,20.36,7.87,30.76,11.22,6.5,2.09,8.26,2.94,8.37,11.2.13,10.57-3.25,20.27-7.05,29.6-4.88,12-8.54,23.86-7.5,37,.91,11.34-2,21.87-7.57,31.77-3.19,5.65-5.51,11.79-8.83,17.34-6,9.93-12.91,12.26-24.49,9.21-12.17-3.21-24.23-6.86-36.37-10.17-9.64-2.62-16.93-9-24.57-14.87C80.5,703.13,69,695.24,55.31,691.14c-9.67-2.89-19.44-2.36-29.19-1.4-8.23.81-16.39,2.31-24.58,3.51"/><path class="cls-2" d="M1.54,208.9c16.87,7.28,33.53,14.92,47.63,27.11,6.87,5.93,10.58,13.91,13.1,22.1C66.4,271.54,69.13,285.4,72.76,299c2.8,10.54,1.15,20.83-.49,31.26C71,338,70.2,345.92,69.69,353.8c-.9,14-1.33,28-2.14,42-.48,8.21-1.38,16.39-2,24.58a55.12,55.12,0,0,1-11.27,29.71c-2.28,3-4.56,6.06-6.64,9.22C43.88,465,41.21,471.06,42,478.21c.71,6.81-1.1,12.89-4.44,19C29,512.81,32.27,526.06,46.63,537a69.36,69.36,0,0,0,10.74,6.65c8.2,4.17,16.52,3.41,25.09.66,9.26-3,18.61-6.07,28.17-7.54,10.06-1.54,21.92,5.41,21.6,17.18a143.55,143.55,0,0,1-3.13,26.63c-3.52,16.29,4.74,27.07,23.46,31.79,7.69,1.94,15.45,4.09,21.5,9.7,4.82,4.47,5.44,10,2.62,16.37-3.08,6.92-6.86,13.75-8.48,21-1.84,8.27-1.36,17-2.41,25.52-.7,5.7-1.46,11.63-3.67,16.83-3.93,9.26-12.54,11.52-22.87,11.14-18-.68-29.76-11.45-42-22.25-6.83-6-14.25-11.37-21.45-17-6.29-4.86-13.86-5.07-21-3.92-17.68,2.85-35.37,4.52-53.27,3.91"/><path class="cls-2" d="M1.54,208.9c16.87,7.28,33.53,14.92,47.63,27.11,6.87,5.93,10.58,13.91,13.1,22.1C66.4,271.54,69.13,285.4,72.76,299c2.8,10.54,1.15,20.83-.49,31.26C71,338,70.2,345.92,69.69,353.8c-.9,14-1.33,28-2.14,42-.48,8.21-1.38,16.39-2,24.58a55.12,55.12,0,0,1-11.27,29.71c-2.28,3-4.56,6.06-6.64,9.22C43.88,465,41.21,471.06,42,478.21c.71,6.81-1.1,12.89-4.44,19C29,512.81,32.27,526.06,46.63,537a69.36,69.36,0,0,0,10.74,6.65c8.2,4.17,16.52,3.41,25.09.66,9.26-3,18.61-6.07,28.17-7.54,10.06-1.54,21.92,5.41,21.6,17.18a143.55,143.55,0,0,1-3.13,26.63c-3.52,16.29,4.74,27.07,23.46,31.79,7.69,1.94,15.45,4.09,21.5,9.7,4.82,4.47,5.44,10,2.62,16.37-3.08,6.92-6.86,13.75-8.48,21-1.84,8.27-1.36,17-2.41,25.52-.7,5.7-1.46,11.63-3.67,16.83-3.93,9.26-12.54,11.52-22.87,11.14-18-.68-29.76-11.45-42-22.25-6.83-6-14.25-11.37-21.45-17-6.29-4.86-13.86-5.07-21-3.92-17.68,2.85-35.37,4.52-53.27,3.91"/><path class="cls-2" d="M285.7,1024.51c.34-7.34,1.22-14.7.9-22-.57-12.93-4.72-24.46-16.84-31.13a60.34,60.34,0,0,0-15.84-6.12c-15.55-3.41-24.88-13.51-31.2-27.27-5.34-11.62-13.42-19.76-26.61-22.08-8.47-1.5-16.48.6-24.58,2.17-6.7,1.29-13.25,3.56-20,4.42-9.71,1.25-17.7-3.06-24.55-9.61-3.49-3.33-6.75-6.91-10.27-10.21-9.58-9-20.69-12.77-33.78-9.75-13.47,3.11-27,5.86-40.41,9.34-7.42,1.92-13.45,6.32-14.26,14.74a22.69,22.69,0,0,0,3.5,14.82c12.41,18.73,29.09,31.66,51.71,34.62,13.28,1.73,25.41,5.79,37.44,11.28,5.61,2.55,12.14,3.39,18.36,4.16,5.38.66,10.91.32,16.37.09a31.27,31.27,0,0,1,17.94,4.62c12.77,7.61,24.27,16.73,33.7,28.25,2.34,2.86,3.82,6.43,5.7,9.67"/><path class="cls-2" d="M285.7.51c.34-7.34,1.22-14.7.9-22C286-34.43,281.88-46,269.76-52.63a60.34,60.34,0,0,0-15.84-6.12C238.37-62.16,229-72.26,222.72-86c-5.34-11.62-13.42-19.76-26.61-22.08-8.47-1.5-16.48.6-24.58,2.17-6.7,1.29-13.25,3.56-20,4.42-9.71,1.25-17.7-3.06-24.55-9.61-3.49-3.33-6.75-6.91-10.27-10.21-9.58-9-20.69-12.77-33.78-9.75-13.47,3.11-27,5.86-40.41,9.34-7.42,1.92-13.45,6.32-14.26,14.74a22.69,22.69,0,0,0,3.5,14.82C44.18-73.45,60.86-60.52,83.48-57.56c13.28,1.73,25.41,5.79,37.44,11.28,5.61,2.55,12.14,3.39,18.36,4.16,5.38.66,10.91.32,16.37.09a31.27,31.27,0,0,1,17.94,4.62c12.77,7.61,24.27,16.73,33.7,28.25,2.34,2.86,3.82,6.43,5.7,9.67"/><path class="cls-2" d="M285.7,1024.51c.34-7.34,1.22-14.7.9-22-.57-12.93-4.72-24.46-16.84-31.13a60.34,60.34,0,0,0-15.84-6.12c-15.55-3.41-24.88-13.51-31.2-27.27-5.34-11.62-13.42-19.76-26.61-22.08-8.47-1.5-16.48.6-24.58,2.17-6.7,1.29-13.25,3.56-20,4.42-9.71,1.25-17.7-3.06-24.55-9.61-3.49-3.33-6.75-6.91-10.27-10.21-9.58-9-20.69-12.77-33.78-9.75-13.47,3.11-27,5.86-40.41,9.34-7.42,1.92-13.45,6.32-14.26,14.74a22.69,22.69,0,0,0,3.5,14.82c12.41,18.73,29.09,31.66,51.71,34.62,13.28,1.73,25.41,5.79,37.44,11.28,5.61,2.55,12.14,3.39,18.36,4.16,5.38.66,10.91.32,16.37.09a31.27,31.27,0,0,1,17.94,4.62c12.77,7.61,24.27,16.73,33.7,28.25,2.34,2.86,3.82,6.43,5.7,9.67"/><path class="cls-2" d="M368.5,1025.5c-6.31-1.45-22.2-4.23-28.54-5.57-7.82-1.66-10-8.56-10.95-14.41-2.18-13.58-.85-27.07,8.46-38.3a150.15,150.15,0,0,1,12.78-13.32,34.91,34.91,0,0,0,11-22.09c.57-5.35-1.26-11-4.34-15.84-6.93-10.89-16.44-18.65-29.22-20.79-8.53-1.42-17.38-1.21-26.08-1.12-5.82.07-6.88-.19-9.24-5.73-1.92-4.49-3.48-9.3-6.23-13.24-8.41-12-18.49-13.81-31-6.55a89.23,89.23,0,0,1-34.44,11.89c-16.29,1.93-31.8-.87-44.53-12.58a64.58,64.58,0,0,0-22-13.3c-10.51-3.79-21-3.06-31.2,1.05a163.75,163.75,0,0,1-42,10.68c-6.64.8-13.29,1.62-20,2-11.5.7-21.06-3.79-29.18-11.72-8.44-8.24-18.38-13.48-30.2-14.85"/><path class="cls-2" d="M368.5,1.5C362.19.05,346.3-2.73,340-4.07c-7.82-1.66-10-8.56-10.95-14.41-2.18-13.58-.85-27.07,8.46-38.3A150.15,150.15,0,0,1,350.25-70.1a34.91,34.91,0,0,0,11-22.09c.57-5.35-1.26-11-4.34-15.84-6.93-10.89-16.44-18.65-29.22-20.79-8.53-1.42-17.38-1.21-26.08-1.12-5.82.07-6.88-.19-9.24-5.73-1.92-4.49-3.48-9.3-6.23-13.24-8.41-12-18.49-13.81-31-6.55a89.23,89.23,0,0,1-34.44,11.89c-16.29,1.93-31.8-.87-44.53-12.58a64.58,64.58,0,0,0-22-13.3c-10.51-3.79-21-3.06-31.2,1a163.75,163.75,0,0,1-42,10.68c-6.64.8-13.29,1.62-20,2-11.5.7-21.06-3.79-29.18-11.72-8.44-8.24-18.38-13.48-30.2-14.85"/><path class="cls-2" d="M368.5,1025.5c-6.31-1.45-22.2-4.23-28.54-5.57-7.82-1.66-10-8.56-10.95-14.41-2.18-13.58-.85-27.07,8.46-38.3a150.15,150.15,0,0,1,12.78-13.32,34.91,34.91,0,0,0,11-22.09c.57-5.35-1.26-11-4.34-15.84-6.93-10.89-16.44-18.65-29.22-20.79-8.53-1.42-17.38-1.21-26.08-1.12-5.82.07-6.88-.19-9.24-5.73-1.92-4.49-3.48-9.3-6.23-13.24-8.41-12-18.49-13.81-31-6.55a89.23,89.23,0,0,1-34.44,11.89c-16.29,1.93-31.8-.87-44.53-12.58a64.58,64.58,0,0,0-22-13.3c-10.51-3.79-21-3.06-31.2,1.05a163.75,163.75,0,0,1-42,10.68c-6.64.8-13.29,1.62-20,2-11.5.7-21.06-3.79-29.18-11.72-8.44-8.24-18.38-13.48-30.2-14.85"/><path class="cls-2" d="M1.54,152.58c6.48,1.19,13.18,1.73,19.4,3.74a43.32,43.32,0,0,1,21,14.19C50.33,181,60.65,189.4,71.13,197.68c17.81,14.08,32.06,31.07,41,52.18a41.64,41.64,0,0,0,14.38,17.87c13,9.28,24.19,3.44,30.8-5,8.07-10.29,8.43-22,7.38-33.87-.79-9-2.82-17.87-5-26.62-4.68-18.56-15-33.12-31.64-43.07-8.6-5.14-17.09-10.37-24.21-17.76-6.61-6.86-7.61-14.57-6-23.15,2.31-12.19,4.39-24.4,3.52-36.87-.55-7.86-1.85-15.7-1.87-23.55,0-7.17,1.66-14.33,1.8-21.51.3-15-9.82-29.19-26.57-34.16-3.29-1-7.24-.7-10.69,0C55.08,3.9,10.37,13.87,1.5,11.5"/><path class="cls-2" d="M1.54,152.58c6.48,1.19,13.18,1.73,19.4,3.74a43.32,43.32,0,0,1,21,14.19C50.33,181,60.65,189.4,71.13,197.68c17.81,14.08,32.06,31.07,41,52.18a41.64,41.64,0,0,0,14.38,17.87c13,9.28,24.19,3.44,30.8-5,8.07-10.29,8.43-22,7.38-33.87-.79-9-2.82-17.87-5-26.62-4.68-18.56-15-33.12-31.64-43.07-8.6-5.14-17.09-10.37-24.21-17.76-6.61-6.86-7.61-14.57-6-23.15,2.31-12.19,4.39-24.4,3.52-36.87-.55-7.86-1.85-15.7-1.87-23.55,0-7.17,1.66-14.33,1.8-21.51.3-15-9.82-29.19-26.57-34.16-3.29-1-7.24-.7-10.69,0C55.08,3.9,10.37,13.87,1.5,11.5"/><path class="cls-2" d="M643.07,1.54c1.57,15.11-6,26.14-15.8,36.42-6.86,7.15-12.84,15.13-19.58,22.41-7.81,8.43-17.1,12.62-29.16,10.46-8.88-1.59-18-1.87-27.11-2.11-6.52-.17-11.47,3.48-15.37,8.58-3,4-6.14,7.85-9.2,11.79-7.35,9.45-18.08,13.23-28.65,17.46-15.47,6.18-24.23,18.52-29.09,33.78-2.32,7.29,2.09,13.25,10.65,15.23a80.26,80.26,0,0,0,15.35,2.06c17.4.55,34.81,1.08,52.22,1,8.54-.06,17.09-1.36,25.59-2.47,12.73-1.66,21.13-10.11,28.64-19.44,16.52-20.54,32.1-41.89,49.4-61.74,16.1-18.47,32.08-37,46.86-56.53,4-5.27,6.68-8.9,1.68-16.9"/><path class="cls-2" d="M643.07,1.54c1.57,15.11-6,26.14-15.8,36.42-6.86,7.15-12.84,15.13-19.58,22.41-7.81,8.43-17.1,12.62-29.16,10.46-8.88-1.59-18-1.87-27.11-2.11-6.52-.17-11.47,3.48-15.37,8.58-3,4-6.14,7.85-9.2,11.79-7.35,9.45-18.08,13.23-28.65,17.46-15.47,6.18-24.23,18.52-29.09,33.78-2.32,7.29,2.09,13.25,10.65,15.23a80.26,80.26,0,0,0,15.35,2.06c17.4.55,34.81,1.08,52.22,1,8.54-.06,17.09-1.36,25.59-2.47,12.73-1.66,21.13-10.11,28.64-19.44,16.52-20.54,32.1-41.89,49.4-61.74,16.1-18.47,32.08-37,46.86-56.53,4-5.27,6.68-8.9,1.68-16.9"/><path class="cls-2" d="M589.82,1024.51c-2.73-8.7-5.09-17.55-8.29-26.07-3.1-8.21-7.17-16-10.62-24.12-4.65-10.87-3.36-21.4,2-31.75,2.49-4.81,4.5-9.87,6.7-14.83,3.15-7.09,2.62-13.62-1.4-20.55-7.16-12.34-15.73-24-20.14-37.8-2.09-6.54-4.38-13-4.12-20a15.3,15.3,0,0,0-1-5.62c-2-5.44-6.06-6.79-10.68-3.57a23.66,23.66,0,0,0-4.09,3.58c-6.51,7.26-14.3,12.59-23,17-9.95,5-18.13,12.17-19.91,24-.85,5.7-1.56,11.82-.43,17.35,4.59,22.52.57,44.13-7.23,64.93-3,8-9.78,14.84-15.6,21.55-7.59,8.74-7.46,13.92-17.46,19.92s-29,8-32,16"/><path class="cls-2" d="M589.82.51c-2.73-8.7-5.09-17.55-8.29-26.07-3.1-8.21-7.17-16-10.62-24.12-4.65-10.87-3.36-21.4,2-31.75,2.49-4.81,4.5-9.87,6.7-14.83,3.15-7.09,2.62-13.62-1.4-20.55-7.16-12.34-15.73-24-20.14-37.8-2.09-6.54-4.38-13-4.12-20a15.3,15.3,0,0,0-1-5.62c-2-5.44-6.06-6.79-10.68-3.57a23.66,23.66,0,0,0-4.09,3.58c-6.51,7.26-14.3,12.59-23,17-9.95,5-18.13,12.17-19.91,24-.85,5.7-1.56,11.82-.43,17.35,4.59,22.52.57,44.13-7.23,64.93-3,8-9.78,14.84-15.6,21.55-7.59,8.74-7.46,13.92-17.46,19.92s-29,8-32,16"/><path class="cls-2" d="M589.82,1024.51c-2.73-8.7-5.09-17.55-8.29-26.07-3.1-8.21-7.17-16-10.62-24.12-4.65-10.87-3.36-21.4,2-31.75,2.49-4.81,4.5-9.87,6.7-14.83,3.15-7.09,2.62-13.62-1.4-20.55-7.16-12.34-15.73-24-20.14-37.8-2.09-6.54-4.38-13-4.12-20a15.3,15.3,0,0,0-1-5.62c-2-5.44-6.06-6.79-10.68-3.57a23.66,23.66,0,0,0-4.09,3.58c-6.51,7.26-14.3,12.59-23,17-9.95,5-18.13,12.17-19.91,24-.85,5.7-1.56,11.82-.43,17.35,4.59,22.52.57,44.13-7.23,64.93-3,8-9.78,14.84-15.6,21.55-7.59,8.74-7.46,13.92-17.46,19.92s-29,8-32,16"/><path class="cls-2" d="M1.54,866.3c6.14,3.59,12.51,6.84,18.37,10.84,6.6,4.52,13.84,6.1,21.56,6.59,13,.83,25.64-2.47,38.39-4.19,10.08-1.36,20-2.42,30.24-1.12,15.31,1.92,30.4,4.45,45,9.38,7.31,2.46,14.55,5.33,22,7a248.12,248.12,0,0,0,26.6,4.18c15,1.71,26.72,8.81,35.82,20.56,3.36,4.34,6.45,8.89,9.75,13.29,8.62,11.46,20.85,17.59,33.8,22.5,13.81,5.23,21.36,14,21,30.24q-.47,19.46-1,38.91"/><path class="cls-2" d="M1.54-157.7c6.14,3.59,12.51,6.84,18.37,10.84,6.6,4.52,13.84,6.1,21.56,6.59,13,.83,25.64-2.47,38.39-4.19,10.08-1.36,20-2.42,30.24-1.12,15.31,1.92,30.4,4.45,45,9.38,7.31,2.46,14.55,5.33,22,7a248.12,248.12,0,0,0,26.6,4.18c15,1.71,26.72,8.81,35.82,20.56,3.36,4.34,6.45,8.89,9.75,13.29,8.62,11.46,20.85,17.59,33.8,22.5,13.81,5.23,21.36,14,21,30.24q-.47,19.45-1,38.91"/><path class="cls-2" d="M1.54,866.3c6.14,3.59,12.51,6.84,18.37,10.84,6.6,4.52,13.84,6.1,21.56,6.59,13,.83,25.64-2.47,38.39-4.19,10.08-1.36,20-2.42,30.24-1.12,15.31,1.92,30.4,4.45,45,9.38,7.31,2.46,14.55,5.33,22,7a248.12,248.12,0,0,0,26.6,4.18c15,1.71,26.72,8.81,35.82,20.56,3.36,4.34,6.45,8.89,9.75,13.29,8.62,11.46,20.85,17.59,33.8,22.5,13.81,5.23,21.36,14,21,30.24q-.47,19.46-1,38.91"/><path class="cls-2" d="M1024,187.9c-15.84-.8-27.25-10-38.47-19.88-5-4.42-10.4-8.94-16.42-11.63-9.21-4.11-18.51-2.79-22.18,7-2.61,7-.88,14.33,4.34,20.41,6,6.95,13.82,10.9,22,14.31,3.4,1.41,6.86,2.66,10.24,4.11,10,4.29,16.41,12.07,19.86,22a208.67,208.67,0,0,1,8.13,28.67c2.27,11.89-2.13,22-10.5,30.76-5.52,5.76-11,11.79-15.27,18.47-5.1,8-8.64,16.88-3.7,26.48a45.23,45.23,0,0,0,5.62,8.19c4.65,5.57,9.75,10.77,14.23,16.47,4.88,6.21,6.06,13.76,6.76,21.45,1.19,13.2,3.85,26,11.17,37.41,1.82,2.84,3,6.11,4.41,9.19"/><path class="cls-2" d="M1024,187.9c-15.84-.8-27.25-10-38.47-19.88-5-4.42-10.4-8.94-16.42-11.63-9.21-4.11-18.51-2.79-22.18,7-2.61,7-.88,14.33,4.34,20.41,6,6.95,13.82,10.9,22,14.31,3.4,1.41,6.86,2.66,10.24,4.11,10,4.29,16.41,12.07,19.86,22a208.67,208.67,0,0,1,8.13,28.67c2.27,11.89-2.13,22-10.5,30.76-5.52,5.76-11,11.79-15.27,18.47-5.1,8-8.64,16.88-3.7,26.48a45.23,45.23,0,0,0,5.62,8.19c4.65,5.57,9.75,10.77,14.23,16.47,4.88,6.21,6.06,13.76,6.76,21.45,1.19,13.2,3.85,26,11.17,37.41,1.82,2.84,3,6.11,4.41,9.19"/><path class="cls-1" d="M398.34,1.54C399,12,403.81,20.47,410.58,28.2c7,8,14.54,15.8,20.32,24.67,8.43,12.9,8,26.55-.27,39.83-3.3,5.32-6.06,11-9.31,16.32-1.46,2.41-2.14,4.29,0,6.74a8,8,0,0,0,7.74,3c10.51-1.59,20.37-5.25,28.58-11.89,12-9.71,25.76-15.67,40-20.89,10.09-3.69,16.66-10.73,20-21,1.38-4.2,3.5-8.16,5-12.31,3.71-10.06,14.66-12.4,23-10.14a231.74,231.74,0,0,1,23.54,7.67c11.26,4.35,21,1.89,29.13-6.31,9.21-9.3,10.78-9,16.56-21,1.66-3.44,3-15,0-23"/><path class="cls-1" d="M398.34,1025.54c.62,10.47,5.47,18.93,12.24,26.66,7,8,14.54,15.8,20.32,24.67,8.43,12.9,8,26.55-.27,39.83-3.3,5.32-6.06,11-9.31,16.32-1.46,2.41-2.14,4.29,0,6.74a8,8,0,0,0,7.74,3c10.51-1.59,20.37-5.25,28.58-11.89,12-9.71,25.76-15.67,40-20.89,10.09-3.69,16.66-10.73,20-21,1.38-4.2,3.5-8.16,5-12.31,3.71-10.06,14.66-12.4,23-10.14a231.74,231.74,0,0,1,23.54,7.67c11.26,4.35,21,1.89,29.13-6.31,9.21-9.3,10.78-9,16.56-21,1.66-3.44,3-15,0-23"/><path class="cls-1" d="M398.34,1.54C399,12,403.81,20.47,410.58,28.2c7,8,14.54,15.8,20.32,24.67,8.43,12.9,8,26.55-.27,39.83-3.3,5.32-6.06,11-9.31,16.32-1.46,2.41-2.14,4.29,0,6.74a8,8,0,0,0,7.74,3c10.51-1.59,20.37-5.25,28.58-11.89,12-9.71,25.76-15.67,40-20.89,10.09-3.69,16.66-10.73,20-21,1.38-4.2,3.5-8.16,5-12.31,3.71-10.06,14.66-12.4,23-10.14a231.74,231.74,0,0,1,23.54,7.67c11.26,4.35,21,1.89,29.13-6.31,9.21-9.3,10.78-9,16.56-21,1.66-3.44,3-15,0-23"/><path class="cls-2" d="M838.5,1025.5c2.3-7-28-17-36-19S781,993.9,778.8,981c-.8-4.73-1.7-9.58-1.46-14.32.57-11-3.81-20-9.84-28.68-9.06-13-18.73-25.43-30.25-36.32-8.48-8-18.28-11.18-29.66-6.67-3.62,1.44-7.19,3-10.75,4.6-12,5.34-23.38,11.58-30.18,23.57a78.53,78.53,0,0,0-4.61,9.72c-4.49,11.18-13,17.54-24,21.66a41.34,41.34,0,0,0-13.75,8.68c-6.43,6.15-6.26,14.6-4,22.32,2.06,7.12,6,13.68,9,20.55,2.65,6.1,10.71,13.27,13.27,19.41"/><path class="cls-2" d="M838.5,1.5c2.3-7-28-17-36-19S781-30.1,778.8-43c-.8-4.73-1.7-9.58-1.46-14.32.57-11-3.81-20-9.84-28.68-9.06-13-18.73-25.43-30.25-36.32-8.48-8-18.28-11.18-29.66-6.67-3.62,1.44-7.19,3-10.75,4.6-12,5.34-23.38,11.58-30.18,23.57a78.53,78.53,0,0,0-4.61,9.72c-4.49,11.18-13,17.54-24,21.66a41.34,41.34,0,0,0-13.75,8.68c-6.43,6.15-6.26,14.6-4,22.32,2.06,7.12,6,13.68,9,20.55,2.65,6.1,10.71,13.27,13.27,19.41"/><path class="cls-2" d="M838.5,1025.5c2.3-7-28-17-36-19S781,993.9,778.8,981c-.8-4.73-1.7-9.58-1.46-14.32.57-11-3.81-20-9.84-28.68-9.06-13-18.73-25.43-30.25-36.32-8.48-8-18.28-11.18-29.66-6.67-3.62,1.44-7.19,3-10.75,4.6-12,5.34-23.38,11.58-30.18,23.57a78.53,78.53,0,0,0-4.61,9.72c-4.49,11.18-13,17.54-24,21.66a41.34,41.34,0,0,0-13.75,8.68c-6.43,6.15-6.26,14.6-4,22.32,2.06,7.12,6,13.68,9,20.55,2.65,6.1,10.71,13.27,13.27,19.41"/><path class="cls-2" d="M1024.51,829.44c-9.56-1.37-19.1-2.83-28.67-4.07-9.36-1.21-17.09,1.52-22.55,9.69-9.24,13.85-22.44,23.38-35.78,32.84-9.43,6.69-19.72,12.16-27.79,20.84a63.33,63.33,0,0,0-14.23,24.67c-1.54,4.88,1.08,8.66,3,12.85a101.67,101.67,0,0,1,6.62,18.41c2.08,9,9,12.38,17.06,7.67,5.21-3,10.54-5.86,15.86-8.71s10.49-.56,15.32,1.59c6.27,2.79,12.23,6.27,18.49,9.1,10.78,4.88,20.18,2,28.66-5.57,4.71-4.18,9.35-8.46,14.4-12.2,2.83-2.1,6.41-3.17,9.65-4.71"/><path class="cls-2" d="M1024.51,829.44c-9.56-1.37-19.1-2.83-28.67-4.07-9.36-1.21-17.09,1.52-22.55,9.69-9.24,13.85-22.44,23.38-35.78,32.84-9.43,6.69-19.72,12.16-27.79,20.84a63.33,63.33,0,0,0-14.23,24.67c-1.54,4.88,1.08,8.66,3,12.85a101.67,101.67,0,0,1,6.62,18.41c2.08,9,9,12.38,17.06,7.67,5.21-3,10.54-5.86,15.86-8.71s10.49-.56,15.32,1.59c6.27,2.79,12.23,6.27,18.49,9.1,10.78,4.88,20.18,2,28.66-5.57,4.71-4.18,9.35-8.46,14.4-12.2,2.83-2.1,6.41-3.17,9.65-4.71"/><path class="cls-2" d="M150.5.5c15,6,28.4,19.71,26,27-3.43,10.43,5.66,21.9,13,30,.65.71,4.32,4.32,5,5,8,8,13.16.18,23.62-5.15,5.47-2.79,11-5.22,17.4-5.22a36.4,36.4,0,0,1,21,6.28c7.47,5.1,14.61,10.68,22.07,15.8,11.69,8,25.19,10.88,38.9,12.75,5.05.68,10.36,1.23,15.32.42,10-1.61,13.61-9.26,15.42-18.25,1.73-8.57,3.33-17.19,5.7-25.58,3-10.47,14.56-14.27,21.61-22,4.4-4.85,4-12-7-20"/><path class="cls-2" d="M150.5.5c15,6,28.4,19.71,26,27-3.43,10.43,5.66,21.9,13,30,.65.71,4.32,4.32,5,5,8,8,13.16.18,23.62-5.15,5.47-2.79,11-5.22,17.4-5.22a36.4,36.4,0,0,1,21,6.28c7.47,5.1,14.61,10.68,22.07,15.8,11.69,8,25.19,10.88,38.9,12.75,5.05.68,10.36,1.23,15.32.42,10-1.61,13.61-9.26,15.42-18.25,1.73-8.57,3.33-17.19,5.7-25.58,3-10.47,14.56-14.27,21.61-22,4.4-4.85,4-12-7-20"/><path class="cls-2" d="M1.54,448.51c17.39-4,32.12-12.33,42.41-27.19,5.66-8.17,7.7-17.74,8.27-27.59a129,129,0,0,0-4.64-42c-3-10.79-.45-20.91,2.49-31.27,6.62-23.29,3.59-45.68-8.71-66.46-6.39-10.79-17-16.12-29.08-18.45-3.52-.68-7.16-.73-10.74-1.07"/><path class="cls-2" d="M1.54,448.51c17.39-4,32.12-12.33,42.41-27.19,5.66-8.17,7.7-17.74,8.27-27.59a129,129,0,0,0-4.64-42c-3-10.79-.45-20.91,2.49-31.27,6.62-23.29,3.59-45.68-8.71-66.46-6.39-10.79-17-16.12-29.08-18.45-3.52-.68-7.16-.73-10.74-1.07"/><path class="cls-2" d="M752.64,1024.51c-1.14-10-1.14-17-8.14-23s5.55-15.63,8.61-26.66c3.58-12.91,2-25.16-7.25-35.21-6.19-6.72-12.82-13.53-20.5-18.31-16.58-10.31-35.43.21-37.29,19.22a129.38,129.38,0,0,1-2.51,13.31c-1.92,9.27-9,14-16.37,18.45-2.42,1.48-4.82,3-7.17,4.6-10.81,7.34-7.52,18.6-2.52,24.6s36.07,16.83,40,24"/><path class="cls-2" d="M752.64.51c-1.14-10-1.14-17-8.14-23s5.55-15.63,8.61-26.66c3.58-12.91,2-25.16-7.25-35.21-6.19-6.72-12.82-13.53-20.5-18.31-16.58-10.31-35.43.21-37.29,19.22a129.38,129.38,0,0,1-2.51,13.31c-1.92,9.27-9,14-16.37,18.45-2.42,1.48-4.82,3-7.17,4.6-10.81,7.34-7.52,18.6-2.52,24.6s36.07,16.83,40,24"/><path class="cls-2" d="M752.64,1024.51c-1.14-10-1.14-17-8.14-23s5.55-15.63,8.61-26.66c3.58-12.91,2-25.16-7.25-35.21-6.19-6.72-12.82-13.53-20.5-18.31-16.58-10.31-35.43.21-37.29,19.22a129.38,129.38,0,0,1-2.51,13.31c-1.92,9.27-9,14-16.37,18.45-2.42,1.48-4.82,3-7.17,4.6-10.81,7.34-7.52,18.6-2.52,24.6s36.07,16.83,40,24"/><path class="cls-2" d="M421.89,1.54c.17,9.54,4.78,17.31,10.29,24.53,8.33,10.91,17.05,21.52,25.53,32.31,4,5,8.29,9.26,14.85,10.79,8.89,2.07,20.23-3.61,23.52-12.36,1.63-4.33,2.6-8.92,4.18-13.28,4.51-12.44,13.68-18.77,26.57-21.12C540.28,20,553,23,565.74,26.19c18.4,4.65,18.29,6.38,27.76-8.69,1.64-2.62-1-8-3-16"/><path class="cls-2" d="M421.89,1.54c.17,9.54,4.78,17.31,10.29,24.53,8.33,10.91,17.05,21.52,25.53,32.31,4,5,8.29,9.26,14.85,10.79,8.89,2.07,20.23-3.61,23.52-12.36,1.63-4.33,2.6-8.92,4.18-13.28,4.51-12.44,13.68-18.77,26.57-21.12C540.28,20,553,23,565.74,26.19c18.4,4.65,18.29,6.38,27.76-8.69,1.64-2.62-1-8-3-16"/><path class="cls-2" d="M1.54,133.12c8.36,1.19,16.69,2.75,25.09,3.49,9.3.82,18.87,2.59,27.6-2.53,2.47-1.45,5.1-3.3,6.58-5.64,4.42-7,8.12-14.38,12.45-21.4,6.22-10.08,5.18-20.23.38-30.2a87.06,87.06,0,0,1-8.28-27.15c-.89-7-4.84-12.38-12.62-13.89a63.58,63.58,0,0,0-27.12.62C14.73,39,8,46.25,4.6,56.83,3.83,59.24,2.9,61.61,2.05,64"/><path class="cls-2" d="M1.54,133.12c8.36,1.19,16.69,2.75,25.09,3.49,9.3.82,18.87,2.59,27.6-2.53,2.47-1.45,5.1-3.3,6.58-5.64,4.42-7,8.12-14.38,12.45-21.4,6.22-10.08,5.18-20.23.38-30.2a87.06,87.06,0,0,1-8.28-27.15c-.89-7-4.84-12.38-12.62-13.89a63.58,63.58,0,0,0-27.12.62C14.73,39,8,46.25,4.6,56.83,3.83,59.24,2.9,61.61,2.05,64"/><path class="cls-2" d="M1023.49,451.58c-5.63,6-11,12.21-17,17.86-7.27,6.91-11.68,15.36-14.76,24.65-4.52,13.62-9.2,27.21-13.24,41-3.12,10.6-8.85,19.56-15.46,28.13-.3.37-.71.66-1,1-10,11.89-6.81,20.39,7.73,24.4,11.61,3.2,23,1.79,32.74-6.45a72,72,0,0,1,22-12.84"/><path class="cls-2" d="M1023.49,451.58c-5.63,6-11,12.21-17,17.86-7.27,6.91-11.68,15.36-14.76,24.65-4.52,13.62-9.2,27.21-13.24,41-3.12,10.6-8.85,19.56-15.46,28.13-.3.37-.71.66-1,1-10,11.89-6.81,20.39,7.73,24.4,11.61,3.2,23,1.79,32.74-6.45a72,72,0,0,1,22-12.84"/><path class="cls-2" d="M2.05,928.26c2.39,3.41,4.29,7.34,7.26,10.14,8.26,7.79,16.83,15.29,25.54,22.58,10.85,9.08,21.5,18.68,34.84,24a190.48,190.48,0,0,0,26.07,7.74c13.58,3.23,27.28,6,41,8.76,5.25,1.07,10.68,1.33,15.84,2.68a38.67,38.67,0,0,1,25.63,20.39"/><path class="cls-2" d="M2.05-95.74C4.44-92.33,6.34-88.4,9.31-85.6,17.57-77.81,26.14-70.31,34.85-63c10.85,9.08,21.5,18.68,34.84,24a190.48,190.48,0,0,0,26.07,7.74c13.58,3.23,27.28,6,41,8.76,5.25,1.07,10.68,1.33,15.84,2.68A38.67,38.67,0,0,1,178.18.51"/><path class="cls-2" d="M2.05,928.26c2.39,3.41,4.29,7.34,7.26,10.14,8.26,7.79,16.83,15.29,25.54,22.58,10.85,9.08,21.5,18.68,34.84,24a190.48,190.48,0,0,0,26.07,7.74c13.58,3.23,27.28,6,41,8.76,5.25,1.07,10.68,1.33,15.84,2.68a38.67,38.67,0,0,1,25.63,20.39"/><path class="cls-2" d="M1.54,807.94c5.63-.35,11.28-.48,16.89-1.08a24.33,24.33,0,0,0,17.26-9.78A365.13,365.13,0,0,0,56.22,765.9c11.7-20-1.83-42.15-20.89-46.55-8.77-2-17.23-.19-25.58,2.15-2.72.77-5.14,2.64-7.7,4"/><path class="cls-2" d="M1.54,807.94c5.63-.35,11.28-.48,16.89-1.08a24.33,24.33,0,0,0,17.26-9.78A365.13,365.13,0,0,0,56.22,765.9c11.7-20-1.83-42.15-20.89-46.55-8.77-2-17.23-.19-25.58,2.15-2.72.77-5.14,2.64-7.7,4"/><path class="cls-2" d="M948.5,1.5c4.09,19.26,32,36,35,45s4.13,21.59,5.84,31.81a112.92,112.92,0,0,0,6.1,21.49c4.85,12.66,10.3,25.14,18.91,35.82,2.77,3.45,6.41,6.2,9.65,9.28"/><path class="cls-2" d="M948.5,1.5c4.09,19.26,32,36,35,45s4.13,21.59,5.84,31.81a112.92,112.92,0,0,0,6.1,21.49c4.85,12.66,10.3,25.14,18.91,35.82,2.77,3.45,6.41,6.2,9.65,9.28"/><path class="cls-2" d="M1024.51,989.18c-8.7-1-17.38-2.41-26.12-3-16.95-1.13-19.64,3.68-35.89,8.31-5.37,1.53-19.54-4.22-25-3-7.92,1.76-18.28.22-24,6-5.44,5.49,34,15,35,28"/><path class="cls-2" d="M1024.51-34.82c-8.7-1-17.38-2.41-26.12-3-16.95-1.13-19.64,3.68-35.89,8.31-5.37,1.53-19.54-4.22-25-3-7.92,1.76-18.28.22-24,6-5.44,5.49,34,15,35,28"/><path class="cls-2" d="M1024.51,989.18c-8.7-1-17.38-2.41-26.12-3-16.95-1.13-19.64,3.68-35.89,8.31-5.37,1.53-19.54-4.22-25-3-7.92,1.76-18.28.22-24,6-5.44,5.49,34,15,35,28"/><path class="cls-2" d="M1024.51,844.8c-18.73.83-29.2,8.83-36.38,24.56-3.86,8.44-4.22,17.53-2.72,26.07,1.87,10.66,7.3,16.45,20.67,16.92,6.14.21,12.29,0,18.43,0"/><path class="cls-2" d="M1024.51,844.8c-18.73.83-29.2,8.83-36.38,24.56-3.86,8.44-4.22,17.53-2.72,26.07,1.87,10.66,7.3,16.45,20.67,16.92,6.14.21,12.29,0,18.43,0"/><path class="cls-2" d="M542.5,1025.5c15-5,21.9-21.4,18-27-4.16-6-10.33-2-19.83.91-5.78,1.79-11.52,3.84-17.43,5a104.59,104.59,0,0,1-18.41,2c-5.21.09-10,1-14.31,3.75-6,3.81-22,6.29-24,15.29"/><path class="cls-2" d="M542.5,1.5c15-5,21.9-21.4,18-27-4.16-6-10.33-2-19.83.91-5.78,1.79-11.52,3.84-17.43,5a104.59,104.59,0,0,1-18.41,2c-5.21.09-10,1-14.31,3.75-6,3.81-22,6.29-24,15.29"/><path class="cls-2" d="M542.5,1025.5c15-5,21.9-21.4,18-27-4.16-6-10.33-2-19.83.91-5.78,1.79-11.52,3.84-17.43,5a104.59,104.59,0,0,1-18.41,2c-5.21.09-10,1-14.31,3.75-6,3.81-22,6.29-24,15.29"/><path class="cls-2" d="M752.5.5c4.11,12.88,14.81,20.88,27.31,23.94,6,1.46,12.24,1.62,18.4,2.15a87.17,87.17,0,0,0,22-.83c10.64-1.79,15-8.81,17.36-18.09.51-2,.7-4.09,1-6.13"/><path class="cls-2" d="M752.5.5c4.11,12.88,14.81,20.88,27.31,23.94,6,1.46,12.24,1.62,18.4,2.15a87.17,87.17,0,0,0,22-.83c10.64-1.79,15-8.81,17.36-18.09.51-2,.7-4.09,1-6.13"/><path class="cls-2" d="M212.67,1.05c3.42,3.24,7.49,8,11.31,10.63a150.11,150.11,0,0,0,35.27,18.51,22.88,22.88,0,0,0,5.63,1.5c8.53.77,10.42-.33,14.32-8.14,3.64-7.31,7.3-11,6.76-23"/><path class="cls-2" d="M212.67,1.05c3.42,3.24,7.49,8,11.31,10.63a150.11,150.11,0,0,0,35.27,18.51,22.88,22.88,0,0,0,5.63,1.5c8.53.77,10.42-.33,14.32-8.14,3.64-7.31,7.3-11,6.76-23"/><path class="cls-2" d="M466.37,1.54c3.78,11.49,11.56,19,23.05,22.48,6.75,2.05,12.4-1.55,17.87-4.63C515,15.05,522.2,10,529.92,5.76c3.53-1.93,7.79-2.52,11.71-3.71"/><path class="cls-2" d="M466.37,1.54c3.78,11.49,11.56,19,23.05,22.48,6.75,2.05,12.4-1.55,17.87-4.63C515,15.05,522.2,10,529.92,5.76c3.53-1.93,7.79-2.52,11.71-3.71"/><path class="cls-2" d="M107.5,1024.5c-9-9-54.75-9.16-66-19s-24.79-6.37-40-9"/><path class="cls-2" d="M107.5.5c-9-9-54.75-9.16-66-19s-24.79-6.37-40-9"/><path class="cls-2" d="M107.5,1024.5c-9-9-54.75-9.16-66-19s-24.79-6.37-40-9"/><path class="cls-2" d="M2.05,786.94c3.58-3.07,7.81-5.65,10.6-9.32,4.63-6.08,8.35-12.86,12.43-19.35.73-1.17,1.74-2.32,2-3.6.25-1.46.29-3.64-.57-4.42s-3.27-.74-4.38-.06a39.49,39.49,0,0,0-7.7,6.09,22.07,22.07,0,0,1-12.85,6.6"/><path class="cls-2" d="M2.05,786.94c3.58-3.07,7.81-5.65,10.6-9.32,4.63-6.08,8.35-12.86,12.43-19.35.73-1.17,1.74-2.32,2-3.6.25-1.46.29-3.64-.57-4.42s-3.27-.74-4.38-.06a39.49,39.49,0,0,0-7.7,6.09,22.07,22.07,0,0,1-12.85,6.6"/><path class="cls-2" d="M1.54,409.6a40.73,40.73,0,0,1,4.61-1A18,18,0,0,0,22,394.75c1.37-5.43-1.09-8.91-6.66-8.61-4.63.25-9.22,1.27-13.82,2"/><path class="cls-2" d="M1.54,409.6a40.73,40.73,0,0,1,4.61-1A18,18,0,0,0,22,394.75c1.37-5.43-1.09-8.91-6.66-8.61-4.63.25-9.22,1.27-13.82,2"/><path class="cls-2" d="M1024.51,755.71c-14.23,4.23-17.18,27.16-6.65,36.35,2,1.75,4.09,3.42,6.14,5.12"/><path class="cls-2" d="M1024.51,755.71c-14.23,4.23-17.18,27.16-6.65,36.35,2,1.75,4.09,3.42,6.14,5.12"/><path class="cls-2" d="M2.05,575c3.07,3.75,7.15,7.07,9,11.35,3.57,8.27-.17,15.44-9.51,20.9"/><path class="cls-2" d="M2.05,575c3.07,3.75,7.15,7.07,9,11.35,3.57,8.27-.17,15.44-9.51,20.9"/><path class="cls-2" d="M1024.26,70.14a43.28,43.28,0,0,0-2.27,5.65,37.35,37.35,0,0,0,2,24.06,8.44,8.44,0,0,1,.28,2"/><path class="cls-2" d="M1024.26,70.14a43.28,43.28,0,0,0-2.27,5.65,37.35,37.35,0,0,0,2,24.06,8.44,8.44,0,0,1,.28,2"/><path class="cls-2" d="M1024.51,865.28c-5.37,2.53-9.67,6.17-10.69,12.3-1.16,7,2.34,11.74,10.69,15.35"/><path class="cls-2" d="M1024.51,865.28c-5.37,2.53-9.67,6.17-10.69,12.3-1.16,7,2.34,11.74,10.69,15.35"/><path class="cls-2" d="M2.05,327.17c.68.68,1.39,1.34,2,2.05,6.19,6.84,6.17,13.22,0,20.49a30.86,30.86,0,0,0-2.06,3.06"/><path class="cls-2" d="M2.05,327.17c.68.68,1.39,1.34,2,2.05,6.19,6.84,6.17,13.22,0,20.49a30.86,30.86,0,0,0-2.06,3.06"/><path class="cls-2" d="M644.61,540.67c-16.07,4.24-27.53,15-37.85,27.17-4.32,5.1-8.82,10.21-12.17,15.93-3.58,6.12-6.48,12.82-3.77,20.4,3,8.29,9.78,12.67,18.45,13.46,10.29,1,17.23-3.89,23.59-10.89,5.84-6.43,12.25-12.37,17.79-19,4.92-5.92,8.85-12.63,13.45-18.83,4-5.33,3.76-11.38,3.5-17.43-.22-5.39-6.21-10.53-12.24-10.74-3.41-.11-6.83,0-10.24,0"/><path class="cls-2" d="M644.61,540.67c-16.07,4.24-27.53,15-37.85,27.17-4.32,5.1-8.82,10.21-12.17,15.93-3.58,6.12-6.48,12.82-3.77,20.4,3,8.29,9.78,12.67,18.45,13.46,10.29,1,17.23-3.89,23.59-10.89,5.84-6.43,12.25-12.37,17.79-19,4.92-5.92,8.85-12.63,13.45-18.83,4-5.33,3.76-11.38,3.5-17.43-.22-5.39-6.21-10.53-12.24-10.74-3.41-.11-6.83,0-10.24,0"/><path class="cls-2" d="M45.57,567.3c-5.48,1.76-7.73,5.41-7.77,11.26-.13,16.28-2.46,32-12.65,45.62a19.82,19.82,0,0,0-3.54,7.65c-1.42,6.93,3.8,11.91,9.09,13.85,6.84,2.52,13.91,2.05,20.45.29,22-5.91,37.77,3.75,51.82,19.07,5.29,5.77,11.14,11,16.86,16.41,4.09,3.84,9.25,5,14.25,2.93,4.28-1.77,5.61-9.54,4.78-15.72-1.72-12.78-8.94-22.82-16.12-32.66-11.22-15.39-19.36-31.87-22.45-50.77-1-6.12-3.22-11.88-9.7-14.27a32.37,32.37,0,0,0-8.67-1.57c-6.65-.49-13.31-.7-20-1.08-5.29-.3-10.58-.67-15.87-1"/><path class="cls-2" d="M45.57,567.3c-5.48,1.76-7.73,5.41-7.77,11.26-.13,16.28-2.46,32-12.65,45.62a19.82,19.82,0,0,0-3.54,7.65c-1.42,6.93,3.8,11.91,9.09,13.85,6.84,2.52,13.91,2.05,20.45.29,22-5.91,37.77,3.75,51.82,19.07,5.29,5.77,11.14,11,16.86,16.41,4.09,3.84,9.25,5,14.25,2.93,4.28-1.77,5.61-9.54,4.78-15.72-1.72-12.78-8.94-22.82-16.12-32.66-11.22-15.39-19.36-31.87-22.45-50.77-1-6.12-3.22-11.88-9.7-14.27a32.37,32.37,0,0,0-8.67-1.57c-6.65-.49-13.31-.7-20-1.08-5.29-.3-10.58-.67-15.87-1"/><path class="cls-2" d="M790,569.34c-4.44,2.73-9.33,4.95-13.19,8.34-3.64,3.2-4.51,7.69-2.28,12.7s5,9.12,9.83,11.74c3.69,2,7.83,1.29,10.22-2.08,4.65-6.57,7.37-13.81,6.12-22-1.06-6.92-4.5-9.69-10.19-8.72"/><path class="cls-2" d="M790,569.34c-4.44,2.73-9.33,4.95-13.19,8.34-3.64,3.2-4.51,7.69-2.28,12.7s5,9.12,9.83,11.74c3.69,2,7.83,1.29,10.22-2.08,4.65-6.57,7.37-13.81,6.12-22-1.06-6.92-4.5-9.69-10.19-8.72"/><path class="cls-2" d="M809.47,77.82c-5.63.69-11.25,1.76-16.9,2-9,.33-18.09.15-27.13.07-8.64-.07-15.14,3.54-18.88,11.32a180.67,180.67,0,0,0-7.68,18.42c-3.34,9.55-10.72,16.53-23.61,17.46-7.61.55-15.34,1.27-21,7.58-3.66,4.06-5.41,8.68-3.46,13.81,2,5.34,6.91,7.12,12.19,7.13a153.08,153.08,0,0,0,15.86-1c11.11-1.14,21,2.55,30.73,7.21,14.51,7,29.17,13.68,43.47,21.07,15.08,7.79,30.62,7.17,46.06,2.75a84.7,84.7,0,0,0,22.49-10.68c13.1-8.52,17.49-21.68,15.77-36.68A31.28,31.28,0,0,0,871.77,124c-7.69-10.61-15.94-20.85-24.48-30.78C837.57,82,824.42,78.14,810,77.82"/><path class="cls-2" d="M809.47,77.82c-5.63.69-11.25,1.76-16.9,2-9,.33-18.09.15-27.13.07-8.64-.07-15.14,3.54-18.88,11.32a180.67,180.67,0,0,0-7.68,18.42c-3.34,9.55-10.72,16.53-23.61,17.46-7.61.55-15.34,1.27-21,7.58-3.66,4.06-5.41,8.68-3.46,13.81,2,5.34,6.91,7.12,12.19,7.13a153.08,153.08,0,0,0,15.86-1c11.11-1.14,21,2.55,30.73,7.21,14.51,7,29.17,13.68,43.47,21.07,15.08,7.79,30.62,7.17,46.06,2.75a84.7,84.7,0,0,0,22.49-10.68c13.1-8.52,17.49-21.68,15.77-36.68A31.28,31.28,0,0,0,871.77,124c-7.69-10.61-15.94-20.85-24.48-30.78C837.57,82,824.42,78.14,810,77.82"/><path class="cls-2" d="M243.2,86c-5.49,1.79-10.7,3.64-13.41,9.68-3.35,7.46-2,15.37,4.18,20.54,8.35,7,16.22,14.46,19.95,25.08,4.67,13.33,20.62,16.68,31.69,12.07,13.08-5.45,23.52-14.93,31.75-26.47,4-5.63,2.45-11-3-15.35-6.36-5.1-14-7.43-21.57-9a125.34,125.34,0,0,1-33.78-12.42c-4.75-2.54-9.66-4.87-15.34-4.13"/><path class="cls-2" d="M243.2,86c-5.49,1.79-10.7,3.64-13.41,9.68-3.35,7.46-2,15.37,4.18,20.54,8.35,7,16.22,14.46,19.95,25.08,4.67,13.33,20.62,16.68,31.69,12.07,13.08-5.45,23.52-14.93,31.75-26.47,4-5.63,2.45-11-3-15.35-6.36-5.1-14-7.43-21.57-9a125.34,125.34,0,0,1-33.78-12.42c-4.75-2.54-9.66-4.87-15.34-4.13"/><path class="cls-2" d="M305.66,624.64a42.23,42.23,0,0,0-17.41,10.24c-8.7,8-20,11.44-30.19,16.92-4.93,2.65-9.73,5.25-11.94,11.18-1.43,3.83-3.05,7.06-1.5,11.36,1.85,5.12,2.47,10.68,4.32,15.8s5.39,7.94,12.15,6.06c8.72-2.42,17.19-6.12,23.48-12.78a118.42,118.42,0,0,1,31.79-23.56,27.16,27.16,0,0,0,8.65-7.14c5.39-6.94,2.86-18-5-23.44-4.11-2.84-8.57-5-13.8-4.64"/><path class="cls-2" d="M305.66,624.64a42.23,42.23,0,0,0-17.41,10.24c-8.7,8-20,11.44-30.19,16.92-4.93,2.65-9.73,5.25-11.94,11.18-1.43,3.83-3.05,7.06-1.5,11.36,1.85,5.12,2.47,10.68,4.32,15.8s5.39,7.94,12.15,6.06c8.72-2.42,17.19-6.12,23.48-12.78a118.42,118.42,0,0,1,31.79-23.56,27.16,27.16,0,0,0,8.65-7.14c5.39-6.94,2.86-18-5-23.44-4.11-2.84-8.57-5-13.8-4.64"/><path class="cls-2" d="M330.24,686.08c-9.07,2.27-15.07,8.42-18.75,16.47-1.8,3.93-2.09,8.79-2.07,13.23,0,3.48,2.78,5,6.48,5.18,9.13.39,17.86-1.74,26.62-3.69,3.3-.74,6.8-1.48,9.67-3.14,5.45-3.16,6.9-10.17,3.63-15.75-5.62-9.57-13.92-13.88-25.07-12.3"/><path class="cls-2" d="M330.24,686.08c-9.07,2.27-15.07,8.42-18.75,16.47-1.8,3.93-2.09,8.79-2.07,13.23,0,3.48,2.78,5,6.48,5.18,9.13.39,17.86-1.74,26.62-3.69,3.3-.74,6.8-1.48,9.67-3.14,5.45-3.16,6.9-10.17,3.63-15.75-5.62-9.57-13.92-13.88-25.07-12.3"/><path class="cls-2" d="M243.71,716.29c-8.73,4.05-12.63,11.41-12,20.46a21.59,21.59,0,0,0,5.54,12.64c10.69,11,18.28,23.68,24.54,37.49a15.94,15.94,0,0,0,10.58,8.85c7,2,12.52,6.64,16.83,12.28a66.84,66.84,0,0,0,20,17.36,64.59,64.59,0,0,1,23.16,21.92c5.22,8.4,13.43,13.93,21.41,19.52,14.83,10.41,28,22.74,41,35.25a72.41,72.41,0,0,0,14.33,10.72c9,5.12,17.85,1.19,22-8.55,3.54-8.27,3-16.88,1.71-25.09-1.68-11.08-5.19-21.88-7.94-32.8-1.26-5-5.18-7.86-9.7-7.51-18.28,1.43-34.32-5.76-50.72-11.9-13.82-5.18-22.73-14.69-27.21-28.7-1.14-3.59-3.22-6.91-5.06-10.25-2.36-4.28-6.37-5.89-10.73-4.62-7.67,2.23-15.32,4.58-23,6.61-6.76,1.78-12.8.32-16.29-6.14-5.08-9.4-9.64-19.07-14.41-28.63-5.81-11.61-11.46-23.29-17.56-34.74-1-1.91-3.95-2.81-6-4.17"/><path class="cls-2" d="M243.71,716.29c-8.73,4.05-12.63,11.41-12,20.46a21.59,21.59,0,0,0,5.54,12.64c10.69,11,18.28,23.68,24.54,37.49a15.94,15.94,0,0,0,10.58,8.85c7,2,12.52,6.64,16.83,12.28a66.84,66.84,0,0,0,20,17.36,64.59,64.59,0,0,1,23.16,21.92c5.22,8.4,13.43,13.93,21.41,19.52,14.83,10.41,28,22.74,41,35.25a72.41,72.41,0,0,0,14.33,10.72c9,5.12,17.85,1.19,22-8.55,3.54-8.27,3-16.88,1.71-25.09-1.68-11.08-5.19-21.88-7.94-32.8-1.26-5-5.18-7.86-9.7-7.51-18.28,1.43-34.32-5.76-50.72-11.9-13.82-5.18-22.73-14.69-27.21-28.7-1.14-3.59-3.22-6.91-5.06-10.25-2.36-4.28-6.37-5.89-10.73-4.62-7.67,2.23-15.32,4.58-23,6.61-6.76,1.78-12.8.32-16.29-6.14-5.08-9.4-9.64-19.07-14.41-28.63-5.81-11.61-11.46-23.29-17.56-34.74-1-1.91-3.95-2.81-6-4.17"/><path class="cls-2" d="M566.78,89.09c-5.61,1.46-11.24,2.5-15.93,6.58A92.85,92.85,0,0,0,529,123.94c-2,3.91,0,7.06,5,9.69,9.6,5,19.59,4.36,29.69,2.05,15.13-3.46,25.16-13.39,31.52-26.73,3.56-7.47.42-13.36-6.49-15.58s-14.28-2.92-21.44-4.28"/><path class="cls-2" d="M566.78,89.09c-5.61,1.46-11.24,2.5-15.93,6.58A92.85,92.85,0,0,0,529,123.94c-2,3.91,0,7.06,5,9.69,9.6,5,19.59,4.36,29.69,2.05,15.13-3.46,25.16-13.39,31.52-26.73,3.56-7.47.42-13.36-6.49-15.58s-14.28-2.92-21.44-4.28"/><path class="cls-2" d="M816.64,113.66c-8.92,4.15-11.73,10.45-8.71,19.46,1.89,5.63,3.88,11.23,5.61,16.9,3.51,11.48,12.43,16.06,23.58,12.81,5.68-1.66,10-7.13,9.64-12.81a8.73,8.73,0,0,0-2-5.05c-2.82-3-6.36-5.27-9.06-8.33a104,104,0,0,1-9.72-12.79c-2.48-3.86-4-8.38-8.79-10.19"/><path class="cls-2" d="M816.64,113.66c-8.92,4.15-11.73,10.45-8.71,19.46,1.89,5.63,3.88,11.23,5.61,16.9,3.51,11.48,12.43,16.06,23.58,12.81,5.68-1.66,10-7.13,9.64-12.81a8.73,8.73,0,0,0-2-5.05c-2.82-3-6.36-5.27-9.06-8.33a104,104,0,0,1-9.72-12.79c-2.48-3.86-4-8.38-8.79-10.19"/><path class="cls-2" d="M383.49,137.22c-12.8,3.07-25.54,6.45-38.42,9.12a79.24,79.24,0,0,0-33.23,15.49,58.24,58.24,0,0,1-32.79,12.41c-14,1-28,3.06-41.49,7.49-4.21,1.38-8.49,2.56-12.8,3.59-14.41,3.45-22.48,19.91-24.25,31.74-2.18,14.7,1.93,28.48,4.39,42.51,2.26,12.88,5.19,25.65,8.15,38.4a103.19,103.19,0,0,0,12.23,29.2c4,6.81,9.51,10.71,17.93,9.78,11.24-1.24,22.56-1.78,33.77-3.22a289.53,289.53,0,0,0,28.66-5.14c8.8-2,15.73-7.19,21.08-14.69,7.43-10.42,15.17-20.62,23-30.73,7.3-9.4,10.84-20.56,15.27-31.29,4.69-11.37,11.49-20.95,21.55-28.15,11.92-8.52,17.46-20.59,18.94-34.8.76-7.33,1.84-14.67,1.91-22a70.11,70.11,0,0,0-2-17.37c-1.79-7.3-6.69-13.7-16.24-12.36a36.42,36.42,0,0,1-5.12,0"/><path class="cls-2" d="M383.49,137.22c-12.8,3.07-25.54,6.45-38.42,9.12a79.24,79.24,0,0,0-33.23,15.49,58.24,58.24,0,0,1-32.79,12.41c-14,1-28,3.06-41.49,7.49-4.21,1.38-8.49,2.56-12.8,3.59-14.41,3.45-22.48,19.91-24.25,31.74-2.18,14.7,1.93,28.48,4.39,42.51,2.26,12.88,5.19,25.65,8.15,38.4a103.19,103.19,0,0,0,12.23,29.2c4,6.81,9.51,10.71,17.93,9.78,11.24-1.24,22.56-1.78,33.77-3.22a289.53,289.53,0,0,0,28.66-5.14c8.8-2,15.73-7.19,21.08-14.69,7.43-10.42,15.17-20.62,23-30.73,7.3-9.4,10.84-20.56,15.27-31.29,4.69-11.37,11.49-20.95,21.55-28.15,11.92-8.52,17.46-20.59,18.94-34.8.76-7.33,1.84-14.67,1.91-22a70.11,70.11,0,0,0-2-17.37c-1.79-7.3-6.69-13.7-16.24-12.36a36.42,36.42,0,0,1-5.12,0"/><path class="cls-2" d="M452.1,782.34c-15.16,3.84-20.48,15.82-24,29.19a58.27,58.27,0,0,0-1.54,8.7c-.6,5.39,2.92,8.77,8.13,7.06,14.95-4.91,27.78-13.07,35.77-27.09,4.4-7.71-1.82-17.19-11.17-17.84-2.21-.16-4.43,0-6.65,0"/><path class="cls-2" d="M452.1,782.34c-15.16,3.84-20.48,15.82-24,29.19a58.27,58.27,0,0,0-1.54,8.7c-.6,5.39,2.92,8.77,8.13,7.06,14.95-4.91,27.78-13.07,35.77-27.09,4.4-7.71-1.82-17.19-11.17-17.84-2.21-.16-4.43,0-6.65,0"/><path class="cls-2" d="M203.26,783.36c-7.23,5-6.72,14,1,17.92,3.19,1.62,6.69-.49,8.17-5.13,1.84-5.75-.3-8.21-6.13-11.75a17.25,17.25,0,0,0-2.55-1"/><path class="cls-2" d="M203.26,783.36c-7.23,5-6.72,14,1,17.92,3.19,1.62,6.69-.49,8.17-5.13,1.84-5.75-.3-8.21-6.13-11.75a17.25,17.25,0,0,0-2.55-1"/><path class="cls-2" d="M329.22,178.18c-15.41,4-30.64,8.52-46.58,10.38-14.69,1.72-27.34,7.62-36.53,20.21-4.5,6.17-10.8,11-16.21,16.52-6.92,7-8.94,15.63-7.13,25.07,2.34,12.16,4.59,24.37,7.77,36.32,3.06,11.53,8.87,21.66,20.89,26.06A36.75,36.75,0,0,0,279,311.6c6.6-2.87,12.55-7.4,18.48-11.62,9.54-6.79,18.55-14.34,28.27-20.84,12.21-8.18,22-18.13,26.52-32.37,4.7-14.75,13.16-27.55,20.46-41,5.66-10.41.91-18.75-8.67-21.93-11.09-3.68-22.41-6.46-34.28-5.68"/><path class="cls-2" d="M329.22,178.18c-15.41,4-30.64,8.52-46.58,10.38-14.69,1.72-27.34,7.62-36.53,20.21-4.5,6.17-10.8,11-16.21,16.52-6.92,7-8.94,15.63-7.13,25.07,2.34,12.16,4.59,24.37,7.77,36.32,3.06,11.53,8.87,21.66,20.89,26.06A36.75,36.75,0,0,0,279,311.6c6.6-2.87,12.55-7.4,18.48-11.62,9.54-6.79,18.55-14.34,28.27-20.84,12.21-8.18,22-18.13,26.52-32.37,4.7-14.75,13.16-27.55,20.46-41,5.66-10.41.91-18.75-8.67-21.93-11.09-3.68-22.41-6.46-34.28-5.68"/><path class="cls-2" d="M97.79,179.71c-.51,1-1.55,2.11-1.43,3.06.31,2.67,6.88,8.09,9.63,8.15a2.49,2.49,0,0,0,2-1c.34-.68.45-2.09,0-2.45-3.13-2.69-6.42-5.19-9.67-7.75"/><path class="cls-2" d="M97.79,179.71c-.51,1-1.55,2.11-1.43,3.06.31,2.67,6.88,8.09,9.63,8.15a2.49,2.49,0,0,0,2-1c.34-.68.45-2.09,0-2.45-3.13-2.69-6.42-5.19-9.67-7.75"/><path class="cls-2" d="M447,183.3c-9.25,2.66-12,10.38-13.73,18.45-1.18,5.35-1.48,10.9-2.14,16.36-.9,7.44-7.8,13.69-16.38,15.43a99.8,99.8,0,0,0-16.87,4.64,33.71,33.71,0,0,0-21.66,28.11c-2.52,21.27-12.67,38.19-25.48,54.22q-12.51,15.64-25.09,31.23c-.15.19-.36.33-.51.52-8,10-6.64,18.29,4.1,25.59,6.86,4.68,13.84,9.08,22,11.3,12,3.28,22.46-.81,31.12-8.37C396.9,368.06,411.15,354.9,422.4,339a36,36,0,0,0,6.71-19.46c.32-6.71,1.54-13.29,7.13-17.9,11-9,15-21.3,16.38-34.84,1.16-11.4,6.12-15.51,17.39-16,9.59-.4,18.16,2.35,26.66,6.18,2.66,1.2,5.27,3.3,8.76.7,3.74-2.79,5.25-5.5,2.94-9.3-7.21-11.85-13.88-24.14-22.18-35.2-8.6-11.48-19.77-20.7-32.1-28.23-1.84-1.13-4.38-1.11-6.6-1.62"/><path class="cls-2" d="M447,183.3c-9.25,2.66-12,10.38-13.73,18.45-1.18,5.35-1.48,10.9-2.14,16.36-.9,7.44-7.8,13.69-16.38,15.43a99.8,99.8,0,0,0-16.87,4.64,33.71,33.71,0,0,0-21.66,28.11c-2.52,21.27-12.67,38.19-25.48,54.22q-12.51,15.64-25.09,31.23c-.15.19-.36.33-.51.52-8,10-6.64,18.29,4.1,25.59,6.86,4.68,13.84,9.08,22,11.3,12,3.28,22.46-.81,31.12-8.37C396.9,368.06,411.15,354.9,422.4,339a36,36,0,0,0,6.71-19.46c.32-6.71,1.54-13.29,7.13-17.9,11-9,15-21.3,16.38-34.84,1.16-11.4,6.12-15.51,17.39-16,9.59-.4,18.16,2.35,26.66,6.18,2.66,1.2,5.27,3.3,8.76.7,3.74-2.79,5.25-5.5,2.94-9.3-7.21-11.85-13.88-24.14-22.18-35.2-8.6-11.48-19.77-20.7-32.1-28.23-1.84-1.13-4.38-1.11-6.6-1.62"/><path class="cls-2" d="M303.62,200.7c-2.91.69-5.78,1.56-8.71,2-12.79,2-20.13,9.84-22.4,22.07-2.11,11.38-6.79,20.77-15.36,28.79s-8.86,20.52-1.66,28a14.15,14.15,0,0,0,16.87,2.53A32,32,0,0,0,278,280c8.44-7.81,19-11,29.71-13.83,13.09-3.49,24.26-9.43,29.78-23,3.28-8.06,4.68-16.12,2.47-24.6-2-7.83-12.07-15.75-21.49-16.86-4.75-.56-9.55-.72-14.33-1.07"/><path class="cls-2" d="M303.62,200.7c-2.91.69-5.78,1.56-8.71,2-12.79,2-20.13,9.84-22.4,22.07-2.11,11.38-6.79,20.77-15.36,28.79s-8.86,20.52-1.66,28a14.15,14.15,0,0,0,16.87,2.53A32,32,0,0,0,278,280c8.44-7.81,19-11,29.71-13.83,13.09-3.49,24.26-9.43,29.78-23,3.28-8.06,4.68-16.12,2.47-24.6-2-7.83-12.07-15.75-21.49-16.86-4.75-.56-9.55-.72-14.33-1.07"/><path class="cls-2" d="M839.17,236.54c-12,1.92-23.95,4.09-36.38,2.19-22.94-3.5-44.56.07-63.47,14.7-5.77,4.48-11.84,8.6-17.34,13.39-9,7.81-12.75,17.87-10.22,29.61,2.85,13.25,8.15,25.37,18.35,34.84,6.21,5.76,13.59,8.19,22,8.82s17.06,1.21,25,3.69c15,4.69,23.1,15.6,24.78,31.5.8,7.59,2,15.41,4.7,22.46,4.25,11,14.52,15.4,24.88,19,8.82,3.05,17.9,5.43,26.56,8.87,5.92,2.35,12,5.17,16.8,9.25,10.54,9,23.09,12.53,36,15.74,4.5,1.12,8.89,2.68,13.32,4.06,16.48,5.11,31.32.15,45.52-7.78,3.76-2.1,7-5.23,10.26-8.12,7.65-6.78,8.47-15.07,4.6-24-3.93-9.12-8.69-17.91-12.12-27.21-4.24-11.51-12.12-20.61-18.54-30.68-5.76-9-9.42-18.93-8.55-29.67.64-7.92,2.93-15.71,4.42-23.57,1.44-7.64,2.57-15.24.6-23.05-1.42-5.62-5.26-7.64-10.32-8.12-3.22-.3-6.49.08-9.72-.08-9.31-.45-18.81.05-27.62-3.65a48.55,48.55,0,0,1-11.23-6.65c-5.38-4.28-10.28-9.17-15.43-13.73-10.4-9.21-22.69-12.61-36.35-11.79"/><path class="cls-2" d="M839.17,236.54c-12,1.92-23.95,4.09-36.38,2.19-22.94-3.5-44.56.07-63.47,14.7-5.77,4.48-11.84,8.6-17.34,13.39-9,7.81-12.75,17.87-10.22,29.61,2.85,13.25,8.15,25.37,18.35,34.84,6.21,5.76,13.59,8.19,22,8.82s17.06,1.21,25,3.69c15,4.69,23.1,15.6,24.78,31.5.8,7.59,2,15.41,4.7,22.46,4.25,11,14.52,15.4,24.88,19,8.82,3.05,17.9,5.43,26.56,8.87,5.92,2.35,12,5.17,16.8,9.25,10.54,9,23.09,12.53,36,15.74,4.5,1.12,8.89,2.68,13.32,4.06,16.48,5.11,31.32.15,45.52-7.78,3.76-2.1,7-5.23,10.26-8.12,7.65-6.78,8.47-15.07,4.6-24-3.93-9.12-8.69-17.91-12.12-27.21-4.24-11.51-12.12-20.61-18.54-30.68-5.76-9-9.42-18.93-8.55-29.67.64-7.92,2.93-15.71,4.42-23.57,1.44-7.64,2.57-15.24.6-23.05-1.42-5.62-5.26-7.64-10.32-8.12-3.22-.3-6.49.08-9.72-.08-9.31-.45-18.81.05-27.62-3.65a48.55,48.55,0,0,1-11.23-6.65c-5.38-4.28-10.28-9.17-15.43-13.73-10.4-9.21-22.69-12.61-36.35-11.79"/><path class="cls-2" d="M648.7,289.79c-9.42,4.8-15,12-14.86,23q.13,13.57,0,27.14c-.14,14.94,4.3,28.47,12.3,41,2.6,4.07,5,8.27,7.71,12.27,5,7.4,4.45,14.82-.07,22-7.17,11.38-15,22.34-21.82,33.92A79,79,0,0,0,623.78,469c-3.73,14.32-10.2,26.87-20.65,37.33a128.91,128.91,0,0,0-22.27,29.56c-4.67,8.56-11.13,16.36-17.8,23.57-8.49,9.17-12,20.06-14.26,31.86-2.09,11-4.11,22-7.32,32.71-2.16,7.2-5.88,13.8-13.5,17.68-5.1,2.6-9.39,3.11-14.46.85q-19.9-8.85-39.93-17.41C461.33,620,455.4,606.33,457,595a127.16,127.16,0,0,1,7.6-28.13c5-13,8.75-26,8.59-40-.06-5.63.59-11.27,1-16.9.79-11.86-2.17-23.12-6.81-33.73-6.86-15.71-15.32-30.53-28-42.61-6.86-6.55-14.67-9.51-24.12-9.76-27.84-.74-50.71,10.24-70.06,29.35a112.07,112.07,0,0,0-14.31,17.4C323,482.41,312,490.26,300,497.17c-9.39,5.43-14,14.35-14.08,24.56-.06,11.83,4.54,22.43,14.62,29.64,6.81,4.87,13.79,9.55,21,13.82,13.63,8.09,25.29,18.58,36.81,29.26,9.3,8.61,18.26,17.6,27.72,26,10.19,9.09,23.09,13.46,35.28,19,12.66,5.76,18.52,14.35,20,29.69,1,10.37,1.1,20.89,5.15,30.71,2.9,7,6.47,13.63,14.83,15.34,5.25,1.07,10-.94,14.31-3.58,14.29-8.66,25.56-19.82,30.89-36.27,1.38-4.26,4.66-7.88,7-11.83a14.35,14.35,0,0,1,19-5.24c8.1,4.11,16.9,6.84,24.94,11,4.74,2.48,8.36,1.09,11.81-1.27,11.45-7.81,24-7.43,34.34,1.64,4.93,4.32,5.07,8.4-1.12,11.52a51.1,51.1,0,0,1-17.31,4.66c-7.54.82-10.52,4.61-8.2,12a87,87,0,0,0,19,32.77c7,7.73,15.63,11.65,26.1,13,13.52,1.7,26.49.18,38.28-6.08,6.44-3.42,12-9.09,16.87-14.72A95.26,95.26,0,0,1,695.77,706c10.22-6.94,20.87-13.49,30.1-21.62,17.1-15,17-30.35,5.24-49-5.14-8.12-10.69-16-15.82-24.1-10.53-16.67-9.51-33.76.18-50,6.07-10.2,14.33-19.09,21.24-28.83,6.59-9.3,9.84-19.15,8.1-31.24a89.83,89.83,0,0,1,2-33.8c1.66-6.89,1.77-14.29,1.6-21.44-.19-7.72-7.18-15.3-17.77-16-7.54-.49-15.27-1.1-22.48-3.15-14.29-4.07-24.25-18.27-24.08-33.1s1-29.7.89-44.55c-.18-17.38-4.49-33.67-14.7-48.16-5.22-7.41-11.68-11.89-21-11.23"/><path class="cls-2" d="M648.7,289.79c-9.42,4.8-15,12-14.86,23q.13,13.57,0,27.14c-.14,14.94,4.3,28.47,12.3,41,2.6,4.07,5,8.27,7.71,12.27,5,7.4,4.45,14.82-.07,22-7.17,11.38-15,22.34-21.82,33.92A79,79,0,0,0,623.78,469c-3.73,14.32-10.2,26.87-20.65,37.33a128.91,128.91,0,0,0-22.27,29.56c-4.67,8.56-11.13,16.36-17.8,23.57-8.49,9.17-12,20.06-14.26,31.86-2.09,11-4.11,22-7.32,32.71-2.16,7.2-5.88,13.8-13.5,17.68-5.1,2.6-9.39,3.11-14.46.85q-19.9-8.85-39.93-17.41C461.33,620,455.4,606.33,457,595a127.16,127.16,0,0,1,7.6-28.13c5-13,8.75-26,8.59-40-.06-5.63.59-11.27,1-16.9.79-11.86-2.17-23.12-6.81-33.73-6.86-15.71-15.32-30.53-28-42.61-6.86-6.55-14.67-9.51-24.12-9.76-27.84-.74-50.71,10.24-70.06,29.35a112.07,112.07,0,0,0-14.31,17.4C323,482.41,312,490.26,300,497.17c-9.39,5.43-14,14.35-14.08,24.56-.06,11.83,4.54,22.43,14.62,29.64,6.81,4.87,13.79,9.55,21,13.82,13.63,8.09,25.29,18.58,36.81,29.26,9.3,8.61,18.26,17.6,27.72,26,10.19,9.09,23.09,13.46,35.28,19,12.66,5.76,18.52,14.35,20,29.69,1,10.37,1.1,20.89,5.15,30.71,2.9,7,6.47,13.63,14.83,15.34,5.25,1.07,10-.94,14.31-3.58,14.29-8.66,25.56-19.82,30.89-36.27,1.38-4.26,4.66-7.88,7-11.83a14.35,14.35,0,0,1,19-5.24c8.1,4.11,16.9,6.84,24.94,11,4.74,2.48,8.36,1.09,11.81-1.27,11.45-7.81,24-7.43,34.34,1.64,4.93,4.32,5.07,8.4-1.12,11.52a51.1,51.1,0,0,1-17.31,4.66c-7.54.82-10.52,4.61-8.2,12a87,87,0,0,0,19,32.77c7,7.73,15.63,11.65,26.1,13,13.52,1.7,26.49.18,38.28-6.08,6.44-3.42,12-9.09,16.87-14.72A95.26,95.26,0,0,1,695.77,706c10.22-6.94,20.87-13.49,30.1-21.62,17.1-15,17-30.35,5.24-49-5.14-8.12-10.69-16-15.82-24.1-10.53-16.67-9.51-33.76.18-50,6.07-10.2,14.33-19.09,21.24-28.83,6.59-9.3,9.84-19.15,8.1-31.24a89.83,89.83,0,0,1,2-33.8c1.66-6.89,1.77-14.29,1.6-21.44-.19-7.72-7.18-15.3-17.77-16-7.54-.49-15.27-1.1-22.48-3.15-14.29-4.07-24.25-18.27-24.08-33.1s1-29.7.89-44.55c-.18-17.38-4.49-33.67-14.7-48.16-5.22-7.41-11.68-11.89-21-11.23"/><path class="cls-2" d="M910.34,297.47c-4.78,1.37-9.85,2.12-14.28,4.22-10.56,5-13.51,15.29-15.26,25.5-2.4,14-10.36,22.82-22.67,28.69-6,2.86-11.31,6.45-14,13.23-2.45,6.31-1.72,12,3.72,15.87,11.79,8.31,24.62,9.89,37.81,4,8.78-3.9,17.09-8.83,25.66-13.2,7.16-3.65,10.07-10.25,11.11-17.44,1.29-9,1.41-18.08,2.23-27.11.46-5,1.14-9.94,2-14.85,1.78-9.64-4.72-17.49-15.91-18.95"/><path class="cls-2" d="M910.34,297.47c-4.78,1.37-9.85,2.12-14.28,4.22-10.56,5-13.51,15.29-15.26,25.5-2.4,14-10.36,22.82-22.67,28.69-6,2.86-11.31,6.45-14,13.23-2.45,6.31-1.72,12,3.72,15.87,11.79,8.31,24.62,9.89,37.81,4,8.78-3.9,17.09-8.83,25.66-13.2,7.16-3.65,10.07-10.25,11.11-17.44,1.29-9,1.41-18.08,2.23-27.11.46-5,1.14-9.94,2-14.85,1.78-9.64-4.72-17.49-15.91-18.95"/><path class="cls-2" d="M566.78,346.11c-9.1,2.24-17.3,6.52-25.66,10.63-11.36,5.61-23,10.8-34.81,15.34-9.06,3.49-14.78,10-18.79,18.11-4.33,8.79-7.41,17.92-7.45,28.11a53.53,53.53,0,0,0,6.9,26.09c7.4,13.78,16.88,26.15,29.23,35.74,13.88,10.78,22.18,9.69,34.08-4.58,5.64-6.76,10.35-14.38,14.89-22,6.89-11.51,15.67-21.36,25.16-30.68,3.79-3.72,7.44-7.58,11.29-11.25,7.86-7.49,11-16.75,8.53-27.11-3.15-13.12-9.32-24.72-20.28-33.37-6.84-5.4-14.62-5.3-22.57-5.07"/><path class="cls-2" d="M566.78,346.11c-9.1,2.24-17.3,6.52-25.66,10.63-11.36,5.61-23,10.8-34.81,15.34-9.06,3.49-14.78,10-18.79,18.11-4.33,8.79-7.41,17.92-7.45,28.11a53.53,53.53,0,0,0,6.9,26.09c7.4,13.78,16.88,26.15,29.23,35.74,13.88,10.78,22.18,9.69,34.08-4.58,5.64-6.76,10.35-14.38,14.89-22,6.89-11.51,15.67-21.36,25.16-30.68,3.79-3.72,7.44-7.59,11.29-11.25,7.86-7.49,11-16.75,8.53-27.11-3.15-13.12-9.32-24.72-20.28-33.37-6.84-5.4-14.62-5.3-22.57-5.07"/><path class="cls-2" d="M559.62,367.62C542,372,527.93,382.91,514.8,394.51c-7.31,6.46-12.49,15.33-12.17,26.36.21,7.18,3.77,12.44,8,17.27,2.81,3.24,6.82,5.62,10.65,7.74,9.09,5,17.55,2.22,24.43-4.14,13.07-12.09,24.92-25.44,32.15-42a33.5,33.5,0,0,0,2.5-16.77c-1.3-10.39-10.25-16.7-20.21-15.39"/><path class="cls-2" d="M559.62,367.62C542,372,527.93,382.91,514.8,394.51c-7.31,6.46-12.49,15.33-12.17,26.36.21,7.18,3.77,12.44,8,17.27,2.81,3.24,6.82,5.62,10.65,7.74,9.09,5,17.55,2.22,24.43-4.14,13.07-12.09,24.92-25.44,32.15-42a33.5,33.5,0,0,0,2.5-16.77c-1.3-10.39-10.25-16.7-20.21-15.39"/><path class="cls-2" d="M742.91,821.25c-12.29,2.39-24.48,5.53-36.88,7-22.77,2.69-42.29,11.33-57.15,29-2.43,2.89-3.25,7.65-3.6,11.65-.58,6.43-.26,13-.13,19.44.11,4.81,2.18,6.41,7.14,6.69,8.82.51,16.25-3.93,24-6.87,6.65-2.53,12.67-6.71,19-10,8.18-4.3,16.49-8.32,26.11-7.68,13,.86,24.37,5.61,32.7,15.9,8,9.84,15.11,20.35,23.26,30,3.36,4,8.2,6.91,12.72,9.75,2.64,1.66,5.73.65,8.11-1.44a44.8,44.8,0,0,0,11.42-15.79c4.78-10.7,8.4-21.61,7.38-33.34a162.42,162.42,0,0,0-4.67-27.09,12.84,12.84,0,0,0-12.08-9.73c-9.79-.58-18.38-4.37-26.62-9.27a24.67,24.67,0,0,1-4.07-2.59c-7.64-7-17-5.53-26.14-5.6"/><path class="cls-2" d="M742.91,821.25c-12.29,2.39-24.48,5.53-36.88,7-22.77,2.69-42.29,11.33-57.15,29-2.43,2.89-3.25,7.65-3.6,11.65-.58,6.43-.26,13-.13,19.44.11,4.81,2.18,6.41,7.14,6.69,8.82.51,16.25-3.93,24-6.87,6.65-2.53,12.67-6.71,19-10,8.18-4.3,16.49-8.32,26.11-7.68,13,.86,24.37,5.61,32.7,15.9,8,9.84,15.11,20.35,23.26,30,3.36,4,8.2,6.91,12.72,9.75,2.64,1.66,5.73.65,8.11-1.44a44.8,44.8,0,0,0,11.42-15.79c4.78-10.7,8.4-21.61,7.38-33.34a162.42,162.42,0,0,0-4.67-27.09,12.84,12.84,0,0,0-12.08-9.73c-9.79-.58-18.38-4.37-26.62-9.27a24.67,24.67,0,0,1-4.07-2.59c-7.64-7-17-5.53-26.14-5.6"/><path class="cls-2" d="M390.66,447.49c-2.39.51-4.77,1.11-7.17,1.52-15.93,2.7-27.17,12.06-35.84,25.1-7.16,10.76-14.19,21.61-21.57,32.22-3.84,5.51-7.88,10.74-9.75,17.42a15.71,15.71,0,0,0,4.29,16.3,84.77,84.77,0,0,0,15.85,12.77c12.5,7.44,21.52,18.39,31.16,28.8,11.13,12,22.15,24.19,36.37,32.73,6.56,3.94,13.77,5.79,21.47,4.12a14.23,14.23,0,0,0,11.21-10.74c2.1-7.62,3.76-15.36,5.7-23,3-12,6.46-23.83,9.1-35.87a255.89,255.89,0,0,0,4.11-26.61,137.32,137.32,0,0,0,1-22c-1.19-21.91-11.59-39.33-31.66-48.06-9.21-4-19.1-5.21-29.15-4.69-1.54.08-3.08,0-4.61,0"/><path class="cls-2" d="M390.66,447.49c-2.39.51-4.77,1.11-7.17,1.52-15.93,2.7-27.17,12.06-35.84,25.1-7.16,10.76-14.19,21.61-21.57,32.22-3.84,5.51-7.88,10.74-9.75,17.42a15.71,15.71,0,0,0,4.29,16.3,84.77,84.77,0,0,0,15.85,12.77c12.5,7.44,21.52,18.39,31.16,28.8,11.13,12,22.15,24.19,36.37,32.73,6.56,3.94,13.77,5.79,21.47,4.12a14.23,14.23,0,0,0,11.21-10.74c2.1-7.62,3.76-15.36,5.7-23,3-12,6.46-23.83,9.1-35.87a255.89,255.89,0,0,0,4.11-26.61,137.32,137.32,0,0,0,1-22c-1.19-21.91-11.59-39.33-31.66-48.06-9.21-4-19.1-5.21-29.15-4.69-1.54.08-3.08,0-4.61,0"/><path class="cls-2" d="M84.48,918.53c-2.73,1.36-6,2.23-8,4.25-1.63,1.59-3.17,5.21-2.42,6.88,1.34,3,3.52,6.4,7.9,6.28,1.88-.05,3.76,0,5.63,0,5.64-.13,8.73-3.23,8.71-8.7,0-4.46-4.08-8.52-8.71-8.7-.85,0-1.7,0-2.56,0"/><path class="cls-2" d="M84.48,918.53c-2.73,1.36-6,2.23-8,4.25-1.63,1.59-3.17,5.21-2.42,6.88,1.34,3,3.52,6.4,7.9,6.28,1.88-.05,3.76,0,5.63,0,5.64-.13,8.73-3.23,8.71-8.7,0-4.46-4.08-8.52-8.71-8.7-.85,0-1.7,0-2.56,0"/><path class="cls-2" d="M309.76,47.1c-8.88,5.38-5.93,7.22.08,11.68,2.55,1.9,6,2.82,9.11.58,2.21-1.61,3.25-3.64,2.15-6.65-1.48-4-4.2-5.67-8.27-5.61-.85,0-1.7,0-2.56,0"/><path class="cls-2" d="M309.76,47.1c-8.88,5.38-5.93,7.22.08,11.68,2.55,1.9,6,2.82,9.11.58,2.21-1.61,3.25-3.64,2.15-6.65-1.48-4-4.2-5.67-8.27-5.61-.85,0-1.7,0-2.56,0"/><path class="cls-2" d="M387.58,47.1c-8.73,1.52-15.23,6.19-17.23,14.89-1.59,7-1.69,14,3.29,20.53,6.23,8.12,16.26,8.46,24.07,4.79,4.39-2.06,8.23-6.13,11.25-10.09,6.33-8.29,3.18-17.17-3.94-23.49-4.88-4.34-10.7-5.92-16.92-6.63"/><path class="cls-2" d="M387.58,47.1c-8.73,1.52-15.23,6.19-17.23,14.89-1.59,7-1.69,14,3.29,20.53,6.23,8.12,16.26,8.46,24.07,4.79,4.39-2.06,8.23-6.13,11.25-10.09,6.33-8.29,3.18-17.17-3.94-23.49-4.88-4.34-10.7-5.92-16.92-6.63"/><path class="cls-2" d="M387.58,471c-7.84,1.93-15.53,3.9-21.05,10.7-6,7.47-11.57,24.89-5.58,32.82,2.43,3.22,4.49,6.77,7.24,9.67,6.47,6.82,8.38,15.33,9.64,24.13,1.42,9.86,4.36,19.07,11.85,26,4.52,4.21,9.06,8.72,14.39,11.64,8.55,4.7,14.48.91,17.18-5.5A207.5,207.5,0,0,0,430,555.49c2.7-9.76,4.7-19.74,6.73-29.67,2.26-11.14,2.25-22.29-1-33.27-3.49-11.78-11.62-18.68-23.56-20.34-7.92-1.1-16-.83-24-1.17"/><path class="cls-2" d="M387.58,471c-7.84,1.93-15.53,3.9-21.05,10.7-6,7.47-11.57,24.89-5.58,32.82,2.43,3.22,4.49,6.77,7.24,9.67,6.47,6.82,8.38,15.33,9.64,24.13,1.42,9.86,4.36,19.07,11.85,26,4.52,4.21,9.06,8.72,14.39,11.64,8.55,4.7,14.48.91,17.18-5.5A207.5,207.5,0,0,0,430,555.49c2.7-9.76,4.7-19.74,6.73-29.67,2.26-11.14,2.25-22.29-1-33.27-3.49-11.78-11.62-18.68-23.56-20.34-7.92-1.1-16-.83-24-1.17"/><path class="cls-2" d="M750.08,57.34A25.58,25.58,0,0,0,729.7,70.71c-2.26,4-3.57,8.46-5.21,12.75-3.53,9.22-9.37,16.78-19,19.27-17,4.38-29.42,14.49-39.38,28.34-6.83,9.48-16.26,16.17-25,23.61-14.86,12.58-29.88,25.07-41.46,40.94-7.08,9.7-8.08,20.26,0,30.09s17.15,19.32,28.6,25.63c12.66,7,25.51,4.38,36.82-5.6,9-7.94,14.79-18,19-29.14,6.65-17.53,19-29.17,37.34-33.72a30.66,30.66,0,0,1,18.93,1.42c11.75,4.68,23.63,9,35.3,13.89,15.23,6.35,31,8.5,47.1,5.47,12.23-2.3,24.27-5.62,36.37-8.61,11.4-2.81,20.5-9.42,27.54-18.5,5.2-6.71,9.31-14.26,13.94-21.41,8-12.32,5.46-24.31-1.61-35.8-5.61-9.1-11.76-17.88-17.88-26.65-8.26-11.84-21-16.94-33.74-22.08a185.08,185.08,0,0,0-42-11.16,115.9,115.9,0,0,0-13.82-1.05c-13.65-.43-27.3-.71-41-1.06"/><path class="cls-2" d="M750.08,57.34A25.58,25.58,0,0,0,729.7,70.71c-2.26,4-3.57,8.46-5.21,12.75-3.53,9.22-9.37,16.78-19,19.27-17,4.38-29.42,14.49-39.38,28.34-6.83,9.48-16.26,16.17-25,23.61-14.86,12.58-29.88,25.07-41.46,40.94-7.08,9.7-8.08,20.26,0,30.09s17.15,19.32,28.6,25.63c12.66,7,25.51,4.38,36.82-5.6,9-7.94,14.79-18,19-29.14,6.65-17.53,19-29.17,37.34-33.72a30.66,30.66,0,0,1,18.93,1.42c11.75,4.68,23.63,9,35.3,13.89,15.23,6.35,31,8.5,47.1,5.47,12.23-2.3,24.27-5.62,36.37-8.61,11.4-2.81,20.5-9.42,27.54-18.5,5.2-6.71,9.31-14.26,13.94-21.41,8-12.32,5.46-24.31-1.61-35.8-5.61-9.1-11.76-17.88-17.88-26.65-8.26-11.84-21-16.94-33.74-22.08a185.08,185.08,0,0,0-42-11.16,115.9,115.9,0,0,0-13.82-1.05c-13.65-.43-27.3-.71-41-1.06"/><path class="cls-2" d="M669.18,503.81c-8.36,2.56-16.67,5.29-25.09,7.64-16.73,4.68-30.18,14.53-41.33,27.29-9.35,10.7-17.81,22.22-26.18,33.73-9.07,12.49-10.05,26.78-7.16,41.4,2.07,10.46,10,15.91,18.84,20.55a82.43,82.43,0,0,0,46.1,9.63c5-.41,10-2.2,14.84-1.81a34.87,34.87,0,0,1,24.06,12.12,41.79,41.79,0,0,1,4.09,5.62c4.69,7.62,11.28,9.52,19.47,6.62a54.84,54.84,0,0,0,8.69-3.61c9-5.11,10.48-10.86,6.93-20.85-2.78-7.81-7.87-14.8-12-22.1-3-5.18-6.38-10.12-9.15-15.4-6-11.46-2.77-22.86,1.62-33.71a287.63,287.63,0,0,1,19-39.12c6.63-11.16,3.6-19-9.53-24.75-4.82-2.12-10.47-2.65-15.81-3.14-5.58-.51-11.25-.11-16.88-.11"/><path class="cls-2" d="M669.18,503.81c-8.36,2.56-16.67,5.29-25.09,7.64-16.73,4.68-30.18,14.53-41.33,27.29-9.35,10.7-17.81,22.22-26.18,33.73-9.07,12.49-10.05,26.78-7.16,41.4,2.07,10.46,10,15.91,18.84,20.55a82.43,82.43,0,0,0,46.1,9.63c5-.41,10-2.2,14.84-1.81a34.87,34.87,0,0,1,24.06,12.12,41.79,41.79,0,0,1,4.09,5.62c4.69,7.62,11.28,9.52,19.47,6.62a54.84,54.84,0,0,0,8.69-3.61c9-5.11,10.48-10.86,6.93-20.85-2.78-7.81-7.87-14.8-12-22.1-3-5.18-6.38-10.12-9.15-15.4-6-11.46-2.77-22.86,1.62-33.71a287.63,287.63,0,0,1,19-39.12c6.63-11.16,3.6-19-9.53-24.75-4.82-2.12-10.47-2.65-15.81-3.14-5.58-.51-11.25-.11-16.88-.11"/><path class="cls-2" d="M810.5,527.36c-6.43,1.09-11.86,4.3-16.89,8.21-10.45,8.13-21.17,16-31.16,24.65-14.84,12.87-14.68,28.86-5.17,44.95,3.9,6.59,8.31,12.89,12.22,19.49,5.62,9.49,8,20.19,10.8,30.7,3.09,11.44,7.35,22.25,14.71,31.84,4,5.28,7.33,11,8.08,18.31,1,9.77,6.46,13.44,16.62,13.29,4.44-.06,8.87-.72,13.32-1,6.16-.32,10.48-3.55,13.25-8.75,3.35-6.26,7.84-9.82,15.41-9.88,5,0,10.06-1.4,14.82-3,13.63-4.53,27.66-7.88,40.56-14.61a30.29,30.29,0,0,0,13.17-12.47c4-7.38,1.55-18.08-7.07-24.59-7.95-6-17.26-7.87-26.67-8.5-12.11-.81-23.3-3.74-33.83-9.8a91.35,91.35,0,0,0-14.82-6.67c-8.88-3.19-13.84-9.3-15.35-18.5-2.68-16.22-5.45-32.43-8.18-48.64-.69-4.1-1.27-8.21-2.07-12.29C821,533.75,817.71,529,811,527.36"/><path class="cls-2" d="M810.5,527.36c-6.43,1.09-11.86,4.3-16.89,8.21-10.45,8.13-21.17,16-31.16,24.65-14.84,12.87-14.68,28.86-5.17,44.95,3.9,6.59,8.31,12.89,12.22,19.49,5.62,9.49,8,20.19,10.8,30.7,3.09,11.44,7.35,22.25,14.71,31.84,4,5.28,7.33,11,8.08,18.31,1,9.77,6.46,13.44,16.62,13.29,4.44-.06,8.87-.72,13.32-1,6.16-.32,10.48-3.55,13.25-8.75,3.35-6.26,7.84-9.82,15.41-9.88,5,0,10.06-1.4,14.82-3,13.63-4.53,27.66-7.88,40.56-14.61a30.29,30.29,0,0,0,13.17-12.47c4-7.38,1.55-18.08-7.07-24.59-7.95-6-17.26-7.87-26.67-8.5-12.11-.81-23.3-3.74-33.83-9.8a91.35,91.35,0,0,0-14.82-6.67c-8.88-3.19-13.84-9.3-15.35-18.5-2.68-16.22-5.45-32.43-8.18-48.64-.69-4.1-1.27-8.21-2.07-12.29C821,533.75,817.71,529,811,527.36"/><path class="cls-2" d="M285.7,902.66a8.59,8.59,0,0,0-2,1.55c-2,2.82-2.58,5.85.53,8.1,2.57,1.85,3.15-.55,4.11-2.46,2.22-4.42,2.15-5.05-2.11-7.19"/><path class="cls-2" d="M285.7,902.66a8.59,8.59,0,0,0-2,1.55c-2,2.82-2.58,5.85.53,8.1,2.57,1.85,3.15-.55,4.11-2.46,2.22-4.42,2.15-5.05-2.11-7.19"/><path class="cls-2" d="M.05,948.26c2.39,3.41,4.29,7.34,7.26,10.14,8.26,7.79,16.83,15.29,25.54,22.58,10.85,9.08,18.31,13.23,31.65,18.52,8.4,3.33,25.19,6.9,34,9,13.57,3.23,22.54,10.14,36.21,12.94,5.25,1.07,10.68,1.33,15.84,2.68"/><path class="cls-2" d="M.05-75.74C2.44-72.33,4.34-68.4,7.31-65.6,15.57-57.81,24.14-50.31,32.85-43,43.7-33.94,51.16-29.79,64.5-24.5c8.4,3.33,25.19,6.9,34,9C112.07-12.27,121-5.36,134.71-2.56,140-1.49,145.39-1.23,150.55.12"/><path class="cls-2" d="M.05,948.26c2.39,3.41,4.29,7.34,7.26,10.14,8.26,7.79,16.83,15.29,25.54,22.58,10.85,9.08,18.31,13.23,31.65,18.52,8.4,3.33,25.19,6.9,34,9,13.57,3.23,22.54,10.14,36.21,12.94,5.25,1.07,10.68,1.33,15.84,2.68"/><path class="cls-2" d="M303.5.5s3,25-8,36-24,5-33,8-19,0-19,0-25-12-33-26-26-7-33-18"/></svg>