<svg xmlns="http://www.w3.org/2000/svg" viewBox="0 0 295.18 295.33"><title>topo</title><g id="Layer_2" data-name="Layer 2"><g id="Layer_1-2" data-name="Layer 1"><path style="fill:#FFFFFF;" d="M78.12,206.26a12.33,12.33,0,0,1-2.28-.23c-2-.4-4.1-.86-6.08-1.31-1.76-.4-3.52-.79-5.28-1.15a14.12,14.12,0,0,0-2.29-.21c-.55,0-1.1-.05-1.64-.11-1.16-.13-2.32-.28-3.48-.43-2.09-.27-4.25-.55-6.37-.7a57.29,57.29,0,0,0-7.45.13c-1.36.09-2.76.28-4.1.46-.64.09-1.27.18-1.91.25l-.71.1c-.6.08-1.21.16-1.83.19a21.46,21.46,0,0,1-13.56-4.05c-3.92-2.67-8.29-2.85-13.35-.54-1.13.52-2.25,1.11-3.33,1.68-.71.37-1.41.74-2.12,1.09a8.8,8.8,0,0,1-1.17.45l-.5.17a.49.49,0,0,1-.64-.3.5.5,0,0,1,.3-.64l.53-.18a8.2,8.2,0,0,0,1-.39c.71-.36,1.41-.72,2.1-1.09,1.1-.58,2.23-1.17,3.38-1.7,5.41-2.46,10.1-2.26,14.33.62a20.45,20.45,0,0,0,13,3.88c.58,0,1.17-.11,1.74-.19l.73-.09,1.89-.25c1.37-.19,2.78-.38,4.18-.46a58.44,58.44,0,0,1,7.57-.13c2.16.14,4.33.42,6.44.7,1.15.15,2.31.3,3.46.42.52.06,1.05.09,1.57.11a15.49,15.49,0,0,1,2.44.23c1.78.36,3.54.76,5.31,1.15,2,.45,4,.91,6,1.3,3.12.61,5.63-.09,7.47-2a35.13,35.13,0,0,0,2.43-3l.8-1.06.18-.23a18.63,18.63,0,0,1,4.66-4.76c2.1-1.34,4.21-2.78,6.45-4.4a25.09,25.09,0,0,1,9.33-4.06,49.55,49.55,0,0,0,11.83-4.33,34.09,34.09,0,0,1,7.48-2.95,35.43,35.43,0,0,1,5.79-.75c.83-.07,1.67-.13,2.5-.22l1.09-.11c2.26-.2,4.4-.4,6.14-1.75a31.74,31.74,0,0,0,4.36-4.33,12.25,12.25,0,0,1,5.27-3.93c1.09-.35,2.23-.6,3.33-.85l2.13-.51c3.73-1,7.59-.76,12.51.73,1.78.54,3.53,1.23,5.23,1.9a37.8,37.8,0,0,0,9.55,2.82c4,.45,7.1-.27,9.66-2.26a15.45,15.45,0,0,0,4.67-6.59c.48-1.14.86-2.36,1.23-3.53.23-.73.46-1.46.71-2.17,1.17-3.34.58-6.43-1.84-9.72-3.85-5.23-8.44-8.4-14-9.68l-.19,0a42.38,42.38,0,0,1-5.31-1.48,5.2,5.2,0,0,1-3.68-4.52c-.11-1.81.85-3.3,2.85-4.45a1.36,1.36,0,0,0,.25-.2,2.3,2.3,0,0,1,.54-.4c1.1-.5,2.2-1,3.3-1.55,4.17-2,8.49-4.1,13.34-4.7,1.2-.15,2.43-.35,3.61-.54,1.77-.3,3.59-.6,5.4-.73a46.33,46.33,0,0,1,14.3,1.28c4.3,1,8.2,1.87,12.23,1.65a17.62,17.62,0,0,0,6-1.34c2.47-1,3.5-3.4,2.69-6.16-.73-2.49-2.59-4.13-4.44-5.61-2.66-2.12-3.79-4.46-3.56-7.38.1-1.13.18-2.27.26-3.41.17-2.51.36-5.1.67-7.65s.79-5.21,2.89-7.37c.41-.41.8-.83,1.19-1.25s1-1,1.48-1.54c2.94-3,3.76-6,2.48-9.32a33.18,33.18,0,0,0-3.63-7c-2.17-3.15-5.25-5.31-8.76-7.62l-.71-.46c-6.92-4.55-14.07-9.26-20.45-14.84-3.89-3.4-7.5-6.53-11-9.56l-.85-.74a27.93,27.93,0,0,0-3.67-2.87c-2.81-1.73-5.23-2.06-7.63-1.05a11.43,11.43,0,0,0-3.94,3.13c-3.94,4.39-5.06,9-3.42,14,.42,1.29.87,2.58,1.31,3.87.7,2,1.42,4.09,2,6.16.75,2.47,1.51,5,.33,7.72a3.55,3.55,0,0,1-2.12,2.28,3.24,3.24,0,0,1-2.77-.78,15.07,15.07,0,0,1-2.88-2.6,43,43,0,0,0-8.78-8.1c-2.49-1.77-3.32-3.71-2.71-6.31A20.74,20.74,0,0,1,166,36.27a20.38,20.38,0,0,0,4.47-6.62,33.36,33.36,0,0,1,1.81-4.19c.7-1.31,1.46-2.63,2.2-3.9,1.09-1.89,2.22-3.84,3.19-5.83,2-4.16,5-7.7,7.82-11.12,1.15-1.38,2.35-2.82,3.46-4.27a.5.5,0,1,1,.79.61c-1.12,1.47-2.32,2.91-3.48,4.3-2.81,3.38-5.71,6.86-7.7,10.92-1,2-2.12,4-3.22,5.89-.73,1.27-1.48,2.57-2.18,3.88a31.36,31.36,0,0,0-1.75,4,21.93,21.93,0,0,1-4.66,7c-2.46,2.71-3.5,6.09-4.2,9-.52,2.2.15,3.72,2.32,5.26a44.46,44.46,0,0,1,9,8.29A14.45,14.45,0,0,0,176.55,62a2.43,2.43,0,0,0,1.91.63c.55-.15,1-.73,1.47-1.72,1-2.38.36-4.63-.36-7-.62-2.07-1.34-4.14-2-6.14-.45-1.3-.9-2.59-1.32-3.89-1.76-5.36-.57-10.25,3.63-14.93a12.12,12.12,0,0,1,4.3-3.38c2.72-1.15,5.43-.79,8.54,1.12a28.94,28.94,0,0,1,3.8,3l.84.73c3.55,3,7.16,6.16,11.06,9.57,6.32,5.53,13.45,10.22,20.34,14.75l.71.47c3.6,2.36,6.76,4.59,9,7.89a34.84,34.84,0,0,1,3.73,7.16c1.42,3.66.5,7.16-2.71,10.38-.49.5-1,1-1.45,1.53s-.79.85-1.2,1.26c-1.89,1.94-2.34,4.52-2.62,6.79-.31,2.52-.49,5.11-.67,7.61-.08,1.14-.16,2.28-.25,3.42-.21,2.55.8,4.62,3.18,6.51,2,1.57,4,3.34,4.78,6.11.95,3.24-.33,6.13-3.26,7.37a18.84,18.84,0,0,1-6.35,1.41c-4.17.23-8.13-.62-12.51-1.68a45.58,45.58,0,0,0-14-1.25c-1.77.13-3.57.43-5.31.71-1.2.2-2.43.4-3.66.56-4.68.57-8.93,2.62-13,4.6-1.1.53-2.2,1.06-3.32,1.56a2,2,0,0,0-.27.22,2.58,2.58,0,0,1-.43.34c-1.67.95-2.44,2.1-2.35,3.51a4.29,4.29,0,0,0,3,3.66,41.92,41.92,0,0,0,5.19,1.43l.19.05c5.81,1.34,10.58,4.63,14.59,10.06,2.6,3.53,3.24,7,2,10.64-.24.7-.47,1.42-.69,2.14-.38,1.19-.77,2.43-1.26,3.62a16.45,16.45,0,0,1-5,7c-2.77,2.16-6.07,2.94-10.38,2.46a38,38,0,0,1-9.8-2.88c-1.68-.66-3.42-1.34-5.17-1.87-4.72-1.44-8.41-1.66-12-.73-.71.19-1.44.36-2.16.52-1.08.25-2.2.5-3.25.83a11.16,11.16,0,0,0-4.82,3.65,33.16,33.16,0,0,1-4.5,4.46c-2,1.52-4.35,1.74-6.66,2l-1.07.11c-.84.09-1.69.15-2.54.21a36.61,36.61,0,0,0-5.63.74,32.69,32.69,0,0,0-7.25,2.86,51.13,51.13,0,0,1-12.07,4.42,24.13,24.13,0,0,0-9,3.89c-2.26,1.63-4.39,3.08-6.51,4.43a17.9,17.9,0,0,0-4.4,4.53l-.18.23-.79,1.05a36.32,36.32,0,0,1-2.5,3.09A8,8,0,0,1,78.12,206.26Z"/><path style="fill:#FFFFFF;" d="M29.67,294.93a.23.23,0,0,1-.2-.1l-.23-.31a46.49,46.49,0,0,1-6.12-9.76c-.47-1.13-.89-2.29-1.3-3.42s-.88-2.45-1.39-3.64c-.78-1.85-1.63-3.71-2.46-5.5-.6-1.31-1.2-2.62-1.78-3.94a4.11,4.11,0,0,1,1.72-5.74c.9-.58,1.85-1.11,2.77-1.63,1.23-.7,2.5-1.42,3.67-2.24A20.91,20.91,0,0,0,31,250.84a32.84,32.84,0,0,1,3.39-5.06c2.62-3.39,6.53-4.41,10-5l2.84-.47c2.11-.36,4.29-.73,6.46-1a16.23,16.23,0,0,1,8.51,1.33c.85.38,1.68.82,2.48,1.24,1,.53,2.06,1.08,3.13,1.52,3,1.2,6.37,1.37,10.44.54,5.52-1.13,11.25-2.53,17.51-4.27a40.46,40.46,0,0,0,6.06-2.41l1.72-.78a15.13,15.13,0,0,1,5.25-1.36c2.91-.19,3.7,1.65,4.09,3.47.09.43.16.86.23,1.29a15.5,15.5,0,0,0,.52,2.36,8.32,8.32,0,0,0,7.15,5.82,4.31,4.31,0,0,0,3.61-1.34c.49-.49,1-1,1.46-1.48,1-1,2-2,3-2.94a10.67,10.67,0,0,1,7.38-3c1.32,0,2.67-.08,4-.13,1.55-.07,3.15-.13,4.72-.14a35.41,35.41,0,0,1,17.38,4.1,14.88,14.88,0,0,0,7.37,2.1,13.87,13.87,0,0,0,5.94-1.48c1-.47,2-1,3-1.46a57.1,57.1,0,0,1,7.1-3.17,35,35,0,0,1,7.12-1.34l1.74-.22c3.34-.43,6.8-.88,9.59-3.2a9.92,9.92,0,0,0,3.79-8.93c-.29-3.59-2.14-6.23-4.11-8.54l-.95-1.11a29.84,29.84,0,0,1-5-7.05,18.24,18.24,0,0,1-1.77-7.47l0-1.79c-.05-3.38-.1-6.87,0-10.3.16-3.77-1.26-5.86-4.89-7.24a77.87,77.87,0,0,0-14.82-3.7l-.44-.07c-1.25-.2-2.54-.42-3.81-.5-3.81-.25-7.11,1.22-10.7,4.78l-1,1a22.33,22.33,0,0,1-6.28,5,13.52,13.52,0,0,1-5.24,1.46,94.46,94.46,0,0,1-12.4-.57,32,32,0,0,0-15.37,1.93c-2.24.83-4.59,1.45-6.87,2.06l-.66.17c-4.78,1.27-8.2,3.6-10.45,7.13-3.13,4.9-7.58,8.36-11.12,10.83a27.78,27.78,0,0,1-8.76,4.5,16.41,16.41,0,0,1-9.28-.37c-1.4-.42-2.8-.9-4.16-1.37a64.63,64.63,0,0,0-6.3-1.94c-3.63-.85-7.39-1.46-11-2.06l-3-.49c-4.41-.74-8.81-.11-12.59.54-1.85.32-3.75.49-5.6.64-1,.09-2.07.18-3.1.29l-1.52.17c-2.74.3-5.57.62-8.34,1a86.74,86.74,0,0,1-15.51.86,14.69,14.69,0,0,1-1.64-.18L.47,213a.25.25,0,0,1,.06-.5l.75.11c.52.07,1.06.15,1.59.17A85.74,85.74,0,0,0,18.29,212c2.78-.41,5.62-.72,8.36-1l1.52-.17c1-.12,2.07-.21,3.11-.3,1.83-.15,3.73-.31,5.56-.63,3.82-.66,8.27-1.3,12.75-.54l2.95.49c3.64.6,7.41,1.21,11.05,2.07a64,64,0,0,1,6.35,1.95c1.36.46,2.76.95,4.15,1.36a16,16,0,0,0,9,.37,27.82,27.82,0,0,0,8.61-4.43c3.49-2.45,7.9-5.87,11-10.69,2.32-3.63,5.84-6,10.74-7.34l.66-.18c2.27-.6,4.61-1.22,6.82-2a32.44,32.44,0,0,1,15.61-2,93.44,93.44,0,0,0,12.33.57,13.06,13.06,0,0,0,5-1.42,21.83,21.83,0,0,0,6.13-4.9c.35-.35.69-.7,1-1,2.29-2.28,5.94-5.26,11.08-4.92,1.3.09,2.6.3,3.86.51l.44.07a78.49,78.49,0,0,1,14.92,3.72c3.82,1.45,5.38,3.76,5.21,7.73-.14,3.42-.09,6.9,0,10.27l0,1.79a17.83,17.83,0,0,0,1.72,7.28,29.86,29.86,0,0,0,4.92,6.92l.95,1.11c2,2.38,3.93,5.09,4.23,8.83a10.41,10.41,0,0,1-4,9.35c-2.9,2.42-6.43,2.88-9.84,3.32-.58.08-1.17.14-1.75.21a35,35,0,0,0-7,1.32,58.22,58.22,0,0,0-7,3.15c-1,.49-2,1-3,1.46a14.37,14.37,0,0,1-6.14,1.53,15.52,15.52,0,0,1-7.62-2.15,34.74,34.74,0,0,0-17.13-4.05c-1.57,0-3.17.07-4.71.14-1.3.05-2.65.1-4,.13a10.18,10.18,0,0,0-7,2.89c-1,1-2,2-3,2.94l-1.47,1.47a4.74,4.74,0,0,1-4,1.49,8.91,8.91,0,0,1-7.55-6.16,14.79,14.79,0,0,1-.54-2.44c-.07-.42-.14-.85-.23-1.26-.49-2.32-1.53-3.22-3.57-3.08a14.66,14.66,0,0,0-5.08,1.32l-1.71.78a40.63,40.63,0,0,1-6.14,2.43c-6.27,1.75-12,3.14-17.54,4.28-4.17.85-7.68.67-10.73-.57-1.09-.45-2.15-1-3.17-1.54-.8-.42-1.62-.85-2.45-1.22a15.71,15.71,0,0,0-8.26-1.29c-2.15.23-4.33.61-6.43,1-1,.17-1.89.33-2.84.48-3.55.56-7.18,1.53-9.7,4.78a32.79,32.79,0,0,0-3.34,5,21.7,21.7,0,0,1-6.77,8c-1.18.83-2.46,1.56-3.7,2.26-.92.52-1.86,1.05-2.75,1.62-2.05,1.31-2.52,2.89-1.53,5.12.58,1.32,1.18,2.62,1.78,3.93.82,1.8,1.68,3.66,2.46,5.52.51,1.2,1,2.45,1.4,3.66s.83,2.28,1.29,3.39a45.26,45.26,0,0,0,6.06,9.66l.23.31a.25.25,0,0,1-.05.35A.23.23,0,0,1,29.67,294.93Z"/><path style="fill:#FFFFFF;" d="M.65,259.73a.26.26,0,0,1-.24-.18.25.25,0,0,1,.16-.31l1.24-.44a20.24,20.24,0,0,1,2.77-.87c1.77-.36,3.59-.69,5.34-1,2.36-.43,4.79-.87,7.16-1.41a15,15,0,0,0,9-5.77c.73-1,1.43-2,2.12-3,.88-1.26,1.8-2.57,2.77-3.81,2.84-3.61,6.83-5.86,12.22-6.88l3.67-.67c1.94-.35,3.94-.71,5.89-1.11a15.82,15.82,0,0,1,8.68.63c2.15.78,4.42,1.7,6.94,2.8a15.89,15.89,0,0,0,10.44,1c3.57-.88,8.27-2.11,12.94-3.69,3.18-1.08,5.9-3.19,8.53-5.24l.38-.29a53.93,53.93,0,0,0,5.42-4.7c2-2,2.62-4.69,3-7.06.58-3.63,2.68-5.91,6.41-7l1.6-.48a31.49,31.49,0,0,1,5.07-1.23,14,14,0,0,1,4.93.55,22.82,22.82,0,0,0,9.78.11,2.25,2.25,0,0,1,1.85.41,2.71,2.71,0,0,1,.95,2,25.44,25.44,0,0,1-1,7.46l0,.13c-.56,2.41-1,4.83-1.32,7.2-.41,3.06,1.69,5.72,5.09,6.46,2.5.55,5.07.89,7.49,1.19a26.9,26.9,0,0,1,7.72,2.27c1.83.82,3.75,1.8,6.06,3.09,4.08,2.28,8.34,2.28,13,0a52.93,52.93,0,0,1,11.84-4.59c1.05-.23,2.13-.42,3.17-.6,1.28-.23,2.6-.46,3.89-.76,2.36-.56,5-1.37,6.62-3.85,1.44-2.23,1.58-4.59.45-7.44a24.91,24.91,0,0,0-3.66-5.81c-.55-.72-1.12-1.47-1.65-2.23a23.92,23.92,0,0,1-4.31-11c-.17-1.38-.35-2.75-.54-4.12-.21-1.6-.44-3.25-.63-4.87-.52-4.43-3-7.61-7.39-9.48s-8.28-2.2-12-1.07a22.43,22.43,0,0,0-7.27,4c-2.39,1.84-4.55,3.57-6.62,5.29-3.82,3.19-8.36,5.15-12.75,7.05l-.56.24a6.18,6.18,0,0,1-6.3-.34c-3.46-2.2-7.24-1.91-11.47-1.35a58.87,58.87,0,0,1-9.16.45c-4.88-.12-7.91.84-9.92,6.22-.14.35-.24.72-.35,1.08a12.65,12.65,0,0,1-.41,1.28c-.73,1.84-2.14,3.07-4.54,4a90.19,90.19,0,0,0-9.67,4.59l-3.17,1.64a37.89,37.89,0,0,1-8.72,3c-3.93.91-7.73-.37-10.6-1.59-7.12-3-14.57-4.66-21.6-6.05a32.88,32.88,0,0,0-12.15.32c-2.17.38-4.38.72-6.52,1s-4.4.68-6.58,1.06c-1.28.22-2.57.51-3.81.79-1.79.4-3.65.82-5.5,1.05a40.53,40.53,0,0,1-7.55,0c-1.58-.11-3.18-.39-4.72-.65l-2.08-.35a.25.25,0,0,1-.21-.28.25.25,0,0,1,.29-.21l2.09.35c1.53.26,3.11.53,4.67.64a39.46,39.46,0,0,0,7.45,0c1.83-.23,3.67-.64,5.45-1,1.25-.28,2.54-.57,3.83-.79,2.19-.39,4.43-.73,6.59-1.06s4.35-.66,6.52-1a33.19,33.19,0,0,1,12.33-.32c7.05,1.4,14.54,3,21.7,6.08,2.8,1.19,6.5,2.44,10.28,1.56a37.27,37.27,0,0,0,8.61-2.93l3.17-1.64a91.26,91.26,0,0,1,9.72-4.62c2.26-.87,3.58-2,4.26-3.71a10.34,10.34,0,0,0,.39-1.23c.11-.37.22-.75.36-1.12,2.11-5.66,5.28-6.66,10.4-6.54a59,59,0,0,0,9.08-.44c4.33-.58,8.2-.87,11.81,1.42a5.73,5.73,0,0,0,5.83.3l.56-.24c4.36-1.89,8.87-3.83,12.63-7,2.07-1.73,4.24-3.46,6.63-5.31a23.13,23.13,0,0,1,7.44-4c3.88-1.16,7.93-.8,12.38,1.09s7.15,5.26,7.69,9.88c.19,1.62.41,3.27.63,4.86.18,1.37.37,2.75.54,4.12a23.45,23.45,0,0,0,4.22,10.8c.52.75,1.09,1.49,1.64,2.2a25.44,25.44,0,0,1,3.72,5.94,8.15,8.15,0,0,1-.49,7.89c-1.7,2.64-4.47,3.48-6.93,4.06-1.3.31-2.63.55-3.92.77-1,.18-2.1.37-3.15.6A52.42,52.42,0,0,0,177,240.41c-4.86,2.36-9.27,2.36-13.5,0-2.3-1.28-4.21-2.26-6-3.08a26.47,26.47,0,0,0-7.57-2.22c-2.44-.31-5-.65-7.53-1.2-3.62-.79-5.92-3.74-5.49-7,.32-2.39.77-4.82,1.34-7.24l0-.13a25.16,25.16,0,0,0,1-7.32,2.22,2.22,0,0,0-.76-1.67,1.81,1.81,0,0,0-1.46-.31,23.44,23.44,0,0,1-10-.11,13.05,13.05,0,0,0-4.75-.54,30.64,30.64,0,0,0-5,1.21l-1.62.48c-3.52,1-5.5,3.14-6.05,6.56-.37,2.31-1.06,5.22-3.15,7.33A53.58,53.58,0,0,1,101,229.9l-.38.29c-2.67,2.07-5.42,4.2-8.68,5.31-4.69,1.59-9.4,2.82-13,3.71a16.45,16.45,0,0,1-10.76-1c-2.51-1.1-4.78-2-6.91-2.79a15.32,15.32,0,0,0-8.41-.61c-2,.4-4,.76-5.9,1.11-1.22.22-2.45.44-3.67.68-5.26,1-9.16,3.18-11.91,6.69-1,1.23-1.88,2.53-2.76,3.79-.69,1-1.4,2-2.13,3a15.55,15.55,0,0,1-9.28,6c-2.38.54-4.82,1-7.18,1.41-1.75.32-3.56.65-5.33,1a20.06,20.06,0,0,0-2.7.84c-.41.16-.83.31-1.25.45Z"/><path style="fill:#FFFFFF;" d="M279.51,294.93a.24.24,0,0,1-.24-.19l-.31-1.2c-.29-1.12-.59-2.24-.87-3.36-.77-3-3.1-4.93-5.23-6.47a62.21,62.21,0,0,0-14.2-7.39,20.52,20.52,0,0,1-9.45-7.39,46.88,46.88,0,0,1-6.92-14.39,16.37,16.37,0,0,1,2.44-14.33,100.85,100.85,0,0,1,6.35-8l.86-1c1.61-1.9,3.39-3.69,5.12-5.43a9.72,9.72,0,0,0,2.57-9.67c-1.25-5.33-2.74-11-4.55-17.38-1-3.52-3.43-6.39-7.23-8.52-2.86-1.61-6.27-.7-8.49,2.27-1.29,1.74-2.46,3.55-3.82,5.73l-.47.75c-1.42,2.31-2.9,4.7-5.21,6.37-3.32,2.4-6.32,2-8.9-1.19a29.88,29.88,0,0,1-3.39-5.69c-.34-.68-.68-1.36-1-2l-.17-.32c-1.2-2.25-2.33-4.37-4.33-6a7,7,0,0,0-5.62-1.72A6.73,6.73,0,0,0,202,192c-3.06,5.41-2.94,13.94,2.56,18.85a72,72,0,0,1,5.62,5.75c2.76,3.08,3.59,7.05,2.54,12.13A15.49,15.49,0,0,1,199.25,241l-.93.12a14.21,14.21,0,0,1-2.35.16,28.73,28.73,0,0,0-17.4,5,20.72,20.72,0,0,1-5.67,2.66,14.52,14.52,0,0,1-9.43-.81c-2.74-1.08-5.84-2.31-9-3.2a16.61,16.61,0,0,0-7.84-.38c-1.19.24-2.43.35-3.62.47-.94.08-1.91.17-2.86.32-3.31.53-6.17,2.36-9,5.78a32.42,32.42,0,0,1-3.25,3.27c-2.53,2.29-5.68,2.78-9.36,1.48s-7.39-2.24-11-3.17l-3.1-.8a24.05,24.05,0,0,1-4.28-1.75L99,249.53a15.19,15.19,0,0,0-6.09-1.44A85.55,85.55,0,0,0,78,249.24c-1.11.17-2.24.24-3.33.31s-2.31.15-3.44.33c-4.85.77-9.16-1-13-2.66a11.87,11.87,0,0,0-4.16-.86,54.24,54.24,0,0,0-9.84.48c-3.15.52-5.43,2.18-7.63,5.55l-.62,1c-1.61,2.47-3.26,5-5,7.44-.76,1.06-1.59,2.08-2.4,3.07s-1.76,2.16-2.56,3.3a10.15,10.15,0,0,0-1.45,7.61A29.75,29.75,0,0,0,26.89,283c1.79,3.88,4.73,6.61,7.84,9.5l2.18,2a.24.24,0,0,1,0,.35.25.25,0,0,1-.35,0l-2.19-2c-3-2.8-6.11-5.69-7.94-9.66a30,30,0,0,1-2.31-8.35,10.58,10.58,0,0,1,1.53-8c.81-1.16,1.71-2.26,2.58-3.33s1.64-2,2.38-3.05c1.73-2.42,3.39-5,5-7.42l.62-.95c1.51-2.33,3.79-5.09,8-5.77a54.44,54.44,0,0,1,9.93-.49,12.4,12.4,0,0,1,4.34.9c3.75,1.58,8,3.37,12.71,2.63,1.15-.19,2.33-.26,3.47-.34s2.21-.14,3.29-.3a85.5,85.5,0,0,1,14.93-1.16,15.8,15.8,0,0,1,6.29,1.48l1.23.59a23.38,23.38,0,0,0,4.19,1.72l3.09.79c3.66.94,7.44,1.9,11.08,3.19,3.49,1.23,6.47.77,8.85-1.38a32.54,32.54,0,0,0,3.21-3.22c2.91-3.51,5.87-5.4,9.31-5.95.95-.15,1.93-.24,2.88-.33,1.18-.11,2.41-.23,3.58-.46a17,17,0,0,1,8.06.39c3.15.89,6.27,2.13,9,3.21a14,14,0,0,0,9.11.8,20,20,0,0,0,5.52-2.6,29.29,29.29,0,0,1,17.71-5,13.1,13.1,0,0,0,2.25-.16l.95-.11a15,15,0,0,0,13-11.89c1-4.91.22-8.74-2.42-11.7a69.54,69.54,0,0,0-5.59-5.71c-5.68-5.07-5.81-13.88-2.65-19.47a7.23,7.23,0,0,1,4.78-3.83,7.45,7.45,0,0,1,6,1.82,18.17,18.17,0,0,1,4.46,6.1l.17.32c.36.68.7,1.36,1,2a29.49,29.49,0,0,0,3.32,5.6c2.43,3,5.12,3.35,8.23,1.11,2.23-1.62,3.68-4,5.08-6.23l.47-.76c1.36-2.18,2.54-4,3.84-5.75,2.37-3.19,6-4.16,9.13-2.42,3.92,2.2,6.43,5.17,7.47,8.83,1.81,6.37,3.3,12.06,4.56,17.39a10.18,10.18,0,0,1-2.67,10.1c-1.76,1.77-3.53,3.56-5.13,5.45l-.86,1a99.87,99.87,0,0,0-6.32,8,15.9,15.9,0,0,0-2.37,13.9,46.15,46.15,0,0,0,6.85,14.24,20,20,0,0,0,9.22,7.21,62.87,62.87,0,0,1,14.32,7.46c2.19,1.58,4.6,3.54,5.42,6.75.28,1.11.57,2.23.86,3.35l.31,1.21a.24.24,0,0,1-.18.3Z"/><path style="fill:#FFFFFF;" d="M198.34,295.33a.48.48,0,0,1-.2,0,.51.51,0,0,1-.26-.66,17.28,17.28,0,0,1,4.72-5.9c2.07-1.8,4.24-3.55,6.33-5.25l3.53-2.88c3.7-3.07,8.08-4.86,13.8-5.62l.36-.05c2.86-.38,5.81-.77,8.26-2.47a8.38,8.38,0,0,0,3.65-7,43.37,43.37,0,0,0-.5-7.58c-.14-1.09-.27-2.17-.37-3.25a25.92,25.92,0,0,1,2.65-14.12A72.63,72.63,0,0,1,249.49,227a33.36,33.36,0,0,0,3.75-5.52c1.71-3.23,1-6.75.24-9.46a45.8,45.8,0,0,0-3.36-8.29,8.77,8.77,0,0,0-3.17-3.3c-2.21-1.33-4.22.1-5.22,1.06-1.42,1.37-2.76,2.88-4.06,4.33l-1.1,1.23c-3.23,3.58-6,6.47-9.73,8.47-4.62,2.46-7.62,6.52-9.14,12.38-1.16,4.46-2.51,8-5.31,11-2.52,2.65-6.52,6.25-12.07,7a19.44,19.44,0,0,1-4.51-.11l-1.34-.14A18.52,18.52,0,0,0,181,249.54a17.77,17.77,0,0,1-6.82,3.77,19.15,19.15,0,0,1-10.12-.59c-1-.33-2-.73-3-1.11a28.91,28.91,0,0,0-4.9-1.6c-7.9-1.54-14.21.57-18.78,6.26-3.18,4-6.86,6.18-11.25,6.76a20.21,20.21,0,0,1-8.16-1l-.34-.1a27.33,27.33,0,0,0-5.45-1.17,15.48,15.48,0,0,0-7.27,1.65l-.69.3a27.69,27.69,0,0,1-6,2.17,6.18,6.18,0,0,1-5.89-2,16.89,16.89,0,0,1-2.08-2.7l-.2-.3a9.76,9.76,0,0,0-7-4.26c-3.5-.57-6.93.15-10.24.84-.7.15-1.4.3-2.1.43l-1.5.3A25.78,25.78,0,0,1,61,258a47.43,47.43,0,0,1-8.34-1.77c-5.17-1.56-9-.87-12.37,2.26a45.85,45.85,0,0,0-7.23,8.35,30.47,30.47,0,0,0-2.89,5.5c-1.39,3.49-.92,7,1.4,10.57,2,3,4.78,5.14,8.88,6.77,2.58,1,5.27.91,8.46-.37,5.19-2.1,9.15-6,12.66-10a19.21,19.21,0,0,1,11.33-6.61,5,5,0,0,1,3.25.51,86.53,86.53,0,0,1,8.6,5.77c3.78,3,5,7.38,6.09,11.65l.13.51a21.83,21.83,0,0,1,.46,2.47c0,.37.1.74.16,1.11a.49.49,0,0,1-.41.57.5.5,0,0,1-.58-.41c-.06-.37-.11-.75-.16-1.13a21.27,21.27,0,0,0-.43-2.35l-.14-.51c-1.09-4.11-2.22-8.36-5.74-11.12a86.89,86.89,0,0,0-8.5-5.71,4.1,4.1,0,0,0-2.56-.38A18,18,0,0,0,62.32,280c-3.59,4-7.66,8.06-13,10.24-3.39,1.36-6.41,1.49-9.2.37-4.3-1.71-7.28-4-9.35-7.15-2.51-3.82-3-7.68-1.49-11.49a31.19,31.19,0,0,1,3-5.68,46.72,46.72,0,0,1,7.38-8.54c3.63-3.34,7.87-4.13,13.34-2.48A46.53,46.53,0,0,0,61.11,257a25,25,0,0,0,7.77-.78l1.51-.3c.69-.13,1.39-.28,2.08-.43,3.4-.71,6.93-1.45,10.62-.85a10.72,10.72,0,0,1,7.7,4.69l.2.31a16.43,16.43,0,0,0,2,2.54,5.21,5.21,0,0,0,5,1.71,26.41,26.41,0,0,0,5.81-2.09l.69-.3a16.34,16.34,0,0,1,7.75-1.74,28.12,28.12,0,0,1,5.66,1.21l.34.1a19.23,19.23,0,0,0,7.75.95c4.12-.54,7.59-2.63,10.6-6.39,4.82-6,11.46-8.23,19.75-6.61a29.45,29.45,0,0,1,5.07,1.65c1,.38,2,.77,3,1.08a18,18,0,0,0,9.6.57,16.75,16.75,0,0,0,6.42-3.57,19.4,19.4,0,0,1,14.21-4.08l1.36.13a18,18,0,0,0,4.27.12c4-.57,7.59-2.64,11.49-6.73,2.65-2.78,3.94-6.21,5.06-10.52,1.6-6.15,4.75-10.41,9.64-13,3.59-1.91,6.3-4.75,9.46-8.25l1.09-1.22c1.31-1.47,2.67-3,4.11-4.38,2.06-2,4.4-2.43,6.43-1.21a9.77,9.77,0,0,1,3.55,3.71,46.38,46.38,0,0,1,3.43,8.46c.84,2.89,1.56,6.66-.31,10.2a34.43,34.43,0,0,1-3.87,5.69,72.16,72.16,0,0,0-9,13.33,25,25,0,0,0-2.56,13.57c.1,1.08.24,2.15.37,3.22a45.25,45.25,0,0,1,.51,7.76,9.36,9.36,0,0,1-4.08,7.75c-2.64,1.83-5.72,2.23-8.7,2.63l-.36.05c-5.52.74-9.74,2.45-13.3,5.4q-1.76,1.45-3.53,2.89c-2.09,1.69-4.24,3.44-6.3,5.23A16,16,0,0,0,198.8,295,.5.5,0,0,1,198.34,295.33Z"/><path style="fill:#FFFFFF;" d="M79.66,211.69c-.41,0-.83,0-1.26-.05A27.91,27.91,0,0,1,72,210.08a37.28,37.28,0,0,0-4.71-1.32c-2.49-.45-5-.86-7.49-1.25l-2.37-.38c-2.47-.39-4.54-.72-6.63-1a33.32,33.32,0,0,0-9.36,0c-2.46.32-5.09.64-8.54,1l-.73.08a15,15,0,0,1-3,.19c-1.46-.1-2.94-.25-4.37-.4-1.61-.16-3.27-.34-4.91-.43a30.31,30.31,0,0,0-9.66.94A30.35,30.35,0,0,1,.48,208.9a.25.25,0,0,1-.23-.26.26.26,0,0,1,.27-.24A30,30,0,0,0,10.14,207a30.43,30.43,0,0,1,9.82-1c1.65.1,3.32.27,4.93.43,1.43.15,2.9.3,4.35.4a15.81,15.81,0,0,0,2.91-.18l.73-.09c3.45-.39,6.08-.71,8.54-1a34.32,34.32,0,0,1,9.5,0c2.32.34,4.64.71,6.63,1l2.36.38c2.47.39,5,.8,7.51,1.25a35.88,35.88,0,0,1,4.78,1.34,27.78,27.78,0,0,0,6.24,1.53,11.09,11.09,0,0,0,6.89-1.45,35.41,35.41,0,0,0,6.3-5.08c2-2,4-4.09,5.85-6.12,1.23-1.32,2.49-2.68,3.76-4a15.9,15.9,0,0,1,5.83-3.75c1.55-.6,3.15-1.15,4.69-1.69a68.17,68.17,0,0,0,9.88-4,18.28,18.28,0,0,1,9.54-2.28l1.93.11c1.24.08,2.53.15,3.8.16,2.25,0,4.58-.1,6.9-.29a11.47,11.47,0,0,0,7.5-3.3c.69-.7,1.36-1.43,2-2.14.88-1,1.78-1.94,2.73-2.85a12.87,12.87,0,0,1,11.08-3.67,47.51,47.51,0,0,1,7,1.77c1.19.37,2.43.75,3.65,1.08l.5.13c4,1,8.15,2.14,12.39,1.91s7.1-1.74,8.77-4.72l1-1.76c1.25-2.21,2.54-4.48,3.7-6.78,2.46-4.89,6.1-7.48,11.12-7.93a10.21,10.21,0,0,0,8.67-5.89,27.67,27.67,0,0,0,2.36-8.19c.13-.69.25-1.38.39-2.07.68-3.45,1.93-5.73,4-7.39a21.14,21.14,0,0,1,7.91-3.58c.7-.18,1.4-.34,2.1-.51a27.12,27.12,0,0,0,8-2.81c2-1.21,3-2.88,2.65-4.46a15.69,15.69,0,0,0-1.15-3.33,64.32,64.32,0,0,0-8.8-13.51,13.11,13.11,0,0,1,1.19-17.3c.9-.83,1.74-1.77,2.55-2.67.51-.57,1-1.16,1.59-1.72,3-3.11,4-7,3.3-12.76-.26-2.07-.39-4.44,1.41-6.39.46-.5,1-1,1.44-1.46a25.3,25.3,0,0,0,2.34-2.52c2-2.62,3.9-5.39,5.74-8.07l.31-.45a19.72,19.72,0,0,1,5.84-5.8c1-.62,2.07-1.19,3.09-1.75,1.37-.75,2.78-1.53,4.09-2.41,4.79-3.21,8.78-7.48,12.63-11.61l.56-.6a11.15,11.15,0,0,0,2.72-8.31,25.11,25.11,0,0,0-1.15-6.12c-.88-2.9-1.89-5.83-2.86-8.65C285.83,3,285.42,1.77,285,.58a.25.25,0,0,1,.15-.32.25.25,0,0,1,.32.16c.4,1.19.81,2.38,1.22,3.57,1,2.84,2,5.76,2.87,8.68a25.53,25.53,0,0,1,1.17,6.23,11.64,11.64,0,0,1-2.85,8.69l-.56.59c-3.88,4.15-7.89,8.44-12.72,11.68-1.33.9-2.75,1.68-4.13,2.44-1,.55-2.07,1.13-3.07,1.74a19.18,19.18,0,0,0-5.69,5.65l-.31.46c-1.84,2.68-3.75,5.45-5.75,8.08a25.44,25.44,0,0,1-2.39,2.58c-.47.46-1,.95-1.42,1.44-1.49,1.61-1.59,3.56-1.28,6,.5,4,.57,9-3.44,13.18-.54.55-1.07,1.14-1.58,1.71-.82.91-1.66,1.85-2.58,2.69a12.6,12.6,0,0,0-1.14,16.63A64.94,64.94,0,0,1,250.7,116a17,17,0,0,1,1.19,3.44c.38,1.8-.69,3.67-2.88,5a27.93,27.93,0,0,1-8.15,2.87l-2.1.51a20.39,20.39,0,0,0-7.72,3.49c-2,1.57-3.22,3.76-3.87,7.08-.14.69-.26,1.38-.39,2.06a28.33,28.33,0,0,1-2.4,8.34A10.69,10.69,0,0,1,215.3,155c-4.83.43-8.34,2.93-10.72,7.66-1.16,2.3-2.45,4.58-3.7,6.79-.34.59-.67,1.18-1,1.77-1.76,3.14-4.68,4.71-9.19,5-4.31.24-8.49-.86-12.53-1.93l-.5-.13c-1.24-.33-2.48-.71-3.68-1.08a48.39,48.39,0,0,0-6.92-1.76,12.41,12.41,0,0,0-10.66,3.54c-.94.9-1.84,1.88-2.71,2.83-.65.71-1.33,1.45-2,2.15a11.92,11.92,0,0,1-7.81,3.45c-2.34.19-4.67.29-6.94.29-1.28,0-2.58-.08-3.84-.16l-1.92-.11a17.8,17.8,0,0,0-9.27,2.22,70.63,70.63,0,0,1-9.95,4c-1.54.53-3.14,1.08-4.68,1.68a15.45,15.45,0,0,0-5.65,3.62c-1.26,1.31-2.53,2.67-3.75,4C96,200.87,94,203,92,205a35.6,35.6,0,0,1-6.39,5.15A11.18,11.18,0,0,1,79.66,211.69Z"/><path style="fill:#FFFFFF;" d="M41.87,171.29A16.46,16.46,0,0,1,31,167c-4.46-3.81-6.88-7.38-7.84-11.58-.47-2-.85-4.15-1.19-6.52l-.12-.87a27.92,27.92,0,0,1-.44-5.4c.2-4,.55-8.26,2.37-12.26.54-1.19,1.13-2.38,1.7-3.52s1.13-2.27,1.66-3.42A15.51,15.51,0,0,0,28.41,113c-.6-2.34-1.85-3.9-3.5-4.39s-3.52.14-5.19,1.7c-1,.93-1.95,2-2.86,3s-1.61,1.76-2.47,2.6c-4.77,4.63-8.86,7.61-13.24,9.63l-.06.12a.5.5,0,0,1-.67.22.51.51,0,0,1-.22-.67.76.76,0,0,1,.39-.52c4.32-2,8.36-4.9,13.1-9.5.84-.81,1.65-1.7,2.43-2.55.93-1,1.89-2.07,2.92-3,1.93-1.8,4.18-2.51,6.15-1.93s3.49,2.4,4.19,5.11a16.45,16.45,0,0,1-1.33,11.07c-.53,1.16-1.11,2.32-1.68,3.44s-1.15,2.32-1.68,3.49c-1.75,3.84-2.09,8-2.28,11.89a27.93,27.93,0,0,0,.43,5.22l.12.87c.33,2.34.71,4.44,1.17,6.44.91,4,3.23,7.38,7.52,11a15.05,15.05,0,0,0,12,3.94,15.72,15.72,0,0,0,9.26-4.35c4.27-4.08,7.26-9.07,9.63-13.42a13.32,13.32,0,0,0,1.82-7.93c-.26-2.27-.7-4.57-1.14-6.79-.24-1.27-.49-2.53-.7-3.8-.74-4.36.89-8.56,4.16-10.7a12.26,12.26,0,0,1,13.69.19l2.72,1.88c1.84,1.29,3.75,2.62,5.67,3.83a35.63,35.63,0,0,0,19,5.38c1.58,0,3.21-.07,4.78-.15,1-.05,2-.1,3-.12,4.44-.12,7.36-2,9.18-5.74a79.59,79.59,0,0,1,5.33-9.19,10,10,0,0,1,7.85-4.49c1.48-.13,3-.16,4.43-.18s2.85-.06,4.26-.18c3.53-.29,5.62-1.55,6.6-4a11.38,11.38,0,0,0,.71-4.21c0-2.53-.08-5.1-.17-7.59l-.09-2.26a8.44,8.44,0,0,0-3.23-6.51,43.31,43.31,0,0,0-5.3-3.44l-.65-.38-1.21-.69c-3-1.7-6-3.46-8.21-6.38-2.77-3.69-3.37-7.37-1.85-11.24a13.19,13.19,0,0,1,4.46-5.64c.88-.68,1.81-1.32,2.71-1.94,1.15-.8,2.34-1.62,3.43-2.52,1.93-1.59,2.37-3,1.62-5.31a18.32,18.32,0,0,0-3.57-5.89c-2.87-3.43-6.35-5-10.34-4.77-2.61.18-5.26.56-7.82.92-1.56.23-3.12.45-4.68.63-3.35.39-6.37.72-9.47.87s-5.18-1.43-6.41-4.54a17.89,17.89,0,0,1-.94-5.85l0-1c-.07-1.2-.1-2.39-.14-3.58-.07-2.3-.14-4.67-.44-7a40.83,40.83,0,0,0-5-14.87,23.55,23.55,0,0,1-1.78-4.6c-.21-.69-.43-1.39-.67-2.07A.51.51,0,0,1,94.47,0a.49.49,0,0,1,.63.3c.25.7.47,1.41.69,2.12a22.63,22.63,0,0,0,1.69,4.4,41.6,41.6,0,0,1,5.07,15.23c.31,2.38.38,4.78.45,7.1,0,1.18.07,2.37.13,3.55l.05,1a17.14,17.14,0,0,0,.87,5.53c1.08,2.72,2.91,4,5.44,3.91,3.06-.15,6.07-.48,9.39-.86,1.56-.18,3.11-.4,4.66-.63,2.58-.37,5.25-.75,7.89-.92,4.33-.29,8.09,1.43,11.18,5.12a19.47,19.47,0,0,1,3.75,6.21c.87,2.66.3,4.57-1.94,6.41-1.12.92-2.32,1.75-3.49,2.56-.89.61-1.81,1.25-2.67,1.91a12.17,12.17,0,0,0-4.14,5.22c-1.38,3.52-.82,6.88,1.72,10.27,2.06,2.76,4.9,4.39,7.91,6.11l1.21.7.65.37A44.23,44.23,0,0,1,151,89.13a9.43,9.43,0,0,1,3.6,7.25l.09,2.26c.09,2.5.19,5.09.17,7.64a12.51,12.51,0,0,1-.78,4.58c-1.49,3.66-5,4.36-7.45,4.57-1.44.12-2.9.15-4.32.18s-2.92,0-4.36.18a9.05,9.05,0,0,0-7.11,4,78.08,78.08,0,0,0-5.25,9.07c-2,4.11-5.27,6.18-10.07,6.31-1,0-2,.07-3,.12-1.58.08-3.22.16-4.84.15A36.59,36.59,0,0,1,88.19,130c-2-1.22-3.86-2.56-5.71-3.86l-2.71-1.88A11.3,11.3,0,0,0,67.19,124a9.53,9.53,0,0,0-3.73,9.7c.22,1.26.46,2.52.71,3.78.43,2.24.88,4.55,1.15,6.86a14.36,14.36,0,0,1-1.94,8.53c-2.41,4.41-5.45,9.49-9.82,13.67a17,17,0,0,1-11.69,4.72Z"/><path style="fill:#FFFFFF;" d="M40.86,175.29a16.39,16.39,0,0,1-12-5c-2.68-2.67-5.68-5.85-7.57-9.79a24.86,24.86,0,0,1-2.09-8.19c-.13-1.25-.31-2.51-.48-3.73-.13-1-.26-1.93-.38-2.9s-.21-2.25-.29-3.34v-.21c-.07-.94-.12-1.89-.17-2.84-.11-2-.23-4.1-.47-6.12a15.23,15.23,0,0,0-1.3-4.48,3.7,3.7,0,0,0-4.66-2.07c-2,.59-4,1.27-5.92,1.93l-3.37,1.13a7.55,7.55,0,0,1-1.13.23l-.51.08a.27.27,0,0,1-.3-.2.25.25,0,0,1,.21-.29c.17,0,.35-.06.52-.09A5.69,5.69,0,0,0,2,129.15L5.4,128c1.94-.66,3.94-1.34,5.94-1.94a4.19,4.19,0,0,1,5.26,2.34,16.25,16.25,0,0,1,1.34,4.63c.24,2,.36,4.13.47,6.15.05.95.1,1.89.17,2.84v.2c.08,1.09.15,2.22.29,3.32s.25,1.93.38,2.89c.17,1.23.34,2.49.48,3.75a24.14,24.14,0,0,0,2.05,8c1.84,3.87,4.7,6.89,7.46,9.66a16.31,16.31,0,0,0,15.24,4.56,20.57,20.57,0,0,0,12.64-7.67c2.63-3.33,5.06-6.91,7.51-10.58A65.73,65.73,0,0,0,68,150.34l.31-.59a12.26,12.26,0,0,0,1.29-6.49c0-1.15-.14-2.31-.24-3.44-.12-1.43-.25-2.91-.27-4.38a6.93,6.93,0,0,1,.9-3.34c1.78-3.28,5-3.25,7.88-2.78a21.22,21.22,0,0,1,6.46,2.55c.66.35,1.32.69,2,1a64.54,64.54,0,0,0,15.57,4.8c5.24,1,10.78,2.08,18,3.39,4,.72,8-1.41,9.29-4.84.4-1.14.79-2.31,1.17-3.44.43-1.29.87-2.62,1.35-3.92,1.91-5.19,5.44-8,10.8-8.61a83.4,83.4,0,0,0,10.27-1.77c2.58-.62,5.63-1.79,6.27-5.36a18.9,18.9,0,0,0,.17-3.37c0-.48,0-1,0-1.44,0-1.24.07-2.48.1-3.71.09-3,.19-6.17.16-9.25a9.37,9.37,0,0,0-3.85-8,68.54,68.54,0,0,0-6.46-4.11,27.93,27.93,0,0,1-7.26-5.38,7.65,7.65,0,0,1,2.59-12.47l.74-.31c1.82-.77,3.7-1.56,5.62-2.19,4.12-1.35,6.51-3.85,7.3-7.65l.1-.44c.63-3,.8-3.82-2.62-5.89a36.22,36.22,0,0,1-7.7-6.25c-1.44-1.52-2.93-3-4.41-4.4a13,13,0,0,0-5.64-3.47,14.24,14.24,0,0,0-7.82.55c-4.37,1.28-9.33,2.73-14.52,2.39s-7.48-2.22-8.41-6.7c-.52-2.45-.83-5-1.14-7.43-.21-1.72-.43-3.5-.72-5.23a47.6,47.6,0,0,0-1.79-7.6A38.38,38.38,0,0,0,101.29,6c-.34-.65-.67-1.31-1-2s-.74-1.5-1.12-2.24l-.5-1a.26.26,0,0,1,.11-.34.25.25,0,0,1,.34.12l.5,1c.38.75.75,1.5,1.12,2.25s.65,1.31,1,2a36,36,0,0,1,2.21,4.86,48.14,48.14,0,0,1,1.81,7.69c.29,1.74.51,3.53.73,5.25.3,2.44.62,5,1.13,7.39.89,4.27,3,6,8,6.3,5.09.33,10-1.1,14.34-2.37a14.69,14.69,0,0,1,8.09-.55,13.49,13.49,0,0,1,5.85,3.58c1.49,1.41,3,2.9,4.43,4.43a36.16,36.16,0,0,0,7.6,6.17c3.72,2.24,3.5,3.29,2.85,6.41l-.1.44c-.81,3.93-3.39,6.63-7.64,8-1.89.62-3.77,1.41-5.58,2.17l-.74.31a7.16,7.16,0,0,0-2.41,11.67,26.51,26.51,0,0,0,7.13,5.28,72.51,72.51,0,0,1,6.51,4.14A9.88,9.88,0,0,1,160,95.37c0,3.09-.07,6.23-.16,9.26,0,1.24-.07,2.47-.1,3.71,0,.47,0,1,0,1.43a19.12,19.12,0,0,1-.18,3.46c-.69,3.85-3.91,5.1-6.64,5.75a84.18,84.18,0,0,1-10.34,1.79c-5.15.58-8.55,3.29-10.38,8.28-.48,1.29-.92,2.62-1.35,3.91-.37,1.13-.76,2.3-1.17,3.44-1.32,3.66-5.65,5.93-9.85,5.17-7.19-1.31-12.74-2.36-18-3.39a64.86,64.86,0,0,1-15.7-4.84c-.67-.33-1.33-.68-2-1a21,21,0,0,0-6.31-2.5c-3.86-.62-6.06.13-7.37,2.53a6.52,6.52,0,0,0-.83,3.09c0,1.45.14,2.92.27,4.35.09,1.13.2,2.3.24,3.46A12.92,12.92,0,0,1,68.77,150l-.32.59c-1,2-2.13,4-3.39,5.9-2.46,3.68-4.89,7.26-7.54,10.61a21,21,0,0,1-12.94,7.85A20.14,20.14,0,0,1,40.86,175.29Z"/><path style="fill:#FFFFFF;" d="M103.77,131.37a23.61,23.61,0,0,1-9.94-2.4,34,34,0,0,1-9.72-7.16,31,31,0,0,0-9.28-6.8,44.47,44.47,0,0,0-4.28-1.52c-.72-.23-1.44-.46-2.15-.71a4.54,4.54,0,0,1-3.47-4.11,41.33,41.33,0,0,0-1-6.4c-.63-2.59-1.38-5.21-2.1-7.74-.28-1-.55-1.9-.81-2.86-.94-3.33-2.41-7.58-5.5-11-1.08-1.19-2.23-2.35-3.35-3.48l-1.78-1.82c-2-2.1-2.81-4.11-2.46-6.31a18,18,0,0,1,1.37-4.84c.6-1.27,1.3-2.52,2-3.72s1.47-2.62,2.08-4a32.87,32.87,0,0,1,11.4-13.73,13.29,13.29,0,0,0,4.8-5.13c2-4.32,3.4-7.67,4.54-10.86a10.42,10.42,0,0,0-.62-8.74A14.82,14.82,0,0,0,68.54,13,81.18,81.18,0,0,1,56.41,2.76c-.39-.41-.8-.81-1.2-1.21L54.65,1a.51.51,0,0,1,0-.71.51.51,0,0,1,.71,0l.55.55c.41.41.83.81,1.22,1.23a81.53,81.53,0,0,0,12,10.14,15.69,15.69,0,0,1,5.23,5.42A11.43,11.43,0,0,1,75,27.17c-1.15,3.22-2.56,6.59-4.57,10.94a14.2,14.2,0,0,1-5.14,5.53A31.9,31.9,0,0,0,54.25,57c-.63,1.4-1.38,2.74-2.11,4s-1.36,2.41-1.94,3.66a17,17,0,0,0-1.29,4.56c-.3,1.87.39,3.61,2.18,5.46.59.61,1.19,1.21,1.78,1.81C54,77.64,55.15,78.81,56.25,80,59.48,83.57,61,88,62,91.41c.26,1,.54,1.9.81,2.85.72,2.54,1.47,5.16,2.11,7.78a43.09,43.09,0,0,1,1,6.55c.13,1.64,1,2.61,2.79,3.25q1.07.36,2.13.69c1.45.47,3,.94,4.38,1.56a31.87,31.87,0,0,1,9.58,7,33.06,33.06,0,0,0,9.44,7,21.87,21.87,0,0,0,10.66,2.28,24.34,24.34,0,0,0,12-3.61c2.73-1.76,4.57-4.54,6.07-7l.29-.49c1.28-2.09,2.59-4.25,4-6.31,1.64-2.37,4.16-3.69,7.71-4,1.23-.11,2.48-.14,3.68-.17s2.47-.06,3.68-.17c3.75-.37,5.32-2,5.43-5.68a34.06,34.06,0,0,0-.15-4.79c-.31-2.78-1.87-4.91-4.9-6.69-1-.61-2.09-1.2-3.14-1.78L138,88.73A30.65,30.65,0,0,1,125.73,76.6a31,31,0,0,1-2.67-8.42c-.11-.53-.22-1.05-.34-1.57-.93-4.18-2.2-6.38-6.85-7.6a19.13,19.13,0,0,0-7-.07l-1.49.17a23.48,23.48,0,0,1-7.2,0c-3.26-.63-5.12-3-5.1-6.51v-.16c0-4.31,0-8.76.33-13.13a26.43,26.43,0,0,1,.9-4.69c.19-.72.37-1.44.52-2.16a25.83,25.83,0,0,0-3.18-19.37c-1.71-2.83-3.17-5.41-3.72-8.43-.18-1-.26-1.93-.35-2.87q0-.65-.12-1.29A.5.5,0,0,1,89.86,0a.51.51,0,0,1,.56.45l.12,1.3c.08.92.16,1.87.33,2.78.52,2.85,1.94,5.35,3.6,8.09a26.86,26.86,0,0,1,3.3,20.1c-.15.73-.34,1.46-.53,2.2a25.28,25.28,0,0,0-.87,4.51c-.3,4.34-.31,8.77-.33,13.06v.16c0,3.07,1.47,5,4.29,5.53a22.81,22.81,0,0,0,6.9-.07l1.48-.16a19.68,19.68,0,0,1,7.41.1c5.13,1.34,6.57,3.86,7.58,8.34.11.52.23,1,.34,1.58a30.09,30.09,0,0,0,2.57,8.15,29.3,29.3,0,0,0,11.87,11.74l1.56.87c1.06.59,2.12,1.18,3.16,1.8,3.28,1.92,5,4.36,5.38,7.44a34.48,34.48,0,0,1,.16,4.93c-.12,4.18-2.07,6.23-6.33,6.64-1.25.12-2.52.15-3.75.18s-2.42.06-3.61.17c-3.24.3-5.53,1.48-7,3.6s-2.71,4.18-4,6.26l-.3.49c-1.56,2.56-3.47,5.45-6.37,7.33A25.53,25.53,0,0,1,105,131.34Q104.39,131.37,103.77,131.37Z"/><path style="fill:#FFFFFF;" d="M284.08,295.33a.5.5,0,0,1-.5-.44c0-.24-.06-.49-.08-.74-.06-.53-.12-1.06-.22-1.59a18.08,18.08,0,0,0-3.1-8.06,22.54,22.54,0,0,0-6.68-5.43c-1.68-1-3.42-2-5.11-2.92-2.7-1.51-5.5-3.08-8.13-4.82A39,39,0,0,1,247,256.74c-2.94-5.62-2.59-11,1-15.83a47,47,0,0,1,9.41-9.49c1.44-1.09,3-2,4.51-3,1.09-.67,2.22-1.36,3.28-2.1,3-2.05,3.52-3,1.9-6.58l-.5-1.11c-.31-.71-.63-1.42-1-2.11-2.69-5.5-3.84-11.45-4.79-17.08a22.15,22.15,0,0,0-2.38-7.37c-1.93-3.41-4.84-6.24-9.16-8.91-3.94-2.44-7.15-2.27-10.41.54a36.43,36.43,0,0,0-4.22,4.5c-.71.85-1.39,1.76-2,2.65a41.93,41.93,0,0,1-3.05,3.8,4.47,4.47,0,0,1-3.2,1.62,4.9,4.9,0,0,1-3.51-1.74,18.68,18.68,0,0,1-2.56-3.18,35.78,35.78,0,0,0-9.75-10.45c-2-1.39-3.84-3.07-4.36-5.91a11.56,11.56,0,0,1,.54-6c.82-2.27,2.3-5.4,5.76-6.31a19.29,19.29,0,0,1,4.42-.46c.47,0,.94,0,1.41-.05,2.66-.14,5.4-.6,7.47-3.06a32.7,32.7,0,0,0,6.33-11c.51-1.61.88-3.32,1.23-5,.22-1.06.45-2.16.73-3.23a8.9,8.9,0,0,1,6.82-6.86c4.22-1.09,8.65-.68,13.55,1.25a75.37,75.37,0,0,1,8.17,4,61.39,61.39,0,0,1,11.44,8.3c2.42,2.15,3.17,4.95,2.21,8.31a41.62,41.62,0,0,0-1.73,13.4,5.7,5.7,0,0,0,.13.91,7.22,7.22,0,0,1,.14,1.16c0,1.25,0,2.49,0,3.74s0,2.23,0,3.34a8.24,8.24,0,0,0,2.37,5.56,27.93,27.93,0,0,0,6.94,5.05l1.5.87,1.31.77a35.5,35.5,0,0,1,8.07,5.82.5.5,0,1,1-.73.69,34.22,34.22,0,0,0-7.85-5.64l-1.31-.78-1.49-.87a28.45,28.45,0,0,1-7.18-5.24,9.2,9.2,0,0,1-2.63-6.22c0-1.12,0-2.24,0-3.35s0-2.48,0-3.72a5.18,5.18,0,0,0-.13-1,8.85,8.85,0,0,1-.14-1.05,42.15,42.15,0,0,1,1.77-13.71c.85-3,.23-5.39-1.91-7.29a60.25,60.25,0,0,0-11.26-8.17,74.06,74.06,0,0,0-8.05-3.93c-4.7-1.85-8.93-2.25-12.94-1.22a7.9,7.9,0,0,0-6.1,6.14c-.27,1.06-.5,2.15-.73,3.2a51.15,51.15,0,0,1-1.25,5.06,33.46,33.46,0,0,1-6.52,11.39c-2.31,2.76-5.43,3.28-8.18,3.42l-1.43.05a18.83,18.83,0,0,0-4.2.43c-2.31.61-3.88,2.36-5.07,5.68a10.64,10.64,0,0,0-.5,5.47c.46,2.49,2.17,4,4,5.27a37.13,37.13,0,0,1,10,10.75,17.49,17.49,0,0,0,2.43,3,4.11,4.11,0,0,0,2.78,1.44,3.52,3.52,0,0,0,2.48-1.31,41,41,0,0,0,3-3.71c.66-.89,1.34-1.82,2.07-2.69a38.32,38.32,0,0,1,4.34-4.62c3.59-3.1,7.28-3.3,11.59-.63,4.46,2.76,7.48,5.7,9.5,9.26a23.2,23.2,0,0,1,2.5,7.71c.94,5.55,2.07,11.42,4.7,16.8.35.7.67,1.42,1,2.14.16.37.32.74.49,1.11,1.87,4.08,1.08,5.53-2.24,7.82-1.09.74-2.22,1.44-3.32,2.12-1.49.92-3,1.87-4.43,2.93a46,46,0,0,0-9.21,9.28c-3.38,4.56-3.7,9.53-1,14.78a38,38,0,0,0,12.94,14.22c2.6,1.72,5.37,3.27,8.06,4.78,1.69.94,3.44,1.92,5.13,2.94a23.19,23.19,0,0,1,7,5.67,19.07,19.07,0,0,1,3.29,8.5c.1.54.16,1.1.22,1.65,0,.25.05.49.08.73a.5.5,0,0,1-.43.56Z"/><path style="fill:#FFFFFF;" d="M192.89,294.93h-.09a.25.25,0,0,1-.14-.32,27.7,27.7,0,0,1,5-7.75c.75-.9,1.51-1.83,2.22-2.78.92-1.25,1.81-2.55,2.67-3.82.43-.64.87-1.28,1.31-1.91a24.3,24.3,0,0,1,17.41-10.75,29.33,29.33,0,0,0,6.41-1.47c2.71-1,4.25-3.27,4.84-7.13.17-1.08.32-2.17.48-3.25A57.26,57.26,0,0,1,235.8,243c2.46-6.46,5.41-13.26,10.21-19.23a12.21,12.21,0,0,0,2.91-6.19,7.9,7.9,0,0,0-2.46-7.12c-1.49-1.4-4-1.17-6.12.58-.73.59-1.44,1.25-2.13,1.89l-1,.89c-.94.85-1.87,1.72-2.8,2.58-2.09,2-4.25,4-6.53,5.78a20.8,20.8,0,0,0-7.19,10.11c-2.1,6.69-6.81,11.35-11.46,15.56-4.34,3.92-8.1,7.58-10.28,12.71-.88,2.07-1.76,3.85-3.65,4.82a13.5,13.5,0,0,1-4.19,1.48c-1.83.26-3.72.38-5.54.49-.81,0-1.62.09-2.42.15l-3.39.3a6,6,0,0,1-5.94-2.79c-2.59-4.11-6.69-5.71-11.39-7.25a23.87,23.87,0,0,0-6.27-1.21,3.77,3.77,0,0,0-3.15,1.21,4.7,4.7,0,0,0-.91,4c.37,2,.58,4,.79,5.93.09.87.18,1.75.29,2.63a1.51,1.51,0,0,1-.32,1.3,1.48,1.48,0,0,1-1.29.3l-2.34-.29c-1.92-.24-3.84-.48-5.76-.75l-3.69-.54c-1.78-.27-3.63-.54-5.44-.76-4.72-.57-9.33-1.06-13.7-1.47l-1.61-.17a26.12,26.12,0,0,0-7-.12,18.17,18.17,0,0,0-7.25,3.34c-2.17,1.52-4.25,3.1-6.18,4.7-3.08,2.56-4.25,6-3.58,10.65.27,1.88.63,3.78,1,5.61.16.83.32,1.66.47,2.49a.26.26,0,0,1-.2.29.25.25,0,0,1-.29-.2c-.15-.83-.31-1.66-.47-2.48-.35-1.84-.71-3.75-1-5.64-.69-4.79.54-8.43,3.77-11.11,1.93-1.61,4-3.2,6.2-4.72a18.54,18.54,0,0,1,7.46-3.42,26.24,26.24,0,0,1,7.14.11l1.61.17c4.37.41,9,.91,13.71,1.47,1.82.22,3.67.5,5.46.77,1.22.18,2.45.37,3.68.54,1.91.26,3.83.5,5.76.74l2.33.29a.79.79,0,0,0,1.05-1c-.11-.88-.2-1.76-.29-2.64-.2-1.94-.41-3.95-.78-5.88a5.21,5.21,0,0,1,1-4.43,4.27,4.27,0,0,1,3.56-1.38,24.94,24.94,0,0,1,6.4,1.23c4.79,1.57,9,3.22,11.65,7.46a5.54,5.54,0,0,0,5.48,2.56c1.13-.1,2.26-.21,3.39-.29.81-.07,1.62-.11,2.43-.16,1.81-.11,3.69-.23,5.5-.49a12.93,12.93,0,0,0,4-1.42c1.73-.89,2.57-2.6,3.41-4.57,2.22-5.23,6-8.93,10.4-12.89,4.6-4.16,9.26-8.77,11.33-15.34a21.22,21.22,0,0,1,7.35-10.35c2.26-1.79,4.42-3.81,6.5-5.75.93-.87,1.86-1.74,2.81-2.59l1-.89c.69-.64,1.41-1.31,2.16-1.91,2.37-1.91,5.09-2.14,6.77-.56a8.39,8.39,0,0,1,2.62,7.55,12.79,12.79,0,0,1-3,6.45c-4.76,5.91-7.68,12.66-10.14,19.08a57.81,57.81,0,0,0-2.75,12.61c-.15,1.08-.3,2.17-.47,3.26-.63,4.06-2.27,6.44-5.17,7.51a29.58,29.58,0,0,1-6.52,1.51,23.5,23.5,0,0,0-17.06,10.53c-.44.64-.87,1.28-1.31,1.91-.86,1.27-1.75,2.58-2.68,3.84-.71,1-1.48,1.89-2.23,2.8a27.59,27.59,0,0,0-4.95,7.6A.24.24,0,0,1,192.89,294.93Z"/><path style="fill:#FFFFFF;" d="M288.79,295.08a.26.26,0,0,1-.25-.21c0-.18-.05-.37-.08-.55a7.07,7.07,0,0,0-.21-1.18c-.27-.86-.51-1.74-.75-2.61a43.76,43.76,0,0,0-2.1-6.32c-1.95-4.34-5.88-6.73-9.08-8.33-3.78-1.88-7.17-3.6-10.47-5.62-4-2.45-7.29-5.81-10.48-9.07l-.64-.65a22,22,0,0,1-4.46-6.42c-1.57-3.47-1.52-6.58.14-9.51a27,27,0,0,1,15-12.45c2-.7,4.15-1.28,6.2-1.84,1.18-.32,2.35-.65,3.52-1a8,8,0,0,0,5.42-4.58c.95-2.3,1.07-3.8-.95-5.58a12.84,12.84,0,0,0-2.46-1.74c-4.65-2.5-7.57-6.56-8.94-12.41-.08-.32-.15-.64-.23-1a30.84,30.84,0,0,1-.91-5,23,23,0,0,1,.32-6.38,3.48,3.48,0,0,1,1.47-2.37,3.86,3.86,0,0,1,3-.34,43.53,43.53,0,0,1,10.7,4.09c5.34,2.76,8.33,7.22,9.14,13.64.26,2.09.75,4.4,3.19,5.41a.25.25,0,0,1-.19.46c-2.56-1.06-3.19-3.42-3.5-5.81-.8-6.32-3.62-10.54-8.87-13.26a43.49,43.49,0,0,0-10.57-4.05,3.42,3.42,0,0,0-2.65.28,3,3,0,0,0-1.25,2.05,22.43,22.43,0,0,0-.31,6.25,30.32,30.32,0,0,0,.89,4.88l.24,1c1.33,5.7,4.17,9.65,8.69,12.08a14.26,14.26,0,0,1,2.55,1.8c2.23,2,2.1,3.69,1.08,6.15a8.38,8.38,0,0,1-5.73,4.86c-1.18.35-2.36.68-3.54,1-2,.56-4.14,1.13-6.16,1.84a26.51,26.51,0,0,0-14.77,12.22c-1.57,2.78-1.61,5.74-.11,9.06a21.57,21.57,0,0,0,4.35,6.27l.64.65c3.18,3.24,6.46,6.58,10.39,9,3.29,2,6.67,3.73,10.43,5.6,3.28,1.64,7.3,4.09,9.32,8.57a44.71,44.71,0,0,1,2.12,6.39c.24.87.48,1.74.74,2.6a7,7,0,0,1,.24,1.26c0,.18.05.36.08.54a.25.25,0,0,1-.21.29Z"/><path style="fill:#FFFFFF;" d="M12.45,251.31a17.73,17.73,0,0,1-4.35-.56c-1.73-.42-3.52-.74-5.25-1.05-.8-.14-1.6-.28-2.4-.44a.25.25,0,1,1,.1-.49l2.39.44c1.73.31,3.53.63,5.28,1.06,6.51,1.61,11.73-.25,16-5.68l.4-.51c1.88-2.41,3.81-4.9,5.8-7.29a15.94,15.94,0,0,1,7.47-5.26c2.42-.79,4.88-1.63,7.25-2.45,2-.69,4.1-1.41,6.16-2.09a12.88,12.88,0,0,1,7.8.28l2.27.69c1.67.52,3.39,1,5.1,1.48a10.19,10.19,0,0,0,3.15.15,1.18,1.18,0,0,0,1-.58,1.21,1.21,0,0,0-.19-1.2,10.84,10.84,0,0,0-3.86-3.11l-.15-.1a23.38,23.38,0,0,0-6.08-2.2l-1.09-.29c-2-.53-3.92-1.15-5.82-1.76s-4.07-1.29-6.13-1.84a23.73,23.73,0,0,0-8.88-.22c-5.2.64-10.37,1.8-15.37,2.93l-4.06.91a29.31,29.31,0,0,1-3.6.47c-.53,0-1,.09-1.57.15-4.47.5-8.69-.38-13.35-1.48a.25.25,0,0,1-.18-.3.25.25,0,0,1,.3-.19c4.61,1.1,8.78,2,13.17,1.47l1.59-.15a28.34,28.34,0,0,0,3.54-.46l4.05-.9a152.12,152.12,0,0,1,15.42-2.94,23.93,23.93,0,0,1,9.07.23c2.07.55,4.14,1.21,6.15,1.85s3.85,1.23,5.8,1.75l1.09.29a23.72,23.72,0,0,1,6.2,2.25l.15.09a11.43,11.43,0,0,1,4,3.27,1.7,1.7,0,0,1,.23,1.7,1.66,1.66,0,0,1-1.43.86,11,11,0,0,1-3.31-.16c-1.73-.44-3.45-1-5.12-1.49-.76-.23-1.51-.47-2.27-.69-3-.9-5.36-1-7.5-.29s-4.14,1.4-6.16,2.09c-2.37.82-4.83,1.66-7.26,2.45a15.55,15.55,0,0,0-7.23,5.11c-2,2.38-3.92,4.87-5.79,7.28l-.4.51C21.25,249.17,17.19,251.31,12.45,251.31Z"/><path style="fill:#FFFFFF;" d="M294.68,122.43h0l-2.4-.4c-1.77-.29-3.61-.59-5.41-.94-1.13-.22-2.27-.49-3.38-.74-1.54-.36-3.14-.73-4.72-1-1.26-.2-2.56-.3-3.81-.4a42.37,42.37,0,0,1-4.73-.57,33.77,33.77,0,0,1-13.64-5.78c-5.52-4.1-8.86-9.86-11.38-15a7.19,7.19,0,0,1,.41-7,23.48,23.48,0,0,1,2.33-3.08l0,0c.57-.68,1.17-1.34,1.76-2a29.1,29.1,0,0,0,3-3.64c.77-1.15,1.53-2.29,2.3-3.42A142.87,142.87,0,0,0,265.14,62c1.76-3.59,4-5,7.47-4.69,2,.18,4,.53,5.91.88,4.58.84,7.68-.85,9.76-5.32,1.57-3.38,1.28-6.89.73-10.17-.4-2.34-.52-5,1.52-7.13.87-.9,1.77-1.8,2.65-2.67l1.18-1.17a.24.24,0,0,1,.35,0,.25.25,0,0,1,0,.36l-1.18,1.17c-.87.86-1.78,1.76-2.64,2.66-1.88,2-1.78,4.37-1.39,6.7.57,3.36.86,7-.77,10.46-2.19,4.71-5.46,6.49-10.3,5.6-1.87-.34-3.87-.69-5.87-.87-3.23-.28-5.31,1-7,4.41a142.18,142.18,0,0,1-10.13,16.62c-.77,1.13-1.54,2.27-2.3,3.41a30.47,30.47,0,0,1-3.08,3.71c-.58.63-1.19,1.28-1.75,1.95l0,.05a22.89,22.89,0,0,0-2.28,3,6.73,6.73,0,0,0-.4,6.5c2.51,5,5.8,10.74,11.24,14.78a33.31,33.31,0,0,0,13.44,5.69,40.75,40.75,0,0,0,4.67.56c1.26.1,2.57.2,3.85.4,1.6.26,3.2.63,4.76,1,1.1.25,2.23.52,3.36.73,1.79.35,3.62.65,5.39,1l2.4.39a.26.26,0,0,1,.21.29A.26.26,0,0,1,294.68,122.43Z"/><path style="fill:#FFFFFF;" d="M243.79,54.48a17.81,17.81,0,0,1-3.35-.32c-4.1-.75-6.32-3.46-6.1-7.42.06-1.15.16-2.32.25-3.44.13-1.53.25-3.1.31-4.66,0-1.33,0-2.69,0-4,0-1.54,0-3.13,0-4.69a46.87,46.87,0,0,1,.9-7.69A83.11,83.11,0,0,1,241.4,7c.64-1.46,1.16-3,1.66-4.51.23-.7.47-1.4.71-2.09a.26.26,0,0,1,.32-.16.25.25,0,0,1,.15.32c-.24.7-.48,1.39-.71,2.09-.5,1.51-1,3.07-1.68,4.55-2.12,4.81-4.32,9.78-5.51,15.15a46.61,46.61,0,0,0-.89,7.61c-.08,1.54-.06,3.12,0,4.65,0,1.32,0,2.69,0,4-.06,1.56-.19,3.15-.31,4.68-.09,1.12-.19,2.29-.25,3.43-.21,3.68,1.87,6.2,5.69,6.9a14.66,14.66,0,0,0,10.3-1.5,11.76,11.76,0,0,0,4.41-4.09c3.21-5.31,8.28-8.47,13.18-11.52l1.06-.66c5-3.13,10.18-6.64,13.66-12.1a12.29,12.29,0,0,0,1.61-6.95c0-3.47-1.19-6.69-2.33-9.8-.54-1.48-1.1-3-1.53-4.57-.12-.43-.26-.86-.39-1.28l-.2-.63a.25.25,0,0,1,.17-.31.24.24,0,0,1,.31.17l.19.62c.14.43.28.86.4,1.3.43,1.53,1,3.05,1.52,4.53,1.15,3.15,2.34,6.41,2.36,10a12.7,12.7,0,0,1-1.69,7.21c-3.54,5.56-8.76,9.11-13.81,12.26l-1.06.67c-5.08,3.16-9.88,6.14-13,11.34a12.33,12.33,0,0,1-4.6,4.28A14.51,14.51,0,0,1,243.79,54.48Z"/><path style="fill:#FFFFFF;" d="M294.83,118.45h0l-.46,0a3.51,3.51,0,0,1-1.07-.16l-2-.7a30.79,30.79,0,0,1-5.25-2.15,22.8,22.8,0,0,0-11.4-2.81,31.47,31.47,0,0,1-10.11-1.79A18,18,0,0,1,252.3,98.24a8.06,8.06,0,0,1,.47-6.53,56.45,56.45,0,0,1,9.07-13c2.47-2.54,5.15-4.93,7.74-7.25,1.1-1,2.2-2,3.28-3a2.41,2.41,0,0,1,.46-.3,1.69,1.69,0,0,0,.29-.17,9.61,9.61,0,0,1,6-1.68h0a22.85,22.85,0,0,1,8.18,1.36,6.11,6.11,0,0,1,4.06,7,26.4,26.4,0,0,1-1.76,5.58c-.18.47-.37.93-.55,1.4-.29.78-.66,1.54-1,2.27a20.19,20.19,0,0,0-1.28,3c-.58,1.93-.52,3.38.18,4.31s1.89,1.29,3.66,1.25c.85,0,1.7,0,2.55,0h1.14a.25.25,0,0,1,.25.25.25.25,0,0,1-.25.25h-1.14c-.85,0-1.69,0-2.54,0-1.94,0-3.31-.46-4.07-1.45s-.89-2.66-.26-4.76a23,23,0,0,1,1.31-3.11c.35-.72.71-1.47,1-2.23.18-.47.36-.93.55-1.4a26,26,0,0,0,1.73-5.48,5.64,5.64,0,0,0-3.74-6.48,22.39,22.39,0,0,0-8-1.33h0a9.15,9.15,0,0,0-5.73,1.58,2.12,2.12,0,0,1-.36.21,1.52,1.52,0,0,0-.35.23l-3.29,3c-2.58,2.31-5.26,4.7-7.71,7.23a55.8,55.8,0,0,0-9,12.86,7.6,7.6,0,0,0-.43,6.15,17.47,17.47,0,0,0,11.92,12.24,30.82,30.82,0,0,0,9.95,1.77A23.28,23.28,0,0,1,286.29,115a31.54,31.54,0,0,0,5.17,2.12l2,.7a3.22,3.22,0,0,0,.91.13l.5,0a.26.26,0,0,1,.22.28A.24.24,0,0,1,294.83,118.45Z"/><path style="fill:#FFFFFF;" d="M.5,119.93a.26.26,0,0,1-.21-.12.25.25,0,0,1,.08-.35A37.09,37.09,0,0,0,13.55,106.3a28,28,0,0,1,6-7.71c2.49-2,5.54-4.93,7.14-9,.61-1.58,1.28-3.16,1.92-4.69,1-2.36,2-4.81,2.87-7.26.79-2.29,1.21-5.58-1.25-8.25l-.64-.7A70.72,70.72,0,0,0,22.1,61.3,36.59,36.59,0,0,1,10.28,44.48l-.1-.3a8.37,8.37,0,0,1-.7-4.09,11.55,11.55,0,0,1,2.75-5.43l.31-.42c.68-.91,1.42-1.8,2.13-2.66a50.28,50.28,0,0,0,3.26-4.28,103.61,103.61,0,0,0,8.7-17.17A35.76,35.76,0,0,0,29.57.47a.25.25,0,1,1,.49.06,36,36,0,0,1-3,9.79,104.55,104.55,0,0,1-8.75,17.25,46.89,46.89,0,0,1-3.3,4.32c-.7.86-1.43,1.75-2.11,2.65l-.32.42c-1.21,1.6-2.36,3.12-2.64,5.19A7.82,7.82,0,0,0,10.65,44l.11.3A36,36,0,0,0,22.41,60.91a70.93,70.93,0,0,1,7.51,7.4l.64.69c2.08,2.26,2.54,5.28,1.35,8.75C31.06,80.22,30,82.67,29,85c-.64,1.53-1.3,3.11-1.91,4.68C25.48,94,22.36,96.89,19.83,99A27.61,27.61,0,0,0,14,106.55,37.5,37.5,0,0,1,.63,119.89.22.22,0,0,1,.5,119.93Z"/><path style="fill:#FFFFFF;" d="M246.25,46.65a4.43,4.43,0,0,1-3.12-1.22,7.17,7.17,0,0,1-2-3.19c-.72-2.91-1.28-5.9-1.83-8.8l-.28-1.52a24.79,24.79,0,0,1,.17-10,38.05,38.05,0,0,1,5.14-12.32c1.31-2.07,2.58-4.22,3.8-6.3.55-.94,1.1-1.88,1.66-2.82a.26.26,0,0,1,.35-.09.27.27,0,0,1,.08.35c-.56.93-1.11,1.87-1.66,2.81-1.22,2.08-2.49,4.24-3.81,6.31a37.42,37.42,0,0,0-5.07,12.17,24.17,24.17,0,0,0-.17,9.76l.28,1.52c.55,2.89,1.11,5.87,1.82,8.77a6.62,6.62,0,0,0,1.83,3c1.79,1.72,4.78,1.35,7.11-.87l1.15-1.11a35.32,35.32,0,0,1,6.74-5.52c1.43-.82,2.91-1.61,4.34-2.37s3.11-1.64,4.62-2.52a37.65,37.65,0,0,0,10.38-8.78c2.5-3.08,3.16-6.81,2-11.4-1.06-4.3-3.44-8-5.85-11.4a.57.57,0,0,0-.26-.13l-.22-.1a.24.24,0,0,1-.12-.33.26.26,0,0,1,.34-.12l.18.08a1,1,0,0,1,.49.31c2.44,3.42,4.84,7.19,5.93,11.57,1.17,4.75.48,8.62-2.12,11.83a37.86,37.86,0,0,1-10.52,8.9c-1.52.88-3.11,1.72-4.64,2.54s-2.9,1.54-4.32,2.35a34.57,34.57,0,0,0-6.64,5.45l-1.15,1.11A7,7,0,0,1,246.25,46.65Z"/><path style="fill:#FFFFFF;" d="M119.17,33c-3,0-6.31-1.17-7.82-4.53s-1.84-7.09-2.13-10.64l-.06-.79a36.51,36.51,0,0,0-2.55-11.84c-.46-1-1-2.06-1.57-3L104.28.77a.25.25,0,0,1,.1-.34.24.24,0,0,1,.34.1l.75,1.36c.56,1,1.13,2,1.6,3.08a37,37,0,0,1,2.59,12l.06.79c.29,3.52.58,7.16,2.08,10.48,1.65,3.65,5.59,4.54,8.73,4.15,4.45-.54,8.16-2.7,11.21-4.73a44.65,44.65,0,0,1,8.1-4l1.1-.45c1.26-.53,2.53-1.11,3.76-1.66s2.79-1.27,4.21-1.85a13.2,13.2,0,0,1,7.64-.49c6.55,1.24,11.81-.71,15.64-5.8,1.88-2.49,3.7-5.11,5.46-7.64Q179,3.88,180.32,2c.25-.36.53-.7.81-1,.12-.16.25-.31.37-.46a.25.25,0,0,1,.35,0,.24.24,0,0,1,0,.35c-.12.16-.25.31-.38.46-.26.33-.54.66-.79,1l-2.66,3.81c-1.76,2.54-3.58,5.16-5.47,7.66-4,5.25-9.38,7.27-16.13,6a12.63,12.63,0,0,0-7.37.47c-1.41.57-2.82,1.21-4.18,1.83s-2.51,1.14-3.78,1.67l-1.1.45a44.35,44.35,0,0,0-8,3.93c-3.1,2.06-6.88,4.25-11.43,4.81A10.93,10.93,0,0,1,119.17,33Z"/><path style="fill:#FFFFFF;" d="M294.76,293.31a.24.24,0,0,1-.23-.15l-.35-.85c-.25-.6-.5-1.2-.76-1.8l-.92-2.08c-1.14-2.55-2.31-5.2-3.5-7.78a13.68,13.68,0,0,0-8.11-7.24c-1-.37-2-.72-3-1.06-2-.72-4.15-1.45-6.14-2.38-5.32-2.47-9.26-6.74-13.07-10.87-.38-.41-.76-.83-1.15-1.24a20.21,20.21,0,0,1-2.82-3.88,8.56,8.56,0,0,1-.23-8.49c1.7-3.38,4.34-6,8.54-8.33,3.44-1.95,7.28-2.55,11-3.14l1.78-.28c2.62-.44,4.95-.94,6.77-2.61,1.45-1.33,2.83-2.79,4.17-4.2.48-.51.95-1,1.44-1.51a12.69,12.69,0,0,1,6.61-4,.25.25,0,0,1,.3.2.26.26,0,0,1-.2.29,12.2,12.2,0,0,0-6.35,3.91l-1.44,1.5c-1.34,1.42-2.73,2.89-4.19,4.23-1.92,1.76-4.42,2.3-7,2.73l-1.78.29c-3.66.57-7.45,1.17-10.81,3.07-4.11,2.33-6.69,4.84-8.34,8.13a8.07,8.07,0,0,0,.22,8,19.49,19.49,0,0,0,2.75,3.78l1.15,1.24c3.78,4.1,7.68,8.33,12.91,10.76,2,.91,4.07,1.65,6.1,2.35,1,.35,2,.7,3,1.07a14.32,14.32,0,0,1,8.38,7.5c1.19,2.59,2.37,5.23,3.5,7.79l.93,2.08c.26.6.51,1.21.76,1.81l.35.85a.25.25,0,0,1-.14.32A.15.15,0,0,1,294.76,293.31Z"/><path style="fill:#FFFFFF;" d="M222.79,42.75a5.79,5.79,0,0,1-1.38-.16,18.28,18.28,0,0,1-6.41-3c-8.24-5.76-15.46-12.9-22.44-19.81l-2.33-2.31a4.36,4.36,0,0,1-1.53-4A18.6,18.6,0,0,1,190.2,9c.33-.63.68-1.25,1-1.87A20.87,20.87,0,0,0,194,.46a.25.25,0,0,1,.29-.21.26.26,0,0,1,.2.29,21,21,0,0,1-2.8,6.78c-.35.62-.69,1.23-1,1.86a18.06,18.06,0,0,0-1.45,4.34,3.82,3.82,0,0,0,1.39,3.58l2.33,2.31c7,6.9,14.17,14,22.38,19.76a17.84,17.84,0,0,0,6.23,2.94,6.39,6.39,0,0,0,6.25-2.28,12.78,12.78,0,0,0,2.4-7.24,51.78,51.78,0,0,1,3.17-14.49,137.72,137.72,0,0,0,5.11-16.77,1.84,1.84,0,0,0,0-.53c0-.1,0-.2,0-.3a.25.25,0,0,1,.25-.25A.25.25,0,0,1,239,.5a2.45,2.45,0,0,0,0,.27,2.53,2.53,0,0,1,0,.67,141.22,141.22,0,0,1-5.13,16.84,51.41,51.41,0,0,0-3.14,14.35,13.19,13.19,0,0,1-2.51,7.52A7,7,0,0,1,222.79,42.75Z"/><path style="fill:#FFFFFF;" d="M121,27.67a6.39,6.39,0,0,1-3-.75c-3.06-1.62-3.71-4.74-4.08-7.54-.34-2.61-.46-5.29-.58-7.89l0-.81c-.1-2.35-.16-4.75-.22-7.06L112.94.51a.26.26,0,0,1,.25-.26.25.25,0,0,1,.25.24l.09,3.12c.06,2.31.12,4.7.22,7l0,.82c.11,2.58.23,5.26.58,7.85s1,5.65,3.82,7.15a6.47,6.47,0,0,0,6.07-.15,33.58,33.58,0,0,0,5-3.06,58.42,58.42,0,0,1,15.42-8.67A28,28,0,0,1,154,13h.12l1.76,0a25.56,25.56,0,0,0,7.17-.53,11.27,11.27,0,0,0,5.58-3.39,17.51,17.51,0,0,0,4.11-8,1.26,1.26,0,0,1,.33-.53l.15-.16a.25.25,0,0,1,.35,0,.24.24,0,0,1,0,.35c0,.07-.11.13-.17.2a1,1,0,0,0-.21.29A17.92,17.92,0,0,1,169,9.47,11.71,11.71,0,0,1,163.21,13a26.29,26.29,0,0,1-7.31.54l-1.75,0a28.26,28.26,0,0,0-9.33,1.52,57.74,57.74,0,0,0-15.29,8.6,34.57,34.57,0,0,1-5,3.11A7.9,7.9,0,0,1,121,27.67Z"/><path style="fill:#FFFFFF;" d="M.65,112.71a.23.23,0,0,1-.2-.1.25.25,0,0,1,0-.35l1.35-1.05c1-.75,2-1.53,2.91-2.34,3.48-3,4.74-7.3,5.65-11.06.21-.85.35-1.73.49-2.59s.25-1.61.44-2.41a4,4,0,0,1,2.46-3,18,18,0,0,0,9.05-8.54c1.41-2.78,1.65-5.42.71-7.65-1-2.39-3.37-4.25-6.63-5.24a4.31,4.31,0,0,0-4,.48,4.71,4.71,0,0,0-1.67,4c0,2.25.15,4.55.26,6.77s.23,4.62.27,6.93c.07,3.58-.91,4.45-3.7,5.11L2.89,92.85.56,93.4a.24.24,0,0,1-.3-.18.25.25,0,0,1,.18-.3l2.33-.55L8,91.15c2.58-.61,3.37-1.32,3.31-4.61,0-2.31-.16-4.65-.27-6.92s-.22-4.52-.26-6.78a5.2,5.2,0,0,1,1.87-4.38,4.88,4.88,0,0,1,4.46-.56c3.4,1,5.86,3,6.94,5.53,1,2.36.75,5.16-.73,8.07A18.75,18.75,0,0,1,14,90.26a3.62,3.62,0,0,0-2.18,2.67c-.18.78-.3,1.59-.43,2.37s-.28,1.76-.49,2.63c-.93,3.84-2.22,8.19-5.82,11.32-.94.82-1.95,1.6-2.93,2.36l-1.34,1A.22.22,0,0,1,.65,112.71Z"/><path style="fill:#FFFFFF;" d="M294.83,182.09h-.08a24.94,24.94,0,0,1-9.68-6.69,17.2,17.2,0,0,1-4.74-11.51,20.62,20.62,0,0,1,1.45-7.24l.26-.81c1.49-4.6,1.26-8.17-.7-11.25a26.62,26.62,0,0,0-3.21-4.09c-1.3-1.36-2.66-2.71-4-4-1.5-1.49-3.05-3-4.52-4.59-.6-.64-1.3-2-1-2.83.37-1,2.05-1.49,2.56-1.62a22,22,0,0,1,3.5-.56l.8-.08,2.71-.31c2.73-.32,5.56-.65,8.35-.84,1.9-.13,3.84-.1,5.72-.06l2.54,0a.25.25,0,0,1,.25.25.25.25,0,0,1-.25.25l-2.55,0c-1.87,0-3.8-.07-5.68.06-2.78.18-5.6.51-8.32.83l-2.72.32-.8.08a21.75,21.75,0,0,0-3.42.54c-.88.24-2,.73-2.22,1.32a3,3,0,0,0,.89,2.31c1.46,1.55,3,3.09,4.5,4.57,1.32,1.31,2.68,2.66,4,4a26.61,26.61,0,0,1,3.27,4.16c2.05,3.21,2.29,6.92.76,11.67l-.27.82a20.24,20.24,0,0,0-1.42,7.06,16.69,16.69,0,0,0,4.6,11.18,24.52,24.52,0,0,0,9.48,6.57.25.25,0,0,1,.16.32A.26.26,0,0,1,294.83,182.09Z"/><path style="fill:#FFFFFF;" d="M279.42,268.17a17.81,17.81,0,0,1-10.18-3.54c-4.45-3.09-7.41-7.55-9.5-11.09a7.07,7.07,0,0,1-1.09-5.32c.82-3.51,3-6.11,7.18-8.42,3.67-2.05,7.7-2.26,11.61-2.46a16.13,16.13,0,0,0,11.21-4.82,37.78,37.78,0,0,1,4-3.34c.62-.47,1.24-.94,1.85-1.42a.24.24,0,0,1,.35,0,.25.25,0,0,1,0,.35c-.61.48-1.24,1-1.86,1.43a38.07,38.07,0,0,0-4,3.3,16.67,16.67,0,0,1-11.54,5c-3.84.2-7.82.41-11.38,2.4-4,2.24-6.15,4.73-6.95,8.1a6.58,6.58,0,0,0,1,4.94c2.06,3.5,5,7.9,9.36,10.94,5.06,3.51,10.11,4.35,15,2.49a14.67,14.67,0,0,0,3.74-2.42c1.52-1.22,3-2.5,4.41-3.73l1.81-1.57a.24.24,0,0,1,.35,0,.25.25,0,0,1,0,.35L293,260.93c-1.43,1.24-2.9,2.53-4.4,3.73a15.47,15.47,0,0,1-3.9,2.52A15.08,15.08,0,0,1,279.42,268.17Z"/><path style="fill:#FFFFFF;" d="M16.79,178.3a12.83,12.83,0,0,1-4.28-.81,23,23,0,0,1-7.89-5.35c-1-1-2-2-2.9-3-.42-.46-.83-.92-1.26-1.38a.25.25,0,0,1,.37-.34c.43.46.84.92,1.26,1.38.92,1,1.87,2.07,2.87,3A22.59,22.59,0,0,0,12.67,177c3.21,1.14,5.81,1.06,8.19-.25a3.07,3.07,0,0,0,1.49-3.25A21.41,21.41,0,0,0,19.78,168l-.61-1a34.53,34.53,0,0,1-3.07-6.53,22.84,22.84,0,0,1-.93-6.39,68.23,68.23,0,0,0-1.23-12.61c-.52-2.44-1.15-4.76-3.15-6.32a4.54,4.54,0,0,0-2.21-1,21.88,21.88,0,0,0-8,.83.25.25,0,0,1-.31-.17.25.25,0,0,1,.17-.31,22.64,22.64,0,0,1,8.19-.85,5,5,0,0,1,2.47,1.07c2.14,1.66,2.82,4.17,3.34,6.6A68.87,68.87,0,0,1,15.67,154a22.17,22.17,0,0,0,.9,6.25,34.41,34.41,0,0,0,3,6.43l.6,1a21.8,21.8,0,0,1,2.63,5.68,3.59,3.59,0,0,1-1.74,3.81A8.8,8.8,0,0,1,16.79,178.3Z"/><path style="fill:#FFFFFF;" d="M219.37,33.34a9.12,9.12,0,0,1-4.35-1.1c-6.31-3.32-11.58-8.27-16.12-15.12-1.62-2.45-1.58-5.29-1.38-8.24.14-1.94.36-3.91.58-5.82.1-.86.2-1.72.29-2.59a.25.25,0,1,1,.49.06c-.09.86-.19,1.73-.28,2.59-.22,1.9-.44,3.86-.58,5.8-.19,2.85-.24,5.61,1.29,7.92,4.5,6.78,9.71,11.68,15.95,15a8.56,8.56,0,0,0,4.43,1,3.2,3.2,0,0,0,3-1.67c.48-.91.9-1.89,1.31-2.83.2-.47.41-.95.62-1.42.37-.81.74-1.63,1.1-2.44.88-2,1.79-4,2.75-5.95a43.9,43.9,0,0,0,4.08-12.17c.22-1.35.42-2.71.62-4.07l.27-1.82a.25.25,0,0,1,.28-.21.25.25,0,0,1,.21.29l-.26,1.81c-.2,1.36-.4,2.72-.63,4.08a44.44,44.44,0,0,1-4.12,12.31c-1,2-1.86,4-2.74,5.93-.37.82-.73,1.64-1.1,2.45-.22.47-.42.94-.62,1.41-.41.95-.83,1.93-1.33,2.86a3.66,3.66,0,0,1-3.43,1.94Z"/><path style="fill:#FFFFFF;" d="M163.13,295a.19.19,0,0,1-.1,0l-1.44-.65c-1-.47-2.11-.95-3.13-1.5a38.88,38.88,0,0,1-12-10.52c-2.11-2.68-5-4.37-9.16-5.33l-.76-.17c-4-.93-8.19-1.9-12.33-2.43-4.44-.57-7.89.26-10.55,2.52a11.13,11.13,0,0,0-4,7.5,6.28,6.28,0,0,0,1.1,3.22c.43.74.92,1.47,1.39,2.18a19,19,0,0,1,2.58,4.81.25.25,0,0,1-.16.31.26.26,0,0,1-.32-.16,18.6,18.6,0,0,0-2.52-4.69c-.47-.71-1-1.45-1.4-2.2a6.53,6.53,0,0,1-1.17-3.52,11.65,11.65,0,0,1,4.14-7.83c2.77-2.36,6.34-3.22,10.93-2.63,4.17.53,8.35,1.5,12.38,2.43l.76.18c4.26,1,7.26,2.73,9.44,5.5a38.25,38.25,0,0,0,11.85,10.39c1,.54,2.07,1,3.1,1.48l1.45.66a.25.25,0,0,1-.11.48Z"/><path style="fill:#FFFFFF;" d="M277.23,263.38a10.52,10.52,0,0,1-6.58-2.51,17.94,17.94,0,0,1-5.9-8.55,7.2,7.2,0,0,1,2.85-8.65c3.7-2.51,7.85-2.46,11-2.14a23.5,23.5,0,0,0,9.18-.42,19.05,19.05,0,0,0,5.68-3.2l1-.74a.25.25,0,0,1,.29.41c-.35.24-.69.49-1,.74a19.52,19.52,0,0,1-5.83,3.27,24.1,24.1,0,0,1-9.37.44c-4.63-.47-7.94.17-10.72,2.06a6.72,6.72,0,0,0-2.66,8.07,17.53,17.53,0,0,0,5.74,8.32c3.91,3.1,8,3.22,12.22.38a42.48,42.48,0,0,0,4.3-3.51l1-.87c1.45-1.27,2.89-2.58,4.29-3.86l1.9-1.73a.26.26,0,0,1,.36,0,.25.25,0,0,1,0,.35L293.1,253c-1.4,1.28-2.85,2.6-4.3,3.87-.33.28-.66.58-1,.87a45.2,45.2,0,0,1-4.36,3.54A11.07,11.07,0,0,1,277.23,263.38Z"/><path style="fill:#FFFFFF;" d="M123.22,20.16a3.41,3.41,0,0,1-1.51-.33,4.68,4.68,0,0,1-2.26-3.36A17.63,17.63,0,0,1,120,7.36q.68-2.37,1.4-4.72l.66-2.21a.25.25,0,0,1,.48.14l-.67,2.21c-.47,1.57-.94,3.14-1.39,4.71a17.25,17.25,0,0,0-.58,8.86,4.26,4.26,0,0,0,2,3,4.29,4.29,0,0,0,3.65-.32,31.74,31.74,0,0,0,5.18-3.23L131.9,15c4.15-2.91,7.68-5.21,12-6.18a37.88,37.88,0,0,1,4.6-.61l1.6-.16c1-.1,2-.17,2.91-.24a40,40,0,0,0,5.89-.71A8.2,8.2,0,0,0,165.69.45a.25.25,0,0,1,.49.1,8.69,8.69,0,0,1-7.13,7.05,40.07,40.07,0,0,1-6,.72c-1,.07-1.93.14-2.89.24l-1.61.16a36.8,36.8,0,0,0-4.55.6c-4.27.94-7.75,3.22-11.86,6.1l-1.13.81a32.61,32.61,0,0,1-5.26,3.29A6.25,6.25,0,0,1,123.22,20.16Z"/><path style="fill:#FFFFFF;" d="M13.57,243.72a5.85,5.85,0,0,1-1.64-.23A49.09,49.09,0,0,1,7,241.87a21.07,21.07,0,0,0-6.55-1.74.24.24,0,0,1-.24-.26.26.26,0,0,1,.25-.24h0a21.64,21.64,0,0,1,6.72,1.77A48,48,0,0,0,12.06,243a5.05,5.05,0,0,0,4.75-1A13,13,0,0,0,21.63,234c.3-1.93-.18-3-1.66-3.68a6.8,6.8,0,0,0-3-.7c-1.84.09-3.71.25-5.52.41s-3.59.3-5.38.39a15.73,15.73,0,0,1-3-.23c-.44-.06-.88-.13-1.32-.17l-.8-.09-.53-.06a.25.25,0,0,1-.22-.27.26.26,0,0,1,.28-.23l.53.06.79.09,1.34.17a14.15,14.15,0,0,0,2.89.23c1.79-.09,3.61-.24,5.36-.39s3.7-.32,5.55-.41a7.25,7.25,0,0,1,3.19.75c1.7.78,2.28,2,1.95,4.21a13.5,13.5,0,0,1-5,8.37A5.46,5.46,0,0,1,13.57,243.72Z"/><path style="fill:#FFFFFF;" d="M294.83,170.9l-.1,0-1-.4a13.16,13.16,0,0,1-2.13-1c-2.24-1.33-4.6-3.18-5.21-6.76a17.11,17.11,0,0,1,.41-6.22l.13-.66a28.46,28.46,0,0,0,.18-11.7c-.13-.64-.3-1.29-.47-1.92a16.2,16.2,0,0,1-.79-5.66,6.13,6.13,0,0,1,3.22-5.23,15.16,15.16,0,0,1,5.56-1.77.26.26,0,0,1,.28.22.25.25,0,0,1-.21.28,14.63,14.63,0,0,0-5.38,1.7,5.62,5.62,0,0,0-3,4.85,16,16,0,0,0,.77,5.48c.17.64.34,1.29.48,1.94a29,29,0,0,1-.18,11.91l-.13.65a16.58,16.58,0,0,0-.41,6c.57,3.39,2.84,5.15,5,6.42a14.14,14.14,0,0,0,2.05.94l1,.4a.24.24,0,0,1,.13.33A.25.25,0,0,1,294.83,170.9Z"/><path style="fill:#FFFFFF;" d="M215.27,18.06c-2.53,0-4.9-1.24-7.22-3.71-3.47-3.71-4.32-8.47-4.67-12.2a3.93,3.93,0,0,0-.26-1C203.07,1,203,.88,203,.72a.25.25,0,0,1,.17-.31.24.24,0,0,1,.31.17l.15.44a4.42,4.42,0,0,1,.29,1.08c.34,3.65,1.17,8.31,4.54,11.91,4,4.28,8.2,4.65,13.19,1.16,2.86-2,4.6-4.94,5.33-9a37.34,37.34,0,0,0,.45-3.92c.05-.6.1-1.2.16-1.81a.26.26,0,0,1,.28-.22.25.25,0,0,1,.22.28c-.06.59-.11,1.19-.16,1.79-.11,1.31-.22,2.66-.46,4-.75,4.17-2.56,7.21-5.53,9.28A11.67,11.67,0,0,1,215.27,18.06Z"/><path style="fill:#FFFFFF;" d="M51.65,295.1a1.28,1.28,0,0,1-.33-.06l-.17,0a.25.25,0,0,1-.22-.28.25.25,0,0,1,.28-.22l.23.05.21,0,8.91-7.45.91-.76c4.65-3.89,9.45-5.12,14.67-3.76s8.24,3.82,9.87,7.84c.4,1,.73,2,1,2.94.14.45.29.9.44,1.34a.25.25,0,0,1-.15.32.26.26,0,0,1-.32-.16l-.45-1.34c-.32-1-.64-2-1-2.91C84,286.8,81,284.4,76,283.11s-9.71-.11-14.22,3.66l-.92.77c-3,2.49-6,5-9,7.47A.38.38,0,0,1,51.65,295.1Z"/><path style="fill:#FFFFFF;" d="M.5,31a.26.26,0,0,1-.25-.21.25.25,0,0,1,.21-.29l.55-.1c.4-.07.82-.15,1.23-.19a16.73,16.73,0,0,0,12.18-6.84A58.72,58.72,0,0,0,21,10.71,26,26,0,0,0,23.38.5a.25.25,0,0,1,.25-.25h0a.25.25,0,0,1,.25.25,26.39,26.39,0,0,1-2.39,10.4,59,59,0,0,1-6.67,12.71A17.2,17.2,0,0,1,2.29,30.66c-.39,0-.8.11-1.19.19L.54,31Z"/><path style="fill:#FFFFFF;" d="M237.82,295.08a.24.24,0,0,1-.24-.19c-1.3-5-6.53-8.31-10.82-8.54-5-.27-9.4,1.45-14.17,3.58-3,1.33-5.67,2.63-7.73,4.92a.25.25,0,1,1-.37-.34c2.13-2.36,4.84-3.68,7.9-5,4.83-2.15,9.25-3.91,14.4-3.62,4.47.24,9.91,3.65,11.27,8.92a.24.24,0,0,1-.18.3Z"/><path style="fill:#FFFFFF;" d="M247.25,295.08h0a.25.25,0,0,1-.21-.29c.07-.4.13-.79.19-1.19.13-.83.25-1.67.41-2.5.83-4.48,3.4-6.71,8.32-7.23,5.34-.57,10.35,1.08,14.9,4.89a9.44,9.44,0,0,1,3.49,6,.25.25,0,0,1-.5.07,8.94,8.94,0,0,0-3.31-5.73c-4.44-3.72-9.33-5.33-14.53-4.78-4.73.5-7.08,2.55-7.88,6.83-.15.83-.28,1.66-.41,2.49l-.18,1.19A.26.26,0,0,1,247.25,295.08Z"/><path style="fill:#FFFFFF;" d="M124,294.93a.25.25,0,0,1-.25-.23c0-.77-.1-1.53-.16-2.29-.13-1.72-.26-3.49-.24-5.24a4,4,0,0,1,4.19-4A28.18,28.18,0,0,1,138.91,286a30.12,30.12,0,0,1,10.28,8.58.25.25,0,1,1-.39.31,29.61,29.61,0,0,0-10.1-8.43,27.62,27.62,0,0,0-11.22-2.73,3.45,3.45,0,0,0-2.59,1,3.6,3.6,0,0,0-1.09,2.52c0,1.73.11,3.49.24,5.2,0,.76.11,1.53.16,2.3a.25.25,0,0,1-.24.26Z"/><path style="fill:#FFFFFF;" d="M22.89,294.93a.25.25,0,0,1-.23-.15l-.83-2.06c-.56-1.37-1.11-2.75-1.68-4.13l-1-2.64c-.83-2.09-1.69-4.25-2.65-6.32a8.87,8.87,0,0,0-6.72-5.3c-1.73-.31-3.51-.55-5.23-.78-1-.14-2.1-.28-3.15-.44a1.4,1.4,0,0,1-.62-.31l-.21-.15a.25.25,0,0,1-.09-.34.26.26,0,0,1,.35-.09l.25.18a1.12,1.12,0,0,0,.39.22l3.14.44c1.73.23,3.52.47,5.26.77a9.36,9.36,0,0,1,7.08,5.59c1,2.08,1.83,4.25,2.66,6.35.35.88.7,1.76,1.06,2.63.56,1.38,1.12,2.76,1.67,4.14l.83,2a.24.24,0,0,1-.13.32A.2.2,0,0,1,22.89,294.93Z"/><path style="fill:#FFFFFF;" d="M.5,24.17A.26.26,0,0,1,.25,24a.25.25,0,0,1,.21-.29c5.16-.9,8.91-3.74,11.48-8.7A27.24,27.24,0,0,0,15.13.51a.25.25,0,0,1,.23-.26.25.25,0,0,1,.27.24,27.78,27.78,0,0,1-3.24,14.72c-2.65,5.11-6.52,8-11.85,9Z"/><path style="fill:#FFFFFF;" d="M294.83,162.65a.24.24,0,0,1-.14-.05c-2.34-1.56-2.55-4-2.44-6.25.06-1.29.21-2.6.35-3.86s.27-2.44.33-3.66a63.3,63.3,0,0,0,0-6.75,9.29,9.29,0,0,1,1.39-5.45.25.25,0,1,1,.43.27,8.7,8.7,0,0,0-1.32,5.16,64.24,64.24,0,0,1,0,6.8c-.06,1.23-.2,2.48-.33,3.69s-.29,2.55-.35,3.82c-.1,2.18.09,4.39,2.22,5.82a.25.25,0,0,1,.07.35A.26.26,0,0,1,294.83,162.65Z"/><path style="fill:#FFFFFF;" d="M83.14,295.08a.25.25,0,0,1-.24-.18c-1.39-4.86-6-6.84-9.94-7.07s-7.49,1.21-11.3,4.69c-.56.51-1.1,1.06-1.62,1.59l-.73.75a.25.25,0,0,1-.36,0,.26.26,0,0,1,0-.35l.73-.75c.53-.54,1.08-1.09,1.64-1.61,3.93-3.58,7.53-5.06,11.67-4.82s8.93,2.32,10.39,7.43a.25.25,0,0,1-.17.31Z"/><path style="fill:#FFFFFF;" d="M15.08,295.08a.24.24,0,0,1-.24-.22c-.06-.54-.11-1.07-.16-1.6a28.49,28.49,0,0,0-1.44-7.77c-1.09-2.87-3.35-4.5-6.88-5-1.33-.17-2.71-.21-4-.25L.49,280.2a.25.25,0,0,1-.24-.26.24.24,0,0,1,.26-.24l1.83.07a40.08,40.08,0,0,1,4.08.26c3.74.49,6.12,2.22,7.29,5.28a29.35,29.35,0,0,1,1.47,7.9l.15,1.6a.24.24,0,0,1-.22.27Z"/><path style="fill:#FFFFFF;" d="M5,151.8a10.64,10.64,0,0,1-1.91-.23,9,9,0,0,1-1.88-.67l-.82-.35a.24.24,0,0,1-.14-.32.25.25,0,0,1,.32-.15c.28.11.56.24.84.36a8.6,8.6,0,0,0,1.77.64c2.5.47,3.76.39,4.53-2.32a7.28,7.28,0,0,0,.15-3.25c-.67-3.49-2.89-3.45-5.72-3a6.37,6.37,0,0,0-1.08.28l-.51.15a.25.25,0,0,1-.31-.18.24.24,0,0,1,.17-.3l.5-.15A6.56,6.56,0,0,1,2.09,142c2.88-.42,5.53-.48,6.28,3.44a7.72,7.72,0,0,1-.16,3.48C7.56,151.18,6.47,151.8,5,151.8Z"/><path style="fill:#FFFFFF;" d="M76,6.54a9.87,9.87,0,0,1-5.92-2C69,3.71,67.88,2.83,66.85,2L65.46.84a.24.24,0,0,1,0-.35.25.25,0,0,1,.35,0l1.4,1.15c1,.84,2.09,1.72,3.17,2.52a9.3,9.3,0,0,0,7,1.82,7.2,7.2,0,0,0,3.24-1.55A6.65,6.65,0,0,0,82.9.45a.25.25,0,0,1,.49.1,7.16,7.16,0,0,1-2.48,4.23,7.75,7.75,0,0,1-3.48,1.65A9.09,9.09,0,0,1,76,6.54Z"/><path style="fill:#FFFFFF;" d="M294.83,112.56a.23.23,0,0,1-.15,0c-.32-.24-.69-.46-1.05-.68a6.61,6.61,0,0,1-2.18-1.78c-1.5-2.27-1.79-3.54.29-5.55a8.64,8.64,0,0,1,2-1.32c.31-.16.63-.33.93-.51a.27.27,0,0,1,.35.08.26.26,0,0,1-.09.35c-.31.18-.64.35-1,.52a8.17,8.17,0,0,0-1.91,1.24c-1.83,1.76-1.67,2.73-.23,4.91a6.38,6.38,0,0,0,2,1.64c.37.22.74.45,1.09.7a.25.25,0,0,1,0,.35A.23.23,0,0,1,294.83,112.56Z"/><path style="fill:#FFFFFF;" d="M214.93,4.53a2.9,2.9,0,0,1-1.22-.28,5,5,0,0,1-3-3.7.25.25,0,0,1,.5-.1,4.49,4.49,0,0,0,2.66,3.35,2.39,2.39,0,0,0,1.89.06A3.18,3.18,0,0,0,217.55,2c.15-.37.28-.75.42-1.13l.17-.48a.25.25,0,0,1,.32-.15.24.24,0,0,1,.15.32l-.17.48c-.14.38-.27.76-.42,1.14a3.72,3.72,0,0,1-2,2.11A2.87,2.87,0,0,1,214.93,4.53Z"/><path style="fill:#FFFFFF;" d="M294.68,10.77a.25.25,0,0,1-.21-.12c-.11-.17-.22-.35-.34-.52-.24-.37-.47-.73-.69-1.11A30.08,30.08,0,0,1,289.72.55a.25.25,0,0,1,.2-.29.24.24,0,0,1,.29.19,29.36,29.36,0,0,0,3.66,8.32c.22.37.45.73.68,1.08l.34.53a.25.25,0,0,1-.07.35A.23.23,0,0,1,294.68,10.77Z"/><path style="fill:#FFFFFF;" d="M67.38,294.93a.25.25,0,0,1-.15-.45,8,8,0,0,1,10.33,0,.25.25,0,0,1,0,.35.24.24,0,0,1-.35,0,7.57,7.57,0,0,0-9.71,0A.21.21,0,0,1,67.38,294.93Z"/><path style="fill:#FFFFFF;" d="M.65,83.25H.6A.25.25,0,0,1,.4,83c.09-.44.2-.88.31-1.31a13.55,13.55,0,0,0,.51-2.92,8.59,8.59,0,0,0-.49-2.47C.61,75.86.5,75.48.4,75.1a.25.25,0,0,1,.19-.3.24.24,0,0,1,.3.18c.09.38.2.75.32,1.12a9.22,9.22,0,0,1,.51,2.63,13.64,13.64,0,0,1-.52,3c-.11.43-.22.86-.31,1.29A.26.26,0,0,1,.65,83.25Z"/><path style="fill:#FFFFFF;" d="M.65,192H.6a.26.26,0,0,1-.2-.3,1.46,1.46,0,0,0,0-.22,1.11,1.11,0,0,1,.18-.6c1.24-1.71,1.28-3.55.12-5.79a3.19,3.19,0,0,1-.24-.65,2.76,2.76,0,0,0-.08-.27.26.26,0,0,1,.16-.32.25.25,0,0,1,.31.16,1.71,1.71,0,0,1,.09.3,3.93,3.93,0,0,0,.2.55c1.26,2.43,1.21,4.43-.16,6.31a.83.83,0,0,0-.08.36,2.19,2.19,0,0,1,0,.27A.25.25,0,0,1,.65,192Z"/><path style="fill:#FFFFFF;" d="M258.3,295a.25.25,0,0,1,0-.5l.81-.13a8.52,8.52,0,0,1,3.76,0l.8.13a.25.25,0,1,1-.06.49c-.28,0-.55-.08-.82-.13a11.14,11.14,0,0,0-1.8-.2,11,11,0,0,0-1.8.2c-.27.05-.55.1-.82.13Z"/><path style="fill:#FFFFFF;" d="M.65,294.79a.23.23,0,0,1-.11,0,.25.25,0,0,1-.12-.33c1-2.05,1-3.61,0-5.06A.26.26,0,0,1,.51,289a.26.26,0,0,1,.35.08c1.34,2.06.71,4,0,5.54A.25.25,0,0,1,.65,294.79Z"/><path style="fill:#FFFFFF;" d="M.65,2.22a.25.25,0,0,1-.21-.1.25.25,0,0,1,.07-.35L2.42.44a.25.25,0,0,1,.35.07.24.24,0,0,1-.06.34L.79,2.18A.23.23,0,0,1,.65,2.22Z"/><path style="fill:#FFFFFF;" d="M248.8,35.9a4.55,4.55,0,0,1-4-2.27,14.82,14.82,0,0,1-2.32-9.73,21.58,21.58,0,0,1,3.94-10.72c1-1.45,2.22-3.14,3.56-4.73,2.31-2.74,5.14-5.73,9.41-6.57h.22a4.07,4.07,0,0,0,.5,0A5.65,5.65,0,0,1,261.3,2a22.8,22.8,0,0,1,12.47,7.32,10.28,10.28,0,0,1,1.4,11.74c-1.61,3-4.1,5.44-8.07,7.87a64.41,64.41,0,0,1-16.55,6.68A6.6,6.6,0,0,1,248.8,35.9ZM259.55,2.36h0c-4.1.81-6.86,3.73-9.12,6.41-1.33,1.57-2.53,3.25-3.52,4.69A21,21,0,0,0,243,23.94a14.31,14.31,0,0,0,2.24,9.41,4.21,4.21,0,0,0,5.16,1.81,63.76,63.76,0,0,0,16.42-6.61c3.89-2.38,6.32-4.75,7.89-7.69a9.67,9.67,0,0,0-1.35-11.18,22.3,22.3,0,0,0-12.2-7.16,5.81,5.81,0,0,0-1.05-.12c-.18,0-.36,0-.53,0Z"/><path style="fill:#FFFFFF;" d="M38.33,65.23A7.52,7.52,0,0,1,35,64.45a25.28,25.28,0,0,1-5.8-3.84c-4.2-3.7-7.6-8.69-10.37-15.24a13,13,0,0,1,.4-11.85c1.23-2.25,2.45-4.55,3.62-6.77,1.46-2.76,3-5.61,4.52-8.39s3.22-5.48,4.84-8.12c.55-.88,1.09-1.76,1.63-2.65,1.64-2.69,3.56-4.23,6-4.83a.19.19,0,0,1,.13,0,.23.23,0,0,1,.14,0c.29.08.59.14.88.2a8.76,8.76,0,0,1,2,.58c2.87,1.37,5.67,2.73,8.41,4.28A50.76,50.76,0,0,1,64.14,18a8.51,8.51,0,0,1,2.21,5.12A21,21,0,0,1,66,28.24c-.54,3.32-1.53,7.55-4.38,10.83A98.72,98.72,0,0,0,50,55.7a22.72,22.72,0,0,1-6.37,7.62A9.25,9.25,0,0,1,38.33,65.23Zm1.72-62h0a9.11,9.11,0,0,0-5.73,4.6c-.54.89-1.09,1.77-1.63,2.65-1.62,2.64-3.3,5.36-4.83,8.11S24.79,24.22,23.34,27c-1.18,2.23-2.4,4.53-3.63,6.78a12.54,12.54,0,0,0-.38,11.41c2.74,6.49,6.09,11.41,10.24,15.06A25.15,25.15,0,0,0,35.25,64c2.61,1.25,5.34.88,8.12-1.09a22.26,22.26,0,0,0,6.23-7.46A99.07,99.07,0,0,1,61.25,38.74C64,35.56,65,31.41,65.51,28.16a20.09,20.09,0,0,0,.34-5,7.94,7.94,0,0,0-2.08-4.82A50.19,50.19,0,0,0,51.19,8.25C48.46,6.72,45.66,5.36,42.81,4A8,8,0,0,0,41,3.45l-.91-.2Z"/><path style="fill:#FFFFFF;" d="M252.69,28.3c-2.54,0-4.49-1.25-4.77-3.17l-.07-.46a9.56,9.56,0,0,1,0-4.19c1.76-5.46,5.16-8.94,10.11-10.35a.38.38,0,0,1,.15,0h.06a14.89,14.89,0,0,1,9.15,2.52,5.71,5.71,0,0,1,2.61,4,5.83,5.83,0,0,1-1.41,4.62A17.36,17.36,0,0,1,266,23.81a24.61,24.61,0,0,1-12.35,4.44A7,7,0,0,1,252.69,28.3Zm5.39-17.69h0c-4.78,1.36-8.07,4.73-9.77,10a9,9,0,0,0,0,4l.06.46c.28,1.86,2.44,3,5.14,2.69a24.1,24.1,0,0,0,12.1-4.34A17.94,17.94,0,0,0,268.12,21a5.35,5.35,0,0,0,1.28-4.22A5.2,5.2,0,0,0,267,13.06a14.41,14.41,0,0,0-8.85-2.44Z"/><path style="fill:#FFFFFF;" d="M38.09,58.74a9.64,9.64,0,0,1-6.54-2.8A32,32,0,0,1,24.4,45.1a14.06,14.06,0,0,1-.55-10.8,58.49,58.49,0,0,1,7.71-14.77l.19-.27c2.38-3.33,4.84-6.76,9.36-7.66h.21c.32,0,.64,0,1,0a9.83,9.83,0,0,1,2.16.16,18.71,18.71,0,0,1,10,5.95c5.22,5.87,6,11.7,2.5,18.37-1.3,2.47-2.82,4.87-4.28,7.19-1,1.61-2.06,3.27-3,4.94a38.73,38.73,0,0,1-5.35,7.71A8.53,8.53,0,0,1,38.09,58.74Zm3.14-46.66h0c-4.33.86-6.73,4.21-9.05,7.46l-.2.27a58.17,58.17,0,0,0-7.64,14.65,13.59,13.59,0,0,0,.54,10.43,31.51,31.51,0,0,0,7,10.67c3.81,3.55,8.66,3.55,12,0A39.19,39.19,0,0,0,49.22,48c1-1.67,2-3.34,3-4.95,1.46-2.32,3-4.71,4.25-7.16,3.41-6.46,2.64-12.12-2.42-17.81a18.21,18.21,0,0,0-9.74-5.79,9.13,9.13,0,0,0-2.05-.15c-.33,0-.67,0-1,0Z"/><path style="fill:#FFFFFF;" d="M38.12,51.67a5.9,5.9,0,0,1-3.27-1.2,9.7,9.7,0,0,1-2.27-2.4A19,19,0,0,1,29,39.27a18.35,18.35,0,0,1,1.47-9.7c2.15-4.8,5.23-9.92,11.8-11.49a.2.2,0,0,1,.13,0,.32.32,0,0,1,.14,0c6,0,9.29,6.1,9.6,10.24a15.56,15.56,0,0,1-2.1,9c-1.52,2.69-3.17,5.24-4.57,7.38l-.56.86A26.53,26.53,0,0,1,41.58,50,4.89,4.89,0,0,1,38.12,51.67Zm4.29-33.11h0C36,20.08,33,25.08,30.94,29.77a17.79,17.79,0,0,0-1.43,9.44A18.45,18.45,0,0,0,33,47.78a9.66,9.66,0,0,0,2.15,2.28c2.36,1.6,4.19,1.47,6.1-.44a26.26,26.26,0,0,0,3.27-4.36c.18-.29.37-.58.56-.86,1.4-2.14,3-4.68,4.55-7.35a15.2,15.2,0,0,0,2-8.69c-.31-3.95-3.41-9.78-9.12-9.78h-.06Z"/><path style="fill:#FFFFFF;" d="M173.9,119.66c-2.79,0-5.76-.76-7.21-4.44-1.58-4-3.19-8.75-2.16-13.86.79-3.93,1.69-7.8,2.67-11.49a4.18,4.18,0,0,1,3.56-3.29l1.56-.24c1.18-.19,2.4-.38,3.61-.48a15.64,15.64,0,0,0,6.79-1.66,32.24,32.24,0,0,0,10.36-10.06,3.07,3.07,0,0,0,.35-3,44.82,44.82,0,0,1-1.66-5l-.68-2.42c-1.4-4.9-2.84-10-4.15-15a21.69,21.69,0,0,1-.86-6.1c.1-2.27.62-5.41,4.08-6.57a.2.2,0,0,1,.15,0h.05a7,7,0,0,1,4.73,1.37l4.62,3.1c3.22,2.16,6.56,4.4,9.81,6.63a54.67,54.67,0,0,1,12.76,11.66,39.89,39.89,0,0,0,3.16,3.46c.51.51,1,1,1.51,1.55s1,1,1.42,1.47a44.63,44.63,0,0,1,3.27,3.59,4.27,4.27,0,0,1,.47,4.63,20.15,20.15,0,0,1-1.77,2.75c-.34.47-.68.94-1,1.42s-.59.9-.89,1.34A40.15,40.15,0,0,0,226,83c-1,2-.58,4-.1,6.1.07.31.14.63.2.94a14.34,14.34,0,0,1,.42,4.64,30.1,30.1,0,0,1-3.65,10.11,11.92,11.92,0,0,1-10.37,6.94,53.39,53.39,0,0,0-6.17.93l-.43.08a63.54,63.54,0,0,1-11.73,1.37H194a17.3,17.3,0,0,0-7.81,1.78c-3.39,1.68-6.88,3.43-10.82,3.73C174.9,119.64,174.4,119.66,173.9,119.66Zm16.41-83.12c-2.44.81-3.59,2.7-3.73,6.11a21.15,21.15,0,0,0,.84,6c1.31,5,2.75,10.07,4.15,15l.69,2.42a41.83,41.83,0,0,0,1.63,5,3.57,3.57,0,0,1-.39,3.46A32.66,32.66,0,0,1,183,84.63a16.36,16.36,0,0,1-7,1.73c-1.19.09-2.4.29-3.57.47l-1.57.24A3.7,3.7,0,0,0,167.69,90c-1,3.69-1.88,7.55-2.67,11.47-1,5,.58,9.62,2.14,13.57s5.21,4.3,8.18,4.07c3.84-.29,7.29-2,10.64-3.68a17.84,17.84,0,0,1,8-1.83h.16a62.77,62.77,0,0,0,11.64-1.36l.43-.09a56,56,0,0,1,6.23-.93,11.47,11.47,0,0,0,10-6.67A30.16,30.16,0,0,0,226,94.6a14,14,0,0,0-.42-4.48c-.06-.31-.13-.62-.2-.93-.48-2.12-1-4.31.14-6.44a42,42,0,0,1,2.49-4c.3-.44.59-.88.88-1.33s.67-1,1-1.44a21.91,21.91,0,0,0,1.74-2.68,3.78,3.78,0,0,0-.42-4.1A47.39,47.39,0,0,0,228,65.64c-.48-.49-1-1-1.43-1.48s-1-1-1.5-1.54a38.18,38.18,0,0,1-3.2-3.51,54.54,54.54,0,0,0-12.65-11.55c-3.25-2.23-6.59-4.46-9.81-6.63l-4.62-3.1a6.38,6.38,0,0,0-4.4-1.28Z"/><path style="fill:#FFFFFF;" d="M101.21,126.24a13.3,13.3,0,0,1-2.19-.18c-5.13-.87-8.84-4.07-11.8-7.08l-1.12-1.15c-2.47-2.53-5-5.15-7.72-7.51A50.53,50.53,0,0,1,66.15,93.4c-.81-1.71-1.55-3.49-2.26-5.21-.83-2-1.69-4.11-2.68-6.09a56.55,56.55,0,0,0-3.06-5.22c-.62-1-1.27-2-1.88-3a11.36,11.36,0,0,1-1.4-8.42,31.66,31.66,0,0,1,5.37-11.73,13.44,13.44,0,0,1,6.18-4.77,11.44,11.44,0,0,1,2.46-.58c.37-.06.74-.12,1.1-.2a.29.29,0,0,1,.13,0h.09l1.31.07a23,23,0,0,1,3,.25,5.8,5.8,0,0,1,5.06,4.28c.49,1.77.93,3.53,1.33,5.16,1.44,5.9,5.54,9,12.89,9.69a26,26,0,0,0,8.08-.89c1.19-.26,2.42-.53,3.65-.71,2.23-.34,4.81-.58,7.24.88a10.1,10.1,0,0,1,4.05,5.3,41.93,41.93,0,0,0,11.14,15.53,49.76,49.76,0,0,1,4.44,4.74,22.28,22.28,0,0,1,2.66,4,2.65,2.65,0,0,1-.48,3.2,12,12,0,0,1-3,2.09,19.74,19.74,0,0,0-10.37,10.34,27.27,27.27,0,0,1-3.86,6.23c-2.64,3.21-6.33,5.06-9.93,6.58A15.85,15.85,0,0,1,101.21,126.24ZM70.11,48.62h0c-.37.08-.75.14-1.12.2a11.44,11.44,0,0,0-2.36.56A12.74,12.74,0,0,0,60.65,54a31.17,31.17,0,0,0-5.29,11.55,10.88,10.88,0,0,0,1.35,8.07c.59,1,1.24,2,1.87,3a59.94,59.94,0,0,1,3.08,5.27c1,2,1.86,4.09,2.69,6.11.71,1.72,1.45,3.5,2.25,5.2A50.15,50.15,0,0,0,78.71,110c2.71,2.37,5.27,5,7.75,7.53l1.12,1.15c2.9,3,6.53,6.09,11.52,6.93a14.42,14.42,0,0,0,8.1-1.12c3.53-1.5,7.16-3.31,9.73-6.43a26.87,26.87,0,0,0,3.79-6.12,20.21,20.21,0,0,1,10.62-10.59,11.85,11.85,0,0,0,2.88-2,2.14,2.14,0,0,0,.36-2.6,21.56,21.56,0,0,0-2.6-3.93,47.49,47.49,0,0,0-4.39-4.69c-5.38-5-9.07-10.11-11.27-15.72a9.39,9.39,0,0,0-3.84-5c-2-1.23-4.24-1.22-6.91-.82-1.21.19-2.43.45-3.61.71a26.86,26.86,0,0,1-8.23.9c-7.6-.73-11.84-3.93-13.34-10.07-.4-1.63-.83-3.38-1.32-5.14a5.36,5.36,0,0,0-4.67-3.93,25.57,25.57,0,0,0-2.91-.25c-.44,0-.89,0-1.33-.06Z"/><path style="fill:#FFFFFF;" d="M213.74,68.57a5,5,0,0,1-.85-.07,25.79,25.79,0,0,1-7.18-2.6l-1-.49c-5.39-2.56-8.39-6.43-9.16-11.84-.38-2.68.53-4.31,2.86-5.13a.26.26,0,0,1,.15,0,1.61,1.61,0,0,1,.44,0,2.9,2.9,0,0,1,.88,0c5.92,1.57,10.43,4.2,13.79,8.05a12.7,12.7,0,0,1,3.5,8.68,3.37,3.37,0,0,1-1.07,2.63A3.55,3.55,0,0,1,213.74,68.57ZM198.56,48.91c-2.08.74-2.86,2.16-2.51,4.59.74,5.23,3.64,9,8.87,11.46l1,.49A25.33,25.33,0,0,0,213,68a3.48,3.48,0,0,0,2.81-.59,2.84,2.84,0,0,0,.9-2.25,12.24,12.24,0,0,0-3.37-8.35c-3.3-3.77-7.73-6.35-13.55-7.89a2.41,2.41,0,0,0-.72,0A1.49,1.49,0,0,1,198.56,48.91Z"/><path style="fill:#FFFFFF;" d="M155.84,146.33a2.68,2.68,0,0,1-1-.19,3.6,3.6,0,0,1-2-2.07,2.39,2.39,0,0,1,0-2,2.83,2.83,0,0,1,1.87-1.41.33.33,0,0,1,.14,0,.29.29,0,0,1,.16,0l.59.2a6.22,6.22,0,0,1,1.36.57,2.74,2.74,0,0,1,1.38,2.89,3,3,0,0,1-1.56,1.76A2.39,2.39,0,0,1,155.84,146.33Zm-.88-5.2h0a2.36,2.36,0,0,0-1.56,1.15,2,2,0,0,0,0,1.61,3.17,3.17,0,0,0,1.71,1.79,1.94,1.94,0,0,0,1.6-.05,2.59,2.59,0,0,0,1.29-1.42,2.23,2.23,0,0,0-1.16-2.35,5.65,5.65,0,0,0-1.25-.52Z"/><path style="fill:#FFFFFF;" d="M226.53,183a4,4,0,0,1-2.57-1.08,16,16,0,0,1-4.8-6,2.93,2.93,0,0,1-.31-2.3,2.61,2.61,0,0,1,1.65-1.26,11.6,11.6,0,0,1,3-.75,9.45,9.45,0,0,0,8.62-6.49c.24-.61.45-1.22.66-1.83.39-1.11.79-2.26,1.29-3.34,1.38-3,2.83-6,4.23-8.89.89-1.85,1.79-3.7,2.67-5.56a6.92,6.92,0,0,1,4.28-4,.26.26,0,0,1,.15,0h.05c3.63-.36,6.88,1,9.93,4,1,1,2,2,3,2.9,1.19,1.12,2.42,2.28,3.58,3.48a17.9,17.9,0,0,1,3.11,4.18c1.26,2.43,1.36,5.15,1.46,7.79l0,.69a42.47,42.47,0,0,1-.57,7.55,47,47,0,0,1-1.48,6.81,3.41,3.41,0,0,1-1.6,2.26,3.05,3.05,0,0,1-2.5-.09,54.15,54.15,0,0,1-7-3.51c-3.78-2.14-7.68-4.36-12.52-3.52a11.87,11.87,0,0,0-5.6,2.22c-1,.8-1.89,1.71-2.79,2.58s-1.76,1.73-2.7,2.52A5.34,5.34,0,0,1,226.53,183Zm18.88-41a6.48,6.48,0,0,0-4,3.7c-.88,1.85-1.78,3.71-2.67,5.56-1.4,2.9-2.84,5.91-4.23,8.89-.49,1.05-.88,2.19-1.27,3.28-.21.62-.43,1.23-.66,1.84a10,10,0,0,1-9,6.82,11.28,11.28,0,0,0-2.88.71c-.78.3-1.21.61-1.37,1s-.08,1,.31,1.9a15.61,15.61,0,0,0,4.66,5.79c1.73,1.43,3.16,1.31,5.26-.46.93-.78,1.81-1.65,2.67-2.49s1.84-1.8,2.82-2.62a12.24,12.24,0,0,1,5.84-2.32c5-.87,9.17,1.49,12.85,3.58a56.47,56.47,0,0,0,6.9,3.48,2.56,2.56,0,0,0,2.1.1,2.93,2.93,0,0,0,1.34-2,48.35,48.35,0,0,0,1.47-6.73,41.6,41.6,0,0,0,.56-7.46l0-.69c-.09-2.58-.19-5.25-1.4-7.58a18.27,18.27,0,0,0-3-4.07c-1.15-1.19-2.38-2.34-3.56-3.45-1-1-2.05-1.92-3-2.92-3-3-6-4.24-9.53-3.89A.16.16,0,0,1,245.41,142Z"/><path style="fill:#FFFFFF;" d="M176.2,109.93a4.84,4.84,0,0,1-1.67-.28,4.93,4.93,0,0,1-2.8-2.83,7.22,7.22,0,0,1-.24-5c1.41-4.7,4.41-7,9.45-7.38A11.71,11.71,0,0,0,190,89.76c2.59-3.39,5.35-5.29,8.7-6a.28.28,0,0,1,.13,0h.06a9.07,9.07,0,0,1,7.43,3c2.73,2.88,4,6.51,5,10a4.36,4.36,0,0,1-1.86,5.27,13.82,13.82,0,0,1-10.18,2.09,29.49,29.49,0,0,1-5.35-1.48c-3.85-1.4-7-.65-9.61,2.31a15.72,15.72,0,0,1-1.65,1.64c-.25.21-.5.42-.74.64a12.92,12.92,0,0,1-2.56,1.87A7.5,7.5,0,0,1,176.2,109.93Zm22.66-25.66h0c-3.22.66-5.89,2.51-8.4,5.79A12.2,12.2,0,0,1,181,94.91c-4.81.32-7.67,2.55-9,7a6.7,6.7,0,0,0,.22,4.68,4.43,4.43,0,0,0,2.51,2.56,5.82,5.82,0,0,0,4.51-.52,12.34,12.34,0,0,0,2.45-1.8c.25-.22.5-.44.75-.64a14.76,14.76,0,0,0,1.6-1.59c2.76-3.13,6.08-3.93,10.15-2.45a28.44,28.44,0,0,0,5.26,1.45,13.3,13.3,0,0,0,9.82-2,3.86,3.86,0,0,0,1.66-4.71c-1-3.42-2.26-7-4.92-9.79a8.61,8.61,0,0,0-7-2.85Z"/><path style="fill:#FFFFFF;" d="M47.6,105a21.21,21.21,0,0,1-4.28-.43c-7.06-1.47-9.57-4.5-9.57-11.57a17.15,17.15,0,0,1,1.2-6.1c1.25-3.19,2.94-6.27,6.74-7.25h.19a15.15,15.15,0,0,1,11.49,4.23c3.63,3.36,5.18,8,4.61,13.86a7.27,7.27,0,0,1-6.31,6.89A21.64,21.64,0,0,1,47.6,105ZM41.82,80.14h0c-3.38.88-5,3.41-6.39,7A16.41,16.41,0,0,0,34.25,93c0,6.86,2.32,9.65,9.17,11.08a20.93,20.93,0,0,0,8.16,0,6.73,6.73,0,0,0,5.9-6.45C58,92,56.54,87.5,53,84.25a14.71,14.71,0,0,0-11.12-4.1Z"/><path style="fill:#FFFFFF;" d="M218.69,258.75a9.67,9.67,0,0,1-1.53-.12c-1.12-.2-3.2-.56-3.4-2.67a7.41,7.41,0,0,1,.47-3.63,21.65,21.65,0,0,1,3-4.63,42.92,42.92,0,0,0,7.09-11.56c1.09-2.8,2.84-6.15,6.86-7.11a.33.33,0,0,1,.14,0h0c1.75-.16,2.34,1,2.64,2.08.67,2.27-.06,4.44-.65,6.19-1.72,5.06-3.59,10.27-5.74,15.92-1.21,3.19-3.25,5-6.07,5.3A22.18,22.18,0,0,1,218.69,258.75Zm12.58-29.23h0c-3.79.9-5.47,4.11-6.51,6.8a43.48,43.48,0,0,1-7.18,11.7,21.1,21.1,0,0,0-2.87,4.52,6.91,6.91,0,0,0-.44,3.37c.15,1.6,1.63,2,3,2.23a14.78,14.78,0,0,0,4.19-.11c2.65-.32,4.51-1.95,5.66-5,2.15-5.64,4-10.85,5.73-15.9.6-1.77,1.28-3.77.65-5.89-.39-1.33-1-1.82-2.12-1.72Z"/><path style="fill:#FFFFFF;" d="M94.86,109a5.77,5.77,0,0,1-3-.89,21.63,21.63,0,0,1-4.45-3.14c-3.51-3.51-7-7.22-10.48-11a23.69,23.69,0,0,1-6-11.29c-.66-3.23.34-5.19,3.13-6.18a.3.3,0,0,1,.16,0h.09l1.39.09c1.06.06,2.12.12,3.18.21a20.63,20.63,0,0,1,8.48,2.43c4.86,2.73,9.65,5.72,14.15,8.54a8.68,8.68,0,0,1,2.26,2.52,7.43,7.43,0,0,1,.83,6c-.92,4.79-2.6,8.2-5.25,10.72A6.6,6.6,0,0,1,94.86,109ZM74.23,76.9c-2.57.92-3.41,2.59-2.8,5.61a23.24,23.24,0,0,0,5.88,11c3.44,3.82,7,7.53,10.46,11a21.72,21.72,0,0,0,4.34,3.06c2.34,1.38,4.66,1,6.9-1.13,2.62-2.48,4.19-5.7,5.11-10.46a6.93,6.93,0,0,0-.73-5.54,8.13,8.13,0,0,0-2.14-2.41C96.76,85.29,92,82.3,87.12,79.57a20.27,20.27,0,0,0-8.27-2.36c-1-.09-2.11-.15-3.16-.21l-1.4-.09Z"/><path style="fill:#FFFFFF;" d="M276.81,257.27a5.28,5.28,0,0,1-4.14-2,5.82,5.82,0,0,1-1.25-5.22,4.06,4.06,0,0,1,3-2.71.26.26,0,0,1,.15,0l.07,0a10.7,10.7,0,0,1,5,.75c2.71,1.3,3.52,2.85,2.73,5.17a6,6,0,0,1-4.59,4A5.18,5.18,0,0,1,276.81,257.27Zm-2.23-9.49h0a3.61,3.61,0,0,0-2.67,2.38,5.27,5.27,0,0,0,1.16,4.75,4.77,4.77,0,0,0,4.62,1.79,5.56,5.56,0,0,0,4.2-3.65c.6-1.74.41-3.18-2.47-4.56a10.29,10.29,0,0,0-4.76-.7Z"/><path style="fill:#FFFFFF;" d="M43.34,284.86a8.66,8.66,0,0,1-2.56-.37A9.34,9.34,0,0,1,34.91,280a8.12,8.12,0,0,1-.1-6.45c2-5.65,5.36-8.84,10.13-9.76h.21a9.45,9.45,0,0,1,7.61,4.44,11.57,11.57,0,0,1,.89,10.36C52.21,282.2,47.53,284.86,43.34,284.86Zm1.72-20.58h0c-4.59.88-7.78,4-9.76,9.44a7.49,7.49,0,0,0,.08,6A8.84,8.84,0,0,0,40.93,284c4.41,1.39,10.59-1.45,12.26-5.61a11.07,11.07,0,0,0-.85-9.9,9,9,0,0,0-7.22-4.21Z"/><path style="fill:#FFFFFF;" d="M170.57,288.72l-.67,0a17,17,0,0,1-7.33-2.5c-5.09-2.93-7.64-6.25-8.26-10.78-.13-.95-.14-1.9,1.26-2.19l.33-.07a7.24,7.24,0,0,1,1.33-.22c.72-.05,1.45-.07,2.18-.1,1.26,0,2.57-.09,3.84-.24,1.54-.18,3.1-.48,4.61-.77l2-.37H170a5.93,5.93,0,0,1,6.26,3.38l0,.07a17.9,17.9,0,0,1,2,4.57A7.29,7.29,0,0,1,177,286,8.37,8.37,0,0,1,170.57,288.72ZM170,271.94h0l-2,.37c-1.51.29-3.08.59-4.64.78-1.29.15-2.61.2-3.88.24-.73,0-1.45.05-2.17.09a7.92,7.92,0,0,0-1.26.22l-.33.07c-.83.17-1,.52-.87,1.64.6,4.35,3.08,7.56,8,10.41a16.46,16.46,0,0,0,7.11,2.43,8,8,0,0,0,6.68-2.52,6.72,6.72,0,0,0,1.26-6.1,17.72,17.72,0,0,0-2-4.44l0-.06a5.47,5.47,0,0,0-5.77-3.13A.21.21,0,0,1,170,271.94Z"/><path style="fill:#FFFFFF;" d="M172.68,233.45A11.86,11.86,0,0,1,167,232a19,19,0,0,1-5.77-5,11.92,11.92,0,0,1-2.6-10.64,11.2,11.2,0,0,1,4.52-6.17,11.48,11.48,0,0,0,4.65-7.22c.77-4,3.06-6.6,6.78-7.56a.22.22,0,0,1,.14,0h1.17a8,8,0,0,1,3.73.58,9.82,9.82,0,0,1,5.26,6.37A119.17,119.17,0,0,0,191,219.61c1.9,4.13.46,6.11-1.38,7.64a6.1,6.1,0,0,1-1.53.92l-2.85,1.25c-2.48,1.1-5,2.23-7.63,3.14A15.26,15.26,0,0,1,172.68,233.45Zm2-37.52h0c-3.53.91-5.68,3.33-6.42,7.18a12,12,0,0,1-4.83,7.52,10.71,10.71,0,0,0-4.34,5.89,11.42,11.42,0,0,0,2.5,10.21,18.52,18.52,0,0,0,5.62,4.84,12.28,12.28,0,0,0,10.25.51c2.58-.9,5.13-2,7.6-3.12l2.86-1.25a5.56,5.56,0,0,0,1.4-.85c1.95-1.61,2.91-3.43,1.24-7a121,121,0,0,1-6.19-17.28,9.34,9.34,0,0,0-5-6.06,7.57,7.57,0,0,0-3.52-.53H174.7Z"/><path style="fill:#FFFFFF;" d="M208.31,142.32a5.91,5.91,0,0,1-2.85-.8c-4-2.19-6.72-5.64-9.07-9.05a3,3,0,0,1-.36-2.34,2,2,0,0,1,1-1.38c.83-.43,1.71-.8,2.56-1.16l1.13-.48a.2.2,0,0,1,.17,0h2.43c5.31,0,9,2.92,10.09,8a6,6,0,0,1-2.6,6.4A4.23,4.23,0,0,1,208.31,142.32Zm-7.39-14.74-1.1.47c-.85.36-1.72.72-2.54,1.15a1.57,1.57,0,0,0-.77,1.06,2.54,2.54,0,0,0,.29,1.93c2.32,3.36,5,6.76,8.9,8.89a4.45,4.45,0,0,0,4.84,0,5.57,5.57,0,0,0,2.41-5.9c-1.06-4.91-4.47-7.61-9.6-7.61h-2.43Z"/><path style="fill:#FFFFFF;" d="M171.08,238.31a13.83,13.83,0,0,1-6.76-1.85c-1.64-.91-3.25-1.94-4.8-2.93a47.48,47.48,0,0,0-9.43-5.07,2.65,2.65,0,0,1-.88-.6c-.12-.1-.24-.21-.37-.3-1.33-1-2.76-2.42-2-5,1.18-4.14,2.07-7.51,2.79-10.59a16.27,16.27,0,0,1,5.1-8.53c1.76-1.62,3.53-3.29,5.25-4.9,1.44-1.36,2.88-2.72,4.34-4.06a17.46,17.46,0,0,1,1.59-1.28c.36-.26.72-.53,1.06-.81a18.4,18.4,0,0,1,8.51-3.73h1.38a12.14,12.14,0,0,1,11.49,7.4,23.17,23.17,0,0,1,1.51,5.93l.18,1c.68,4,1.35,7.28,3.1,10.37.58,1,1.21,2.06,1.82,3.06.76,1.26,1.56,2.56,2.27,3.88,1.16,2.11,2.59,4.74.9,7.6-1.24,2.08-3.35,2.9-5.45,3.48a155,155,0,0,0-16.48,5.88A13.64,13.64,0,0,1,171.08,238.31Zm4.5-49.16h0a17.92,17.92,0,0,0-8.28,3.63c-.35.28-.72.55-1.08.82a18.7,18.7,0,0,0-1.55,1.24c-1.46,1.35-2.9,2.7-4.34,4.06-1.71,1.62-3.49,3.29-5.26,4.91a15.76,15.76,0,0,0-4.94,8.27c-.72,3.09-1.61,6.47-2.8,10.62-.52,1.8,0,3.13,1.84,4.45a4.12,4.12,0,0,1,.4.33,2.47,2.47,0,0,0,.72.5,47.92,47.92,0,0,1,9.53,5.12c1.55,1,3.15,2,4.77,2.91a12.62,12.62,0,0,0,11.43.8,158.06,158.06,0,0,1,16.53-5.89c2-.55,4-1.33,5.16-3.26,1.55-2.61.24-5-.9-7.1-.72-1.31-1.51-2.61-2.27-3.86-.61-1-1.24-2-1.83-3.08-1.79-3.15-2.46-6.49-3.16-10.53-.05-.34-.11-.69-.17-1a22.76,22.76,0,0,0-1.47-5.8c-2.12-4.61-5.83-7-11-7.11h-1.25Z"/><path style="fill:#FFFFFF;" d="M267.24,103.75a6.31,6.31,0,0,1-3.33-1,5.89,5.89,0,0,1-2.69-5.06A23.94,23.94,0,0,1,262.44,91l.07-.23c1.19-4.26,3.61-7.14,7.19-8.56,1.6-.64,3.26-1.2,4.86-1.75l2.22-.77a.26.26,0,0,1,.15,0,.33.33,0,0,1,.17,0,1.91,1.91,0,0,1,1.18,2.67c-.44,1.38-.88,2.77-1.31,4.15l-1.05,3.36-.48,1.51c-.87,2.74-1.73,5.48-2.62,8.21a5.84,5.84,0,0,1-3.23,3.69A5.66,5.66,0,0,1,267.24,103.75Zm9.69-23.61-2.21.77c-1.6.55-3.25,1.11-4.83,1.74-3.43,1.36-5.75,4.13-6.9,8.23l-.07.24a23.51,23.51,0,0,0-1.2,6.6,5.4,5.4,0,0,0,2.46,4.65,5.62,5.62,0,0,0,5.21.43,5.31,5.31,0,0,0,2.95-3.38q1.34-4.11,2.62-8.21l.48-1.51,1.05-3.36c.44-1.38.87-2.77,1.31-4.16C278.13,81.14,277.86,80.51,276.93,80.14Z"/><path style="fill:#FFFFFF;" d="M184.32,163.27a7,7,0,0,1-2.69-.56,97.56,97.56,0,0,1-9.47-4.83c-3.51-2-6.25-2.76-9.16-2.62-1.87.08-3.76.06-5.59,0l-1.94,0a7,7,0,0,1-1.52-.15c-3.82-.84-6.87-3.12-9.6-7.16a12.14,12.14,0,0,1-2.28-8.28c.38-4.06,2.47-7,6.39-8.85a15.81,15.81,0,0,1,3.15-1c.48-.12,1-.24,1.44-.38h.22a10.58,10.58,0,0,1,5.27,1.38,16.77,16.77,0,0,1,5.39,5.52l.72,1.11c1.32,2,2.68,4.16,4,6.26a9,9,0,0,0,5.61,4.25,26.15,26.15,0,0,0,4.33.54l1.22.09c4.4.35,7.44,2.08,9.32,5.29,1.49,2.55,1.55,6.32-1.25,8.27A6.17,6.17,0,0,1,184.32,163.27Zm-20.77-8.52a18.15,18.15,0,0,1,8.85,2.69,96.66,96.66,0,0,0,9.42,4.81,5.89,5.89,0,0,0,5.77-.51c2.55-1.78,2.47-5.25,1.09-7.61-1.78-3-4.7-4.71-8.92-5l-1.22-.08a26.32,26.32,0,0,1-4.41-.55,9.52,9.52,0,0,1-5.91-4.48c-1.31-2.1-2.67-4.21-4-6.25l-.72-1.11a16.28,16.28,0,0,0-5.23-5.36,10.13,10.13,0,0,0-5-1.31h-.07c-.48.14-1,.26-1.46.38a15.5,15.5,0,0,0-3,1c-3.75,1.82-5.75,4.58-6.12,8.45a11.69,11.69,0,0,0,2.21,8c2.65,3.93,5.6,6.14,9.28,6.95a6.76,6.76,0,0,0,1.42.14l1.94,0c1.83,0,3.72.05,5.56,0Z"/><path style="fill:#FFFFFF;" d="M42.51,163.65a9.56,9.56,0,0,1-1.83-.19c-4.76-1-8.2-4-10.24-8.91a17.75,17.75,0,0,1-1.15-8.08,10.65,10.65,0,0,1,4.51-8.58,42.43,42.43,0,0,1,10.11-4.72l1.29-.47a.22.22,0,0,1,.16,0h0c3.2-.58,5.19,1.32,6.56,3a11.89,11.89,0,0,1,1.21,1.81c2,3.72,3.79,8.22,2.1,13.3a23.69,23.69,0,0,1-5.84,9.81A9.89,9.89,0,0,1,42.51,163.65Zm2.85-30.48-1.28.47a41.86,41.86,0,0,0-10,4.65,10.12,10.12,0,0,0-4.3,8.21,17.33,17.33,0,0,0,1.13,7.86c2,4.78,5.29,7.68,9.87,8.61a9.09,9.09,0,0,0,8.29-2.68,23.17,23.17,0,0,0,5.71-9.61c1.64-4.9-.13-9.28-2.07-12.91A11.27,11.27,0,0,0,51.56,136c-1.91-2.39-3.79-3.28-6.08-2.86A.25.25,0,0,1,45.36,133.17Z"/><path style="fill:#FFFFFF;" d="M98.17,119.11A9.24,9.24,0,0,1,92,116.62l-1.67-1.52c-2-1.84-4.15-3.75-6.12-5.73-3-3-5.29-5.48-7.38-8-3.11-3.71-6.64-7.92-8.75-13l-.42-1c-2-4.87-4.11-9.9-6.05-14.9a12.83,12.83,0,0,1,.15-9.74c.85-2,2.18-4.45,5-5.45a.26.26,0,0,1,.15,0h0c2.49-.32,4.35.73,5.7,3.23l.34.62c.29.52.58,1,.84,1.6,2,4.23,4.73,6.93,8.41,8.25l1.68.6c6.3,2.28,12.8,4.64,19.73,4.51A9.46,9.46,0,0,1,111,79.33c3.3,3.51,6.33,7,9,10.47,2.37,3,3.07,5.33.35,9.39-.53.79-1.07,1.57-1.61,2.34a66,66,0,0,0-3.64,5.63,20.21,20.21,0,0,1-6.62,7c-.76.53-1.57,1-2.35,1.49s-1.89,1.14-2.77,1.78A8.74,8.74,0,0,1,98.17,119.11ZM66.87,57.75c-2.6.94-3.83,3.14-4.69,5.17A12.31,12.31,0,0,0,62,72.29c1.93,5,4,10,6,14.89l.42,1c2.08,5,5.59,9.19,8.67,12.88,2.08,2.48,4.41,5,7.35,7.94,2,2,4.07,3.87,6.11,5.71l1.67,1.52A8.34,8.34,0,0,0,103,117c.91-.66,1.88-1.24,2.82-1.81.77-.47,1.57-1,2.32-1.47a19.76,19.76,0,0,0,6.47-6.8,64.33,64.33,0,0,1,3.66-5.66c.54-.78,1.08-1.55,1.6-2.34,2.57-3.83,1.94-5.89-.32-8.81-2.67-3.42-5.69-6.93-9-10.43a9,9,0,0,0-6.8-3.1h-.19c-7,.13-13.57-2.24-19.91-4.53L82,71.43c-3.81-1.36-6.66-4.15-8.7-8.51-.24-.53-.53-1.06-.82-1.57l-.34-.63c-1.24-2.29-2.94-3.26-5.2-3Z"/><path style="fill:#FFFFFF;" d="M74.49,179a2.53,2.53,0,0,1-1.58-.51,3.35,3.35,0,0,1-1.06-3.12,19.92,19.92,0,0,1,7.89-14.18c3.45-2.67,7.14-5.58,10.72-8.7,2-1.75,3.85-3.25,6.32-3.85H97a10,10,0,0,1,9.77,4.86A29.24,29.24,0,0,1,109,158l.42,1a4.33,4.33,0,0,1,.44,2.33,4.8,4.8,0,0,1-2.9,3.9c-2,.85-4,1.76-6,2.63s-4.25,1.88-6.38,2.79c-1.88.8-3.81,1.57-5.67,2.32-2.06.83-4.18,1.69-6.25,2.57-1,.44-2,1-3,1.46-1.18.6-2.4,1.23-3.66,1.73A4.33,4.33,0,0,1,74.49,179Zm22.43-29.88h0c-2.36.57-4.16,2-6.11,3.73C87.2,156,83.51,158.87,80,161.55a19.16,19.16,0,0,0-7.69,13.84,2.89,2.89,0,0,0,.86,2.67,2.66,2.66,0,0,0,2.61.12,39.68,39.68,0,0,0,3.61-1.71c1-.5,2-1,3-1.47,2.08-.89,4.2-1.74,6.26-2.57,1.86-.75,3.79-1.52,5.66-2.32,2.14-.91,4.29-1.86,6.37-2.79s4-1.77,6-2.63a4.35,4.35,0,0,0,2.6-3.52,3.88,3.88,0,0,0-.41-2l-.41-1a29.73,29.73,0,0,0-2.23-4.44A9.56,9.56,0,0,0,97,149.09Z"/><path style="fill:#FFFFFF;" d="M63.68,193.49a18.43,18.43,0,0,1-2.38-.15,23.28,23.28,0,0,1-10.41-3.78,2.94,2.94,0,0,1-1.42-1.84,3.46,3.46,0,0,1,.91-2.49,31.7,31.7,0,0,1,6.28-5.87l.1-.08c.56-.43,1.13-.84,1.7-1.26a21.73,21.73,0,0,0,4.22-3.62,47.47,47.47,0,0,0,5-8.16,27.77,27.77,0,0,1,8.82-10.07,51.31,51.31,0,0,0,9.36-7.65,13.59,13.59,0,0,1,7.67-4.64h3.72a19.09,19.09,0,0,1,12.07,4.19c3.06,2.27,5.8,4.45,8.4,6.65a19.9,19.9,0,0,1,3.7,4,7.7,7.7,0,0,1,1.25,5.29c-.45,3.54-2.71,5.59-6,7.58-3.62,2.22-7.58,2.6-11.33,2.81a25.19,25.19,0,0,0-3.79.44,51.91,51.91,0,0,0-26.26,14.05,13.33,13.33,0,0,1-7.64,4.22A26.47,26.47,0,0,1,63.68,193.49Zm30-49.12h0a13.08,13.08,0,0,0-7.39,4.47,51.71,51.71,0,0,1-9.44,7.73,27.14,27.14,0,0,0-8.66,9.89,47.81,47.81,0,0,1-5.09,8.24,22.27,22.27,0,0,1-4.31,3.72c-.57.41-1.14.82-1.69,1.25l-.11.08a31.21,31.21,0,0,0-6.18,5.76,3,3,0,0,0-.81,2.11,2.46,2.46,0,0,0,1.2,1.52,22.82,22.82,0,0,0,10.19,3.69,22.57,22.57,0,0,0,6.28-.18A13,13,0,0,0,75,188.58a52.18,52.18,0,0,1,26.51-14.18,25.18,25.18,0,0,1,3.86-.46c3.69-.2,7.58-.58,11.1-2.74,3.14-1.91,5.31-3.87,5.73-7.22A7.21,7.21,0,0,0,121,159a19.78,19.78,0,0,0-3.61-3.94c-2.59-2.19-5.33-4.36-8.37-6.63a18.62,18.62,0,0,0-11.77-4.09H93.68Z"/><path style="fill:#FFFFFF;" d="M42.13,158.54a7.43,7.43,0,0,1-3.6-1.08,8.78,8.78,0,0,1-4.07-7,6.66,6.66,0,0,1,2.61-6A9.47,9.47,0,0,1,40,143.17c.45-.14.93-.29,1.37-.45a.29.29,0,0,1,.16,0,.29.29,0,0,1,.13,0c.35.09.71.16,1.08.23a8,8,0,0,1,2.35.72,7.47,7.47,0,0,1,3.4,8.33,9.23,9.23,0,0,1-2,4.25A5.72,5.72,0,0,1,42.13,158.54Zm-.6-15.35c-.45.17-.93.32-1.39.45a9.2,9.2,0,0,0-2.77,1.18,6.21,6.21,0,0,0-2.42,5.6A8.31,8.31,0,0,0,38.77,157c3,1.65,5.31,1.29,7.37-1.12a8.73,8.73,0,0,0,1.86-4,7,7,0,0,0-3.15-7.8,7.92,7.92,0,0,0-2.21-.66c-.37-.07-.74-.14-1.1-.24Z"/><path style="fill:#FFFFFF;" d="M72.15,199c-.58,0-1.16,0-1.73-.05l-1,0c-2.38-.07-5.18-.15-8-.3-1-.06-2.1-.19-3.12-.31l-1-.12c-.93-.11-1.86-.24-2.79-.38a46.48,46.48,0,0,0-6-.59c-2,0-4,.11-6,.23s-4.16.27-6.24.24a6.58,6.58,0,0,1-6.6-5,14.21,14.21,0,0,1,.33-7.8,5.37,5.37,0,0,1,4-4c1.42-.34,2.89-.55,4.32-.75.72-.1,1.45-.21,2.17-.33l1.75-.25a21.62,21.62,0,0,0,4.09-.81A28.43,28.43,0,0,0,61.54,167.4a98.71,98.71,0,0,1,12.12-15.81,24.38,24.38,0,0,0,5.4-7.56c1.42-3.46,4.08-5.08,7.93-4.82,4.19.28,9.15.68,14.16,1.49a37.24,37.24,0,0,1,12.19,4.35,26.57,26.57,0,0,0,6.12,2.61c3.88,1.05,7.9,1.85,11.79,2.63l.26.05a2.18,2.18,0,0,0,1.63-.09c.34-.22.55-.7.72-1.6q.1-.56.18-1.11l.12-.8c.18-1.08.35-2.16.52-3.25.39-2.46.79-5,1.26-7.51,1.17-6.13,4.9-9.92,11.08-11.25l4.46-1,2.17-.49a.29.29,0,0,1,.13,0h1.71c1.2,0,2.45,0,3.67,0,3.28.09,5.37,1.3,6.57,3.81.81,1.7,1.67,3.41,2.51,5.06.54,1.06,1.07,2.12,1.6,3.19,1.55,3.14,3.62,5.1,6.35,6a23.37,23.37,0,0,0,5.53,1c4.95.39,8.67,2.27,11.36,5.73,3.73,4.79,4.27,9.73,1.6,14.67-2.53,4.67-7,6.48-12.3,4.95a78,78,0,0,1-8.6-3.25l-2.34-1a29.24,29.24,0,0,0-12.72-2.63c-1,0-2,0-3,0-.65,0-1.31,0-2,0a18.17,18.17,0,0,1-11.22-3.71,59.16,59.16,0,0,0-6.31-3.95c-.64-.35-1.13-.44-1.47-.25s-.62.83-.67,1.78a37.19,37.19,0,0,0,1.05,9.51c.59,2.77-.09,4.93-2,6.41a10.51,10.51,0,0,1-3,1.66,78.13,78.13,0,0,0-11.91,5.13,25.75,25.75,0,0,1-10.39,3.13,38.09,38.09,0,0,0-11.87,2.62c-6.54,2.6-12.72,5.45-16.39,11.85A7.41,7.41,0,0,1,74,198.84,13.23,13.23,0,0,1,72.15,199Zm-24.08-2.28h.46a45.69,45.69,0,0,1,6.08.6c.93.13,1.85.26,2.78.37l1,.12c1,.13,2.06.25,3.08.31,2.78.15,5.58.23,8,.3l1,0a19.79,19.79,0,0,0,3.53-.06,6.9,6.9,0,0,0,5.09-3.54c3.76-6.54,10-9.43,16.64-12.06a38.21,38.21,0,0,1,12-2.66A25.29,25.29,0,0,0,117.92,177a80.2,80.2,0,0,1,12-5.17,9.81,9.81,0,0,0,2.86-1.57c1.79-1.38,2.39-3.32,1.85-5.92a37.78,37.78,0,0,1-1.07-9.64c.06-1.14.37-1.87.93-2.18a2,2,0,0,1,2,.24,62.21,62.21,0,0,1,6.36,4,17.74,17.74,0,0,0,10.91,3.61c.66,0,1.33,0,2,0,1,0,2,0,3,0A29.61,29.61,0,0,1,171.63,163l2.35,1a77.65,77.65,0,0,0,8.54,3.23c5,1.45,9.31-.26,11.72-4.71,2.56-4.75,2-9.5-1.55-14.13-2.6-3.34-6.21-5.15-11-5.54a23.92,23.92,0,0,1-5.65-1.05c-2.86-1-5-3-6.64-6.27-.53-1.06-1.06-2.12-1.6-3.18-.83-1.66-1.7-3.37-2.51-5.08-1.11-2.32-3.06-3.44-6.13-3.52-1.22,0-2.46,0-3.65,0h-1.74l-2.17.49-4.46,1c-6,1.28-9.57,4.94-10.69,10.86-.48,2.49-.88,5-1.27,7.49l-.51,3.25c0,.26-.09.53-.12.79s-.11.76-.18,1.13a2.76,2.76,0,0,1-.94,1.93,2.58,2.58,0,0,1-2,.16l-.27-.05c-3.89-.78-7.92-1.58-11.82-2.63a27.61,27.61,0,0,1-6.24-2.66,36.44,36.44,0,0,0-12-4.29c-5-.81-9.94-1.21-14.12-1.49-3.6-.25-6.1,1.27-7.43,4.51A24.64,24.64,0,0,1,74,151.94,98.36,98.36,0,0,0,62,167.67a29,29,0,0,1-15.43,11.57,23,23,0,0,1-4.19.83c-.58.08-1.16.15-1.73.25-.73.12-1.45.22-2.18.32-1.42.2-2.88.41-4.27.75A4.85,4.85,0,0,0,30.51,185a13.67,13.67,0,0,0-.34,7.54,6.1,6.1,0,0,0,6.13,4.61c2.06,0,4.16-.11,6.19-.24C44.32,196.8,46.21,196.68,48.07,196.68Z"/><path style="fill:#FFFFFF;" d="M280.28,207.47a3.06,3.06,0,0,1-1.82-.82,3.89,3.89,0,0,1-1.69-3.37,2.84,2.84,0,0,1,1.75-2.22.23.23,0,0,1,.18,0,.25.25,0,0,1,.12,0,4.27,4.27,0,0,1,3.43,2.66,2.53,2.53,0,0,1-.84,3.38A2,2,0,0,1,280.28,207.47Zm-1.58-5.94a2.32,2.32,0,0,0-1.43,1.81,3.43,3.43,0,0,0,1.51,2.92c.82.65,1.53,1,2.35.41a2,2,0,0,0,.65-2.78,3.8,3.8,0,0,0-3-2.36Z"/><path style="fill:#FFFFFF;" d="M42.49,167.47a12.46,12.46,0,0,1-4.2-.75,18.59,18.59,0,0,1-11.36-11.3,25.75,25.75,0,0,1-1.47-10.86,27.29,27.29,0,0,1,.6-4.75c1-4.24,3.86-7.18,6.83-9.72a9.51,9.51,0,0,0,3.71-6.17c.14-1.18.17-2.38.2-3.55s.06-2.25.17-3.37A13.87,13.87,0,0,1,38,112.82c.79-1.81,2.53-2.28,4.22-2.73l.32-.08a.22.22,0,0,1,.14,0h3.75a28.25,28.25,0,0,1,10.1,1.94c1.61.6,2.52,1.3,2.89,2.2s.21,2-.53,3.58a.64.64,0,0,0-.06.18,2,2,0,0,1-.09.26c-2.15,4.36-2.68,8.35-1.61,12.2.78,2.8,1.56,5.6,2.36,8.4,1.07,3.73,2.06,8.08.26,12.38-2.41,5.76-5.38,10.06-9.08,13.16A12.66,12.66,0,0,1,42.49,167.47Zm.22-57h0l-.32.09c-1.57.41-3.2.85-3.9,2.44a13.85,13.85,0,0,0-1,4c-.12,1.1-.14,2.24-.17,3.33s-.06,2.4-.2,3.59a10,10,0,0,1-3.88,6.5c-2.91,2.49-5.74,5.35-6.67,9.45a27.21,27.21,0,0,0-.59,4.66,25.29,25.29,0,0,0,1.43,10.66,18.13,18.13,0,0,0,11.07,11,11.66,11.66,0,0,0,11.92-2.33c3.64-3,6.56-7.29,8.94-13,1.74-4.16.77-8.4-.28-12.06-.8-2.79-1.58-5.59-2.36-8.39-1.1-4-.57-8.09,1.64-12.56l.06-.17a2,2,0,0,1,.08-.26c.67-1.41.84-2.42.53-3.18s-1.14-1.37-2.6-1.92a27.36,27.36,0,0,0-9.93-1.91H42.71Z"/><path style="fill:#FFFFFF;" d="M175.86,225.41a4.71,4.71,0,0,1-4.26-2.67c-.81-1.94.22-3.31,1.35-4.55a10.62,10.62,0,0,1,4.24-2.7.29.29,0,0,1,.16,0h.06a3.89,3.89,0,0,1,3.94,2.34c.72,1.43,1.27,3.13,0,5a6.64,6.64,0,0,1-4.9,2.58A5.12,5.12,0,0,1,175.86,225.41Zm1.49-9.45a10.12,10.12,0,0,0-4,2.57c-1.06,1.16-2,2.34-1.26,4a4.19,4.19,0,0,0,4.3,2.33,6,6,0,0,0,4.55-2.37c.92-1.32.92-2.62,0-4.48a3.4,3.4,0,0,0-3.48-2.06Z"/><path style="fill:#FFFFFF;" d="M209.53,205.69a1.87,1.87,0,0,1-.49-.07,5,5,0,0,1-3.73-4.13,3.84,3.84,0,0,1,1.87-3.94.25.25,0,0,1,.22,0h.11l.31,0a3,3,0,0,1,.77.13,4.5,4.5,0,0,1,2.39,2.65,5.43,5.43,0,0,1,.15,4.19A1.76,1.76,0,0,1,209.53,205.69ZM207.42,198a3.32,3.32,0,0,0-1.62,3.38,4.52,4.52,0,0,0,3.36,3.76c.67.17,1.15-.1,1.52-.85a5,5,0,0,0-.16-3.78,4,4,0,0,0-2.1-2.37,3.06,3.06,0,0,0-.64-.1l-.34,0Z"/><path style="fill:#FFFFFF;" d="M121.82,231.33a8.92,8.92,0,0,1-1.9-.21,3.23,3.23,0,0,1-2.53-3.64c.41-2.85,1.43-6.26,5.62-7.28a.19.19,0,0,1,.13,0h.07l.51,0a6.36,6.36,0,0,1,1.15,0c2.5.38,3.61,1.39,3.84,3.46a6.81,6.81,0,0,1-2.11,5.92A7.06,7.06,0,0,1,121.82,231.33Zm1.32-10.65h0c-3,.75-4.65,2.87-5.24,6.87a2.73,2.73,0,0,0,2.15,3.08,6.91,6.91,0,0,0,6.23-1.42,6.3,6.3,0,0,0,2-5.5c-.2-1.82-1.16-2.67-3.42-3a6,6,0,0,0-1.05,0l-.53,0Z"/><path style="fill:#FFFFFF;" d="M47.15,99.3a5.8,5.8,0,0,1-2.86-.78,5.51,5.51,0,0,1-2.45-7.08,5.73,5.73,0,0,1,3.67-3.23.17.17,0,0,1,.14,0,1.39,1.39,0,0,1,.41,0,5.17,5.17,0,0,0,.68,0,4.7,4.7,0,0,1,4.91,3A6,6,0,0,1,51.4,97,5,5,0,0,1,47.15,99.3Zm-1.5-10.62h0a5.16,5.16,0,0,0-3.36,3,5,5,0,0,0,2.24,6.43A4.69,4.69,0,0,0,51,96.72a5.59,5.59,0,0,0,.22-5.35,4.23,4.23,0,0,0-4.41-2.68,6,6,0,0,1-.73,0A1.31,1.31,0,0,1,45.65,88.68Z"/><path style="fill:#FFFFFF;" d="M159,80.72a10.59,10.59,0,0,1-3-.32c-2.83-.84-5.71-2-7.5-4.79a3.46,3.46,0,0,1-.42-2.8,2.32,2.32,0,0,1,1.25-1.53l2.21-1a.23.23,0,0,1,.18,0l.07,0h.75c.52,0,1.07,0,1.59,0a7.68,7.68,0,0,1,5.94,2.42,6.94,6.94,0,0,1,2,5.52c-.18,1.64-1.06,2.54-2.48,2.56Zm-7.24-10-2.18,1a1.85,1.85,0,0,0-1,1.22,3,3,0,0,0,.36,2.39c1.71,2.65,4.48,3.76,7.23,4.58a12.13,12.13,0,0,0,3.45.3c1.45,0,1.88-1.16,2-2.11A6.43,6.43,0,0,0,159.71,73a7.16,7.16,0,0,0-5.55-2.26c-.54,0-1.09,0-1.63,0h-.81Z"/></g></g></svg>